<?xml version="1.0" encoding="UTF-8"?>
<svg version="1.1" xmlns="http://www.w3.org/2000/svg" width="2048" height="512">
<path d="M0 0 C675.84 0 1351.68 0 2048 0 C2048 168.96 2048 337.92 2048 512 C1372.16 512 696.32 512 0 512 C0 343.04 0 174.08 0 0 Z " fill="#FCFCFC" transform="translate(0,0)"/>
<path d="M0 0 C0.47953125 0.57621094 0.9590625 1.15242187 1.453125 1.74609375 C2.9565636 3.25371309 2.9565636 3.25371309 5.21875 2.86328125 C7.99318514 2.00211529 10.70476882 1.02460246 13.41552734 -0.01904297 C30.84350447 -6.65302349 54.54106856 -12.85857125 72.80078125 -6.0390625 C84.02405951 -0.73641238 90.22324785 4.93004924 94.92797852 16.47412109 C96.85134217 22.8000646 96.78642768 29.18925539 96.8125 35.75 C96.83571018 37.1406631 96.86108871 38.53129176 96.88867188 39.921875 C96.94699936 43.28153838 96.98367959 46.63991487 97 50 C97.98492432 49.39816895 97.98492432 49.39816895 98.98974609 48.78417969 C109.20215822 42.59108789 119.66626049 36.38331302 132 37 C131.87625 35.0509375 131.87625 35.0509375 131.75 33.0625 C131.75 24.85887791 136.067789 17.18036024 141.609375 11.2890625 C151.05509721 2.35075512 162.58405565 -1.13478207 175 -4 C176.10214844 -4.30035156 177.20429687 -4.60070312 178.33984375 -4.91015625 C186.80314588 -6.99447464 195.05895935 -7.34106355 203.75 -7.4375 C204.88663086 -7.45973633 206.02326172 -7.48197266 207.19433594 -7.50488281 C217.75603561 -7.47719412 226.73032408 -4.97371001 234.92578125 1.8828125 C244.34292704 11.49504041 246.31644855 21.57806005 246.20776367 34.50561523 C246.20656525 35.63349457 246.20536682 36.7613739 246.20413208 37.9234314 C246.20099225 40.36185473 246.19370377 42.80027555 246.1826992 45.23867607 C246.16780034 49.10226481 246.16945889 52.96550879 246.17634583 56.82911682 C246.19514453 67.81042207 246.20223648 78.79146566 246.15454102 89.77270508 C246.12551132 96.49952161 246.13329039 103.22546204 246.16155434 109.95231819 C246.16580854 112.50989917 246.15736511 115.0675348 246.1358242 117.62502861 C246.10689897 121.20586544 246.12128917 124.78417071 246.14526367 128.36499023 C246.12630539 129.4141008 246.10734711 130.46321136 246.08781433 131.54411316 C246.19219652 138.33409149 247.71374365 141.98235518 252.26076221 147.04966831 C258.41850622 153.95478696 258.74395555 161.96004818 258.3828125 170.83203125 C257.61102133 181.56187007 252.50900664 189.86925519 244.875 197.1875 C235.66496023 204.57555364 223.30301439 206.7306124 212 209 C211.24847656 209.15243164 210.49695312 209.30486328 209.72265625 209.46191406 C183.8434174 214.58246431 183.8434174 214.58246431 173.6875 209.8125 C169.98108054 208.08121196 168.10735302 207.83126412 164.1875 209.0625 C162.45676287 209.70411283 160.72769022 210.35022729 159 211 C140.52574448 216.45062891 121.20060505 214.91115683 104 206 C102.64291457 205.07560848 101.30559475 204.1207926 100 203.125 C97.34111272 200.74222836 97.34111272 200.74222836 95.04296875 201.21875 C92.21728644 202.29931685 89.95791724 203.92445178 87.48828125 205.6484375 C79.07007744 210.22096265 71.03370207 210.4422461 61.5859375 210.3984375 C60.20309293 210.40046311 58.8202494 210.40337858 57.43740845 210.40713501 C54.5545219 210.41153257 51.67191615 210.40520912 48.7890625 210.39111328 C45.10953207 210.37399018 41.43065681 210.38389802 37.75115013 210.40183067 C34.90110402 210.41271102 32.05121135 210.40920338 29.20116043 210.4014473 C27.18995991 210.39849838 25.17875321 210.40754264 23.16757202 210.4168396 C16.62083293 210.36657765 11.80491558 210.06885376 6 207 C3.50417589 207.09871362 3.50417589 207.09871362 1 208 C-6.37139323 210.31193697 -13.45246544 210.33935725 -21.140625 210.37109375 C-22.51291997 210.38008264 -23.88521407 210.38920481 -25.25750732 210.39845276 C-28.12530887 210.41486951 -30.99299472 210.42262922 -33.86083984 210.42553711 C-37.5031632 210.43090882 -41.14437124 210.46856821 -44.78638077 210.51428127 C-47.61946402 210.54429201 -50.45228659 210.55126582 -53.28551483 210.55226326 C-55.2705523 210.55841532 -57.25547555 210.58775343 -59.24029541 210.61778259 C-66.83482175 210.58039539 -72.54590481 209.49422283 -79.40252686 206.17176819 C-84.67627383 203.79268337 -87.83601734 203.98833756 -93.3125 205.6875 C-109.89312773 210.47200187 -132.66058189 216.82158489 -148.94921875 208.97265625 C-152.50559683 207.28591693 -154.06972886 206.70836738 -157.953125 207.92578125 C-159.04109375 208.38339844 -160.1290625 208.84101563 -161.25 209.3125 C-176.72271668 215.77180397 -193.70240011 216.43904876 -209.484375 210.4765625 C-219.1961833 206.39760302 -226.47130855 201.38107005 -234 194 C-234.75410156 193.29101562 -235.50820313 192.58203125 -236.28515625 191.8515625 C-238 190 -238 190 -238 188 C-239.05574219 188.85271484 -239.05574219 188.85271484 -240.1328125 189.72265625 C-257.1431326 203.02446009 -276.29243619 210.29125155 -297.97241211 210.30639648 C-299.00812851 210.31472 -300.04384491 210.32304352 -301.11094666 210.33161926 C-304.49978503 210.35551307 -307.88843036 210.36446448 -311.27734375 210.37109375 C-313.6542618 210.38007324 -316.03117932 210.3891953 -318.40809631 210.39845276 C-323.37648893 210.41488749 -328.34481459 210.42263324 -333.31323242 210.42553711 C-339.65576085 210.43092601 -345.99765402 210.46865197 -352.34000301 210.51428127 C-357.24473841 210.54412454 -362.14932182 210.5512622 -367.05414009 210.55226326 C-369.39155561 210.55644828 -371.72897231 210.5688128 -374.06629753 210.58978081 C-390.22407816 210.72324646 -402.56428493 210.38485526 -414.80078125 198.6015625 C-422.19815126 189.85085481 -424.40229844 180.36442704 -424.27734375 169.16015625 C-423.43057635 159.51177843 -418.73802891 151.73802891 -412 145 C-411.77562826 142.5443026 -411.67505733 140.19881503 -411.66186523 137.73974609 C-411.65032913 136.99152588 -411.63879303 136.24330566 -411.62690735 135.47241211 C-411.59251501 132.98939959 -411.5740771 130.50663633 -411.55859375 128.0234375 C-411.54823939 126.75035673 -411.54823939 126.75035673 -411.53767586 125.45155716 C-411.50179734 120.95549576 -411.47828452 116.45956048 -411.46459961 111.96337891 C-411.44808845 107.32931495 -411.38973245 102.69678706 -411.32145596 98.06323814 C-411.27655264 94.49256951 -411.26309617 90.92226416 -411.25798225 87.35133743 C-411.25010911 85.64412627 -411.23052589 83.93692565 -411.19875908 82.22999191 C-410.69436487 71.44546484 -410.69436487 71.44546484 -415.39868164 62.15087891 C-416.0140126 61.61733795 -416.62934357 61.083797 -417.26332092 60.53408813 C-422.44420419 55.95757677 -423.80655031 48.95248618 -424.23828125 42.36328125 C-424.55627283 30.77441336 -422.70799664 22.2641644 -415.10546875 13.10546875 C-403.84098266 1.84098266 -390.62560237 0.61769188 -375.52742004 0.5831604 C-373.5143716 0.58853286 -371.50132512 0.59468649 -369.48828125 0.6015625 C-367.38998819 0.59953728 -365.29169582 0.59662212 -363.19340515 0.59286499 C-358.80668401 0.5884579 -354.4201469 0.59481727 -350.03344727 0.60888672 C-344.45371634 0.62592437 -338.87442018 0.61616131 -333.29470539 0.59816933 C-328.9628329 0.58724231 -324.63106059 0.59081927 -320.2991848 0.5985527 C-318.2442132 0.60053293 -316.18923205 0.59817342 -314.13427162 0.59111404 C-290.46660861 0.52766721 -265.2476214 3.31280945 -247.5625 20.8125 C-240.85838712 27.7296994 -236.48863983 34.62764542 -234 44 C-232.59814453 43.51080078 -232.59814453 43.51080078 -231.16796875 43.01171875 C-211.75357791 36.46255747 -190.66616786 32.30027842 -171 40 C-168.80784375 41.26766863 -166.81526463 42.55894991 -164.84375 44.14453125 C-160.59968608 46.11370498 -155.50831745 43.61004445 -151.29345703 42.28588867 C-132.86515742 36.50274387 -111.69898971 31.94060613 -93 39 C-93.0928125 37.081875 -93.0928125 37.081875 -93.1875 35.125 C-93.13427689 23.78847843 -87.91547784 13.89553807 -80.25 5.75 C-59.94045527 -13.29498817 -22.66699064 -17.00024298 0 0 Z " fill="#F7F7F6" transform="translate(977,154)"/>
<path d="M0 0 C0.93584427 -0.0065712 1.87168854 -0.0131424 2.83589172 -0.01991272 C5.92241509 -0.03956566 9.00888993 -0.05129203 12.09545898 -0.0612793 C13.1549217 -0.06535482 14.21438442 -0.06943035 15.30595207 -0.07362938 C20.91653114 -0.09445855 26.527086 -0.10877249 32.13769531 -0.11816406 C37.90509776 -0.12920671 43.67211211 -0.16359127 49.43937778 -0.20333576 C53.89807302 -0.22960088 58.35667726 -0.23786479 62.81544304 -0.24144554 C64.93990632 -0.24628788 67.06436619 -0.25783386 69.18875313 -0.27648354 C86.86253433 -0.42196563 103.18964911 1.1407666 116.52905273 14.17700195 C123.9704563 23.95417941 124.61504745 34.64778071 123.25170898 46.6105957 C121.15462172 56.53680876 114.83774153 64.63787609 106.52905273 70.17700195 C106.52905273 71.16700195 106.52905273 72.15700195 106.52905273 73.17700195 C107.44686523 73.58950195 108.36467773 74.00200195 109.31030273 74.42700195 C122.03656676 80.33042023 129.04863097 86.90262398 134.52905273 100.17700195 C138.18987311 112.79201273 135.56119851 126.37829526 129.84155273 137.80200195 C122.55478916 150.3898417 111.2930603 156.53207234 97.52563477 160.34692383 C86.84491393 163.05649127 76.03147114 162.75543783 65.08374023 162.70825195 C62.85653515 162.71095266 60.62933122 162.71483986 58.40213013 162.71984863 C53.76788951 162.7257042 49.13395998 162.71730064 44.49975586 162.69848633 C38.56596936 162.67556529 32.63290148 162.68892788 26.69914055 162.71277618 C22.11459933 162.72722734 17.53022887 162.72263353 12.94568253 162.71226501 C10.7568465 162.70960277 8.56799483 162.71284976 6.37917709 162.72218323 C3.32829289 162.73235207 0.27858016 162.71684832 -2.7722168 162.69458008 C-4.11879112 162.70672546 -4.11879112 162.70672546 -5.49256897 162.71911621 C-12.27651191 162.62747282 -15.82343198 160.61550287 -20.84594727 155.98950195 C-23.14798393 152.00520773 -23.25089342 148.67363027 -22.47094727 144.17700195 C-20.56237531 140.35985805 -18.91661669 138.48624196 -15.40844727 136.05200195 C-10.81974132 132.33347941 -10.34055803 126.7538399 -9.47094727 121.17700195 C-8.94679183 114.60083931 -9.04756613 107.99543248 -9.07250977 101.40356445 C-9.07048486 99.5069467 -9.06756997 97.61032971 -9.06381226 95.7137146 C-9.05941498 91.76178487 -9.06574 87.81006003 -9.07983398 83.8581543 C-9.09699502 78.80096108 -9.08702465 73.74424319 -9.06911659 68.68706703 C-9.05826838 64.78022689 -9.06172866 60.87349928 -9.06949997 56.96665573 C-9.07149545 55.10158608 -9.06906568 53.23650608 -9.06206131 51.37144852 C-9.05442185 48.76810884 -9.06608252 46.16553838 -9.08276367 43.56225586 C-9.07669098 42.79851654 -9.07061829 42.03477722 -9.06436157 41.24789429 C-9.12072014 36.48760784 -9.9717406 33.2304505 -12.47094727 29.17700195 C-14.12439015 27.67418837 -14.12439015 27.67418837 -15.97094727 26.67700195 C-19.52209908 24.30456226 -21.1096344 22.34101778 -22.47094727 18.17700195 C-23.16830735 13.33034937 -22.96661436 10.11706023 -20.65844727 5.73950195 C-15.10563199 -0.76522451 -7.89493928 0.02427869 0 0 Z " fill="#1E1D1E" transform="translate(598.470947265625,178.822998046875)"/>
<path d="M0 0 C0.86455811 -0.01772461 1.72911621 -0.03544922 2.61987305 -0.05371094 C8.9009109 -0.04641094 13.03601682 0.92544383 17.88389587 5.18934631 C20.75472422 9.99402898 20.29599457 14.57907257 20.24829102 20.07592773 C20.25656921 21.86210007 20.25656921 21.86210007 20.26501465 23.68435669 C20.27676972 26.9428187 20.27113327 30.20071738 20.25871015 33.45915866 C20.25065574 36.87436485 20.26750913 40.28943555 20.28245544 43.7046051 C20.31325019 51.64857061 20.31477777 59.59240856 20.31280518 67.53642273 C20.31141163 77.64442774 20.32180662 87.75233444 20.3613829 97.86026722 C20.37385075 101.25754047 20.37952773 104.65455957 20.36987495 108.05184746 C20.36064987 111.8412646 20.36913513 115.63027712 20.38110352 119.41967773 C20.37338425 120.54039169 20.36566498 121.66110565 20.35771179 122.81578064 C20.39977788 129.26474448 20.70946531 134.26519352 25.50390625 139.0703125 C26.10074219 139.52148438 26.69757813 139.97265625 27.3125 140.4375 C30.67514946 142.9974525 32.42124001 145.20996521 33.0859375 149.4609375 C33.18190945 154.93133865 32.43944498 158.00814752 28.75 162.3125 C25.11995716 165.70465168 20.93615826 166.63968173 16.25 167.875 C15.44191895 168.09115967 14.63383789 168.30731934 13.80126953 168.5300293 C4.64759539 170.92837585 -4.22161905 172.47007762 -13.6875 172.75 C-15.00621094 172.78996094 -16.32492187 172.82992187 -17.68359375 172.87109375 C-22.13401567 172.17403971 -23.51832698 170.82320569 -26.25 167.3125 C-27.33079483 164.95481675 -27.69735888 162.87474519 -28.25 160.3125 C-32.03026598 160.88294554 -33.79289773 162.50066884 -36.5 165.125 C-47.38829963 175.13434299 -58.51350369 174.96899835 -72.68701172 174.47851562 C-84.0266263 173.74400068 -93.04090303 166.57752285 -100.796875 158.73828125 C-115.34841319 142.01377847 -118.08748887 121.64085655 -117.25 100.3125 C-115.93987837 83.78625143 -108.26975739 67.77376361 -96.25 56.3125 C-89.81161985 50.92325555 -83.23285488 47.7830674 -75.25 45.3125 C-74.26 44.9825 -73.27 44.6525 -72.25 44.3125 C-57.68370052 43.54971292 -47.18630937 45.34891219 -34.25 52.3125 C-34.28311373 49.89218755 -34.35032789 47.48096713 -34.4375 45.0625 C-34.44330078 44.38058594 -34.44910156 43.69867188 -34.45507812 42.99609375 C-34.61881981 39.24822841 -34.91036544 37.64433967 -37.6328125 34.984375 C-38.49648437 34.43265625 -39.36015625 33.8809375 -40.25 33.3125 C-44.58189467 29.28283054 -46.96661294 26.86298356 -47.625 20.9375 C-47.11145173 15.97320007 -45.47233802 13.27775522 -41.73046875 9.96875 C-35.37932913 5.430245 -27.71796519 4.04942224 -20.25 2.3125 C-19.42886719 2.08433594 -18.60773438 1.85617188 -17.76171875 1.62109375 C-11.90571332 0.13368917 -6.00999999 0.0755364 0 0 Z " fill="#1E1E1E" transform="translate(1179.25,169.6875)"/>
<path d="M0 0 C0.80155518 -0.02239746 1.60311035 -0.04479492 2.42895508 -0.06787109 C7.75172917 -0.04659567 10.80619587 0.88649621 15 4.4375 C18.26382702 7.86557298 18.37266226 10.42430507 18.36889648 15.08276367 C18.3745462 16.07144943 18.3745462 16.07144943 18.38031006 17.08010864 C18.38673274 18.5080085 18.38642164 19.93595113 18.38012505 21.36385155 C18.37099062 23.63106522 18.38126673 25.89745592 18.39674377 28.16462708 C18.43676434 34.60916885 18.43805593 41.05364561 18.43579102 47.49829102 C18.43573964 51.44531489 18.45504782 55.39189771 18.48512459 59.33880043 C18.49587176 61.55959694 18.48386338 63.77952233 18.47129822 66.00028992 C18.48960279 73.32483991 18.58348819 80.26546825 23 86.4375 C26.22747055 88.58914703 27.20505639 88.70995079 30.9375 88.6875 C31.79214844 88.69265625 32.64679688 88.6978125 33.52734375 88.703125 C36.29175791 88.40615792 37.74607722 88.07500549 40 86.4375 C43.3687733 81.19344463 43.46739164 76.64972901 43.46875 70.62109375 C43.47636353 69.68701187 43.48397705 68.75292999 43.49182129 67.7905426 C43.50259106 65.82303533 43.50548814 63.85547103 43.50097656 61.88793945 C43.50000185 58.88070673 43.54170804 55.87600697 43.5859375 52.86914062 C43.59114321 50.9531303 43.59383271 49.03711114 43.59375 47.12109375 C43.61014526 46.22514999 43.62654053 45.32920624 43.64343262 44.40611267 C43.59387254 39.92620876 43.50257463 38.06003514 40.60351562 34.46899414 C39.74435547 33.79860107 38.88519531 33.12820801 38 32.4375 C34.22042653 28.76291468 32.84032644 26.99620777 32.6875 21.6875 C32.77258396 16.75972071 33.50053491 14.1076707 37 10.4375 C43.05368087 6.3326341 49.27814993 4.17141514 56.375 2.625 C57.32383057 2.41488281 58.27266113 2.20476562 59.25024414 1.98828125 C65.65744103 0.67431262 71.8977278 -0.02805278 78.4375 -0.0625 C79.58001221 -0.07180542 79.58001221 -0.07180542 80.74560547 -0.08129883 C85.82411808 0.03486889 89.48967864 1.07764554 94 3.4375 C98.46653387 8.25665497 99.14840723 11.36681144 99.15771484 17.74536133 C99.16279556 18.49840042 99.16787628 19.25143951 99.17311096 20.02729797 C99.18382335 21.66532535 99.19244012 23.30336745 99.19923019 24.94141579 C99.21100687 27.53480837 99.23045705 30.12803349 99.25234985 32.72135925 C99.31400323 40.09583966 99.3679962 47.47030386 99.40136719 54.8449707 C99.42232071 59.35373763 99.45763141 63.86220093 99.50212479 68.3707943 C99.51628195 70.0887259 99.52500659 71.80671125 99.52817917 73.52469826 C99.53309176 75.93060656 99.55625848 78.33571043 99.58349609 80.74145508 C99.58048996 81.44969421 99.57748383 82.15793335 99.5743866 82.88763428 C99.6638326 88.2117217 100.97368276 91.47754687 104.7890625 95.16796875 C105.69785156 95.88919922 105.69785156 95.88919922 106.625 96.625 C110.83907876 99.99448491 110.83907876 99.99448491 111.23828125 103.57421875 C111.3840773 108.58499871 111.31216382 112.74512387 108.42578125 116.98046875 C102.08190877 123.46338501 90.54412818 124.51282271 82 126.4375 C81.33564941 126.59138184 80.67129883 126.74526367 79.98681641 126.90380859 C60.59610861 131.35563404 60.59610861 131.35563404 54.0625 128.62890625 C50.59528283 126.22019047 49.60407476 123.62652678 48.8125 119.6875 C48.71582031 118.90890625 48.61914062 118.1303125 48.51953125 117.328125 C48.34808594 116.70421875 48.17664063 116.0803125 48 115.4375 C46.515 114.9425 46.515 114.9425 45 114.4375 C42.58850975 116.13475876 42.58850975 116.13475876 40.0625 118.5 C29.5759584 127.43866112 20.25872038 130.62290907 6.8125 130.75 C5.80896484 130.77900391 4.80542969 130.80800781 3.77148438 130.83789062 C-7.44816156 130.93278678 -15.75744599 126.56471814 -23.69140625 118.77734375 C-33.13364094 108.38851912 -35.44874331 95.64494924 -35.37109375 81.98046875 C-35.38845849 79.62825362 -35.40604303 77.27604011 -35.42382812 74.92382812 C-35.43393176 71.25916743 -35.43748594 67.59460576 -35.43579102 63.92993164 C-35.43935756 60.36314897 -35.46666489 56.79711765 -35.49609375 53.23046875 C-35.48791122 52.13663376 -35.4797287 51.04279877 -35.47129822 49.91581726 C-35.55052549 41.82266959 -36.95751305 38.55242711 -42.625 32.75 C-43.40875 31.986875 -44.1925 31.22375 -45 30.4375 C-47.87806637 26.12040045 -47.90908915 22.49383881 -47 17.4375 C-44.45509075 11.80305111 -40.08057023 9.20850076 -34.49682617 6.90185547 C-31.04058768 5.59803201 -27.54165741 4.48420747 -24 3.4375 C-22.85015625 3.09589844 -21.7003125 2.75429687 -20.515625 2.40234375 C-13.69515319 0.6812153 -7.00549428 0.12216154 0 0 Z " fill="#1F1E1F" transform="translate(784,213.5625)"/>
<path d="M0 0 C0.47953125 0.57621094 0.9590625 1.15242187 1.453125 1.74609375 C2.9565636 3.25371309 2.9565636 3.25371309 5.21875 2.86328125 C7.99318514 2.00211529 10.70476882 1.02460246 13.41552734 -0.01904297 C30.84350447 -6.65302349 54.54106856 -12.85857125 72.80078125 -6.0390625 C84.02405951 -0.73641238 90.22324785 4.93004924 94.92797852 16.47412109 C96.85134217 22.8000646 96.78642768 29.18925539 96.8125 35.75 C96.83571018 37.1406631 96.86108871 38.53129176 96.88867188 39.921875 C96.94699936 43.28153838 96.98367959 46.63991487 97 50 C97.98492432 49.39816895 97.98492432 49.39816895 98.98974609 48.78417969 C109.20215822 42.59108789 119.66626049 36.38331302 132 37 C131.87625 35.0509375 131.87625 35.0509375 131.75 33.0625 C131.75 24.85887791 136.067789 17.18036024 141.609375 11.2890625 C151.05509721 2.35075512 162.58405565 -1.13478207 175 -4 C176.10214844 -4.30035156 177.20429687 -4.60070312 178.33984375 -4.91015625 C186.80314588 -6.99447464 195.05895935 -7.34106355 203.75 -7.4375 C204.88663086 -7.45973633 206.02326172 -7.48197266 207.19433594 -7.50488281 C217.75603561 -7.47719412 226.73032408 -4.97371001 234.92578125 1.8828125 C244.34292704 11.49504041 246.31644855 21.57806005 246.20776367 34.50561523 C246.20656525 35.63349457 246.20536682 36.7613739 246.20413208 37.9234314 C246.20099225 40.36185473 246.19370377 42.80027555 246.1826992 45.23867607 C246.16780034 49.10226481 246.16945889 52.96550879 246.17634583 56.82911682 C246.19514453 67.81042207 246.20223648 78.79146566 246.15454102 89.77270508 C246.12551132 96.49952161 246.13329039 103.22546204 246.16155434 109.95231819 C246.16580854 112.50989917 246.15736511 115.0675348 246.1358242 117.62502861 C246.10689897 121.20586544 246.12128917 124.78417071 246.14526367 128.36499023 C246.12630539 129.4141008 246.10734711 130.46321136 246.08781433 131.54411316 C246.19219652 138.33409149 247.71374365 141.98235518 252.26076221 147.04966831 C258.41850622 153.95478696 258.74395555 161.96004818 258.3828125 170.83203125 C257.61102133 181.56187007 252.50900664 189.86925519 244.875 197.1875 C235.66496023 204.57555364 223.30301439 206.7306124 212 209 C211.24847656 209.15243164 210.49695312 209.30486328 209.72265625 209.46191406 C183.8434174 214.58246431 183.8434174 214.58246431 173.6875 209.8125 C169.98108054 208.08121196 168.10735302 207.83126412 164.1875 209.0625 C162.45676287 209.70411283 160.72769022 210.35022729 159 211 C140.52574448 216.45062891 121.20060505 214.91115683 104 206 C102.64291457 205.07560848 101.30559475 204.1207926 100 203.125 C97.34111272 200.74222836 97.34111272 200.74222836 95.04296875 201.21875 C92.21728644 202.29931685 89.95791724 203.92445178 87.48828125 205.6484375 C79.07007744 210.22096265 71.03370207 210.4422461 61.5859375 210.3984375 C60.20309293 210.40046311 58.8202494 210.40337858 57.43740845 210.40713501 C54.5545219 210.41153257 51.67191615 210.40520912 48.7890625 210.39111328 C45.10953207 210.37399018 41.43065681 210.38389802 37.75115013 210.40183067 C34.90110402 210.41271102 32.05121135 210.40920338 29.20116043 210.4014473 C27.18995991 210.39849838 25.17875321 210.40754264 23.16757202 210.4168396 C16.62083293 210.36657765 11.80491558 210.06885376 6 207 C3.50417589 207.09871362 3.50417589 207.09871362 1 208 C-6.37139323 210.31193697 -13.45246544 210.33935725 -21.140625 210.37109375 C-22.51291997 210.38008264 -23.88521407 210.38920481 -25.25750732 210.39845276 C-28.12530887 210.41486951 -30.99299472 210.42262922 -33.86083984 210.42553711 C-37.5031632 210.43090882 -41.14437124 210.46856821 -44.78638077 210.51428127 C-47.61946402 210.54429201 -50.45228659 210.55126582 -53.28551483 210.55226326 C-55.2705523 210.55841532 -57.25547555 210.58775343 -59.24029541 210.61778259 C-66.83482175 210.58039539 -72.54590481 209.49422283 -79.40252686 206.17176819 C-84.67627383 203.79268337 -87.83601734 203.98833756 -93.3125 205.6875 C-109.89312773 210.47200187 -132.66058189 216.82158489 -148.94921875 208.97265625 C-152.50559683 207.28591693 -154.06972886 206.70836738 -157.953125 207.92578125 C-159.04109375 208.38339844 -160.1290625 208.84101563 -161.25 209.3125 C-176.72271668 215.77180397 -193.70240011 216.43904876 -209.484375 210.4765625 C-219.1961833 206.39760302 -226.47130855 201.38107005 -234 194 C-234.75410156 193.29101562 -235.50820313 192.58203125 -236.28515625 191.8515625 C-238 190 -238 190 -238 188 C-239.05574219 188.85271484 -239.05574219 188.85271484 -240.1328125 189.72265625 C-257.1431326 203.02446009 -276.29243619 210.29125155 -297.97241211 210.30639648 C-299.00812851 210.31472 -300.04384491 210.32304352 -301.11094666 210.33161926 C-304.49978503 210.35551307 -307.88843036 210.36446448 -311.27734375 210.37109375 C-313.6542618 210.38007324 -316.03117932 210.3891953 -318.40809631 210.39845276 C-323.37648893 210.41488749 -328.34481459 210.42263324 -333.31323242 210.42553711 C-339.65576085 210.43092601 -345.99765402 210.46865197 -352.34000301 210.51428127 C-357.24473841 210.54412454 -362.14932182 210.5512622 -367.05414009 210.55226326 C-369.39155561 210.55644828 -371.72897231 210.5688128 -374.06629753 210.58978081 C-390.22407816 210.72324646 -402.56428493 210.38485526 -414.80078125 198.6015625 C-422.19815126 189.85085481 -424.40229844 180.36442704 -424.27734375 169.16015625 C-423.43057635 159.51177843 -418.73802891 151.73802891 -412 145 C-411.77562826 142.5443026 -411.67505733 140.19881503 -411.66186523 137.73974609 C-411.65032913 136.99152588 -411.63879303 136.24330566 -411.62690735 135.47241211 C-411.59251501 132.98939959 -411.5740771 130.50663633 -411.55859375 128.0234375 C-411.54823939 126.75035673 -411.54823939 126.75035673 -411.53767586 125.45155716 C-411.50179734 120.95549576 -411.47828452 116.45956048 -411.46459961 111.96337891 C-411.44808845 107.32931495 -411.38973245 102.69678706 -411.32145596 98.06323814 C-411.27655264 94.49256951 -411.26309617 90.92226416 -411.25798225 87.35133743 C-411.25010911 85.64412627 -411.23052589 83.93692565 -411.19875908 82.22999191 C-410.69436487 71.44546484 -410.69436487 71.44546484 -415.39868164 62.15087891 C-416.0140126 61.61733795 -416.62934357 61.083797 -417.26332092 60.53408813 C-422.44420419 55.95757677 -423.80655031 48.95248618 -424.23828125 42.36328125 C-424.55627283 30.77441336 -422.70799664 22.2641644 -415.10546875 13.10546875 C-403.84098266 1.84098266 -390.62560237 0.61769188 -375.52742004 0.5831604 C-373.5143716 0.58853286 -371.50132512 0.59468649 -369.48828125 0.6015625 C-367.38998819 0.59953728 -365.29169582 0.59662212 -363.19340515 0.59286499 C-358.80668401 0.5884579 -354.4201469 0.59481727 -350.03344727 0.60888672 C-344.45371634 0.62592437 -338.87442018 0.61616131 -333.29470539 0.59816933 C-328.9628329 0.58724231 -324.63106059 0.59081927 -320.2991848 0.5985527 C-318.2442132 0.60053293 -316.18923205 0.59817342 -314.13427162 0.59111404 C-290.46660861 0.52766721 -265.2476214 3.31280945 -247.5625 20.8125 C-240.85838712 27.7296994 -236.48863983 34.62764542 -234 44 C-232.59814453 43.51080078 -232.59814453 43.51080078 -231.16796875 43.01171875 C-211.75357791 36.46255747 -190.66616786 32.30027842 -171 40 C-168.80784375 41.26766863 -166.81526463 42.55894991 -164.84375 44.14453125 C-160.59968608 46.11370498 -155.50831745 43.61004445 -151.29345703 42.28588867 C-132.86515742 36.50274387 -111.69898971 31.94060613 -93 39 C-93.0928125 37.081875 -93.0928125 37.081875 -93.1875 35.125 C-93.13427689 23.78847843 -87.91547784 13.89553807 -80.25 5.75 C-59.94045527 -13.29498817 -22.66699064 -17.00024298 0 0 Z M-78.5 14.03515625 C-84.60200835 22.02815156 -86.72482773 30.11127885 -86 40 C-84.791317 46.22116251 -82.62608142 50.87347109 -79 56 C-79 56.99 -79 57.98 -79 59 C-80.485 59.495 -80.485 59.495 -82 60 C-82.165 59.319375 -82.33 58.63875 -82.5 57.9375 C-86.20223451 50.68729075 -93.47463398 46.51295885 -101 44 C-120.91324716 39.09574574 -146.03797485 46.27426169 -164 55 C-164.53173828 54.32904297 -164.53173828 54.32904297 -165.07421875 53.64453125 C-171.23419279 46.64930649 -178.72335808 43.59973796 -187.91796875 42.5546875 C-204.74748149 41.76935041 -225.80072437 45.53381625 -240 55 C-239.9175 54.071875 -239.835 53.14375 -239.75 52.1875 C-239.83060626 42.17217222 -245.47966544 33.20219961 -252 26 C-269.87046139 9.74494755 -291.59523176 7.36674952 -314.6484375 7.50390625 C-316.7987981 7.50375087 -318.94915898 7.50225552 -321.09951782 7.49949646 C-325.57575062 7.4981217 -330.05165937 7.51052085 -334.52783203 7.53344727 C-340.24366598 7.56193251 -345.95896687 7.55905397 -351.67484093 7.54635715 C-356.10340883 7.5393824 -360.53185492 7.5472081 -364.96040726 7.55961418 C-367.06778114 7.56410392 -369.1751682 7.56448735 -371.28254318 7.56054878 C-374.22948546 7.55761616 -377.17570771 7.57423755 -380.12255859 7.59594727 C-380.97784149 7.59144562 -381.83312439 7.58694397 -382.71432495 7.58230591 C-393.77068965 7.71663825 -403.00332699 11.26612845 -411 19 C-417.30733904 27.28825669 -418.19264322 35.84482011 -417 46 C-415.59567193 51.85634683 -411.99449439 57.32979129 -407.40960693 61.16921997 C-404.32732865 64.79024699 -404.27933685 67.62011455 -404.32128906 72.16748047 C-404.30931488 72.97626648 -404.2973407 73.78505249 -404.28500366 74.61834717 C-404.2528701 77.28511676 -404.25763003 79.95025717 -404.265625 82.6171875 C-404.25717361 84.47657837 -404.24753274 86.33596418 -404.23675537 88.19534302 C-404.2203682 92.09086738 -404.22306983 95.98582343 -404.23828125 99.88134766 C-404.25555452 104.86417778 -404.2184472 109.84489856 -404.16601944 114.82742119 C-404.13287431 118.66749919 -404.13234813 122.50707307 -404.14116669 126.34726334 C-404.14080757 128.18363017 -404.12956252 130.02002936 -404.10706329 131.85625839 C-403.95419531 146.24320638 -403.95419531 146.24320638 -406.53259277 150.57452393 C-408.40527344 152.41845703 -408.40527344 152.41845703 -410.26702881 153.72366333 C-414.24672548 156.65471771 -416.06632261 162.27925732 -417 167 C-417.91189815 177.19532032 -416.28935405 185.25408857 -409.8125 193.3125 C-404.82698435 198.62035502 -398.28933823 202.66240558 -390.89706039 203.13422108 C-390.13984821 203.13849456 -389.38263603 203.14276804 -388.60247803 203.14717102 C-387.7282016 203.15432632 -386.85392517 203.16148163 -385.95315552 203.16885376 C-385.00149506 203.17154266 -384.04983459 203.17423157 -383.06933594 203.17700195 C-382.06057404 203.18357315 -381.05181213 203.19014435 -380.01248169 203.19691467 C-376.66977865 203.2166405 -373.32712072 203.22831384 -369.984375 203.23828125 C-368.26565563 203.24439454 -368.26565563 203.24439454 -366.51221466 203.25063133 C-360.43783245 203.27149722 -354.3634728 203.28579209 -348.2890625 203.29516602 C-342.04884718 203.30618185 -335.80899323 203.34052446 -329.56890488 203.38033772 C-324.74378858 203.40664284 -319.91875619 203.41487054 -315.09357452 203.41844749 C-312.79575432 203.42328409 -310.49793711 203.43481318 -308.20018768 203.45348549 C-285.43878279 203.62683255 -263.87593362 200.53297145 -246 185 C-244.00492877 182.9221009 -242.13935178 180.81469135 -240.33984375 178.56640625 C-239 177 -239 177 -237 176 C-236.773125 176.86753906 -236.54625 177.73507812 -236.3125 178.62890625 C-234.82882428 182.43965668 -232.77123823 185.01832921 -230 187.9375 C-229.50870605 188.45965088 -229.01741211 188.98180176 -228.51123047 189.51977539 C-219.12792783 199.24239707 -206.82405215 206.59341023 -193 207 C-192.071875 207.061875 -191.14375 207.12375 -190.1875 207.1875 C-178.33712065 207.65222076 -167.39815386 204.79368228 -156.74609375 199.69921875 C-154.07930143 198.63130863 -152.62544893 198.89454782 -150 200 C-147.64018219 201.29010541 -145.32509025 202.64722022 -143 204 C-133.41591307 207.17948281 -122.10223533 204.63950776 -112.5 202.75 C-110.81970703 202.44255859 -110.81970703 202.44255859 -109.10546875 202.12890625 C-102.1488419 200.80498072 -95.54575819 199.01297469 -88.85742188 196.68066406 C-85.74950343 195.94032942 -84.02356643 196.04121454 -81 197 C-80.05125 197.639375 -79.1025 198.27875 -78.125 198.9375 C-70.67537856 203.85425015 -62.95161393 203.30699818 -54.2890625 203.30078125 C-52.95299142 203.30467591 -51.61692157 203.30901215 -50.28085327 203.31376648 C-47.48862688 203.32119999 -44.69652698 203.32095863 -41.90429688 203.31567383 C-38.34823996 203.30988634 -34.79270511 203.32680615 -31.23673439 203.3500185 C-28.47926876 203.36484125 -25.72192637 203.36561598 -22.96442795 203.36250877 C-21.02310639 203.36326316 -19.08180378 203.37706622 -17.14053345 203.39118958 C-10.90481905 203.35876787 -5.63716405 203.03883988 0.15640259 200.62516785 C4.04521528 199.3064631 7.70330603 200.42577056 11.32957458 202.03163147 C14.36594302 203.13270084 16.7512273 203.27328107 19.97680664 203.30639648 C21.15896255 203.32238388 22.34111847 203.33837128 23.55909729 203.35484314 C24.82994675 203.36020584 26.1007962 203.36556854 27.41015625 203.37109375 C28.72858017 203.38012222 30.04700409 203.3891507 31.40538025 203.39845276 C34.19695474 203.41491798 36.98840975 203.42263728 39.7800293 203.42553711 C43.3249282 203.43089286 46.86867226 203.46846377 50.41324711 203.51428127 C53.16655867 203.54431688 55.9196023 203.55126645 58.67306328 203.55226326 C60.60491483 203.55841776 62.53664893 203.58775969 64.46827698 203.61778259 C74.709379 203.56609554 83.74681236 201.53141488 91.25 194.1875 C92.18615333 193.14212879 93.11122209 192.08593639 94 191 C96.52692662 192.48908176 99.00743052 194.00502513 101.4375 195.6484375 C116.08057382 205.51465492 131.7095872 209.41534397 149.20703125 206.65136719 C154.5053063 205.49140503 159.42183101 203.79665365 164.2578125 201.35546875 C167 200 167 200 169 200.125 C171.71835969 201.31428236 174.34641329 202.67320665 177 204 C194.83281306 209.64770218 220.84488873 202.01830706 237 194 C244.64011552 189.28588617 248.21823418 182.34529745 251 174 C252.00813393 162.92492865 250.20161476 155.88226066 243.8125 146.9375 C242.14090662 144.92559604 242.14090662 144.92559604 240 144 C239.99853344 143.39169185 239.99706688 142.78338369 239.99555588 142.15664196 C239.95840913 127.31488181 239.89929075 112.4733293 239.81609726 97.6317625 C239.77638726 90.45429323 239.74395419 83.27693232 239.72900391 76.09936523 C239.71594543 69.83909483 239.68887481 63.57906367 239.64538693 57.31892806 C239.62286538 54.00804267 239.60917465 50.69751301 239.60811615 47.38654137 C239.60573944 43.67880124 239.57860034 39.9719844 239.54589844 36.2644043 C239.55344398 34.64059341 239.55344398 34.64059341 239.56114197 32.98397827 C239.44812465 24.65910535 237.88340836 16.42069709 232.75 9.625 C222.13811453 -0.50452704 210.94481333 -0.5999802 196.92578125 -0.38671875 C187.22561038 -0.01492584 178.25445927 2.22595654 169 5 C167.80761719 5.32226562 166.61523438 5.64453125 165.38671875 5.9765625 C155.05802115 8.99511453 146.47815318 14.56129013 141 24 C139.02827944 28.00400592 138.75675606 31.24318785 138.8125 35.6875 C138.82216797 37.39486328 138.82216797 37.39486328 138.83203125 39.13671875 C138.80804161 41.94447181 138.80804161 41.94447181 140 44 C139.29617188 43.95359375 138.59234375 43.9071875 137.8671875 43.859375 C121.02604308 43.24377181 107.64310747 49.88228481 95.25 60.9375 C93.47697022 62.60471993 91.72073603 64.27926397 90 66 C89.9906543 64.68394775 89.98130859 63.36789551 89.97167969 62.01196289 C89.93160011 57.0970765 89.86579164 52.18280427 89.79248047 47.26831055 C89.76437474 45.14729747 89.74310884 43.02618168 89.72900391 40.9050293 C89.70743011 37.84370734 89.6607058 34.78360692 89.609375 31.72265625 C89.60753204 30.3158535 89.60753204 30.3158535 89.60565186 28.88063049 C89.42156017 20.47592378 86.84729515 12.85183744 80.984375 6.640625 C70.7050439 -1.85803457 59.67400634 -2.14748344 47 -1 C32.52878312 0.53180695 18.64571794 4.40306424 6.07421875 11.86328125 C4 13 4 13 2 13 C1.00273838 11.82358958 0.05255133 10.60712043 -0.875 9.375 C-7.76820383 1.2754855 -18.08432158 -2.23829966 -28.44580078 -3.23535156 C-47.42918798 -4.26629152 -64.93972435 -0.34003981 -78.5 14.03515625 Z " fill="#232324" transform="translate(977,154)"/>
<path d="M0 0 C0.87277588 -0.01772461 1.74555176 -0.03544922 2.64477539 -0.05371094 C8.51069688 -0.04692102 11.66759643 0.88974388 16.29354763 4.60097218 C18.18607175 6.92465823 18.06618007 8.3882271 18.07276917 11.36491394 C18.08241699 12.40924591 18.09206482 13.45357788 18.102005 14.52955627 C18.09742783 15.6750444 18.09285065 16.82053253 18.08813477 18.00073242 C18.09860336 19.81090851 18.09860336 19.81090851 18.10928345 21.65765381 C18.12243544 24.28354398 18.13017018 26.90879824 18.12875557 29.53465843 C18.12672161 33.69162152 18.146293 37.84831163 18.16893005 42.00520325 C18.20993294 50.08634499 18.22850546 58.16746542 18.24510193 66.24868774 C18.26744164 76.51674168 18.30114503 86.7847323 18.35230106 97.05268365 C18.37215324 101.17925134 18.38179816 105.30567687 18.38325322 109.43229043 C18.38666718 112.61398676 18.40257886 115.79562869 18.41625977 118.97729492 C18.41370682 120.1126619 18.41115387 121.24802887 18.40852356 122.4178009 C18.46445446 131.08783291 18.9194788 137.83429636 24.8125 144.625 C28.53447698 149.48856339 29.66171245 152.77046435 29.140625 158.8671875 C28.21264372 163.8750865 26.94647863 166.3702129 22.84570312 169.43945312 C17.60720122 172.30122731 12.04558854 171.88495587 6.21875 171.84375 C5.02447388 171.8475769 3.83019775 171.85140381 2.59973145 171.85534668 C0.08161574 171.8580615 -2.43652836 171.85073066 -4.95458984 171.83398438 C-8.79979576 171.81257075 -12.64313316 171.83380297 -16.48828125 171.859375 C-18.94010827 171.85673165 -21.39193414 171.85160653 -23.84375 171.84375 C-25.56120422 171.85589539 -25.56120422 171.85589539 -27.31335449 171.86828613 C-33.86757323 171.79162717 -37.99289587 171.24279171 -43.3125 167.3125 C-46.62143968 163.68334035 -47.04768718 159.76456459 -46.94140625 154.99609375 C-45.9340186 150.69748929 -43.27100432 148.05087903 -40.2578125 144.9296875 C-35.9855676 139.18188814 -36.01420548 132.11995311 -36.02197266 125.22192383 C-36.01525543 124.35096573 -36.00853821 123.48000763 -36.00161743 122.58265686 C-35.98275013 119.72822236 -35.97872001 116.87402405 -35.9765625 114.01953125 C-35.97013044 112.02512009 -35.96340178 110.03070987 -35.95639038 108.03630066 C-35.94444856 103.86800954 -35.94070674 99.69980115 -35.94189453 95.53149414 C-35.9420984 90.19154092 -35.91471269 84.85211584 -35.88035011 79.51228809 C-35.85812206 75.39875345 -35.85405561 71.28534721 -35.85511398 67.17175865 C-35.85275507 65.2025742 -35.84391525 63.23338637 -35.82844925 61.26426125 C-35.80885729 58.51409223 -35.8145987 55.76508014 -35.82666016 53.01489258 C-35.81542114 52.20387085 -35.80418213 51.39284912 -35.79260254 50.55725098 C-35.83421501 46.82414251 -36.14673398 44.57631746 -38.15145874 41.38578796 C-40.31868704 39.1587896 -40.31868704 39.1587896 -43.375 37.4375 C-46.916703 34.87541698 -48.4544041 32.52278363 -49.3125 28.3125 C-49.78864783 22.58938975 -48.90598388 18.43009346 -45.25 13.9375 C-38.36521923 7.01099328 -29.52524036 4.85472139 -20.3125 2.3125 C-19.53519531 2.08304688 -18.75789062 1.85359375 -17.95703125 1.6171875 C-12.0397743 0.1300185 -6.06920649 0.0760212 0 0 Z " fill="#1E1E1E" transform="translate(1031.3125,169.6875)"/>
<path d="M0 0 C1.38638672 -0.0309375 1.38638672 -0.0309375 2.80078125 -0.0625 C8.08385328 -0.09273217 12.04150333 0.08501779 16.5 3.25 C19.61204841 7.32202479 19.92851992 10.87298757 19.88476562 15.83496094 C19.8901384 16.58201294 19.89551117 17.32906494 19.90104675 18.09875488 C19.91080335 19.71542531 19.91377531 21.33214798 19.91069031 22.94884491 C19.90619751 25.51434612 19.92025528 28.07916282 19.93908691 30.64459229 C19.97582472 36.09638374 19.98956173 41.54810304 20 47 C20.01210963 53.3070281 20.03384057 59.61372221 20.08000183 65.92060089 C20.09349034 68.43595297 20.08941529 70.95087401 20.08459473 73.46624756 C20.11869486 83.41968029 20.34478281 92.2099253 27.125 100.1875 C31.09500962 104.93643555 31.8477193 107.51328927 31.78515625 113.70703125 C31.26426744 118.35221772 28.84110787 121.07145066 25.4375 124.0625 C21.91128977 126.22372563 18.97134051 126.387444 14.93041992 126.42700195 C13.21800362 126.44625481 13.21800362 126.44625481 11.47099304 126.46589661 C9.61943352 126.47697701 9.61943352 126.47697701 7.73046875 126.48828125 C5.82712517 126.50038887 5.82712517 126.50038887 3.8853302 126.51274109 C1.19784901 126.52658158 -1.48950953 126.53759815 -4.17700195 126.54516602 C-7.6102494 126.55622236 -11.04284726 126.59061869 -14.47586536 126.63033772 C-17.76118926 126.66285373 -21.04657098 126.66728678 -24.33203125 126.67578125 C-26.17448174 126.70204338 -26.17448174 126.70204338 -28.05415344 126.72883606 C-34.48929721 126.71248042 -38.6512481 126.67622297 -43.5 122.25 C-46.46634439 119.18267367 -47.002156 116.85753405 -47.125 112.625 C-47.00661377 106.55030636 -45.09848134 103.26425887 -41.2265625 98.69921875 C-36.86977786 92.51889303 -37.19257636 85.51659961 -37.19921875 78.2421875 C-37.19493362 77.19854034 -37.1906485 76.15489319 -37.18623352 75.07962036 C-37.18051151 72.88267744 -37.17997419 70.68571559 -37.18432617 68.48876953 C-37.18749632 65.12890491 -37.16396459 61.76991285 -37.13867188 58.41015625 C-37.13639969 56.27083444 -37.13569501 54.13151027 -37.13671875 51.9921875 C-37.127509 50.9900119 -37.11829926 49.9878363 -37.10881042 48.95529175 C-37.13805422 42.10411729 -37.13805422 42.10411729 -40.5 36.25 C-42.16270287 34.91172696 -43.82916181 33.57810215 -45.5 32.25 C-48.42532865 27.58170549 -48.32236446 22.56896282 -47.5 17.25 C-44.80452239 11.34195316 -39.40044675 8.76473716 -33.64453125 6.37890625 C-22.4055033 2.34402541 -11.90663526 0.06642474 0 0 Z " fill="#1E1E1F" transform="translate(948.5,214.75)"/>
<path d="M0 0 C2.89135789 2.10535769 5.14947221 3.90169275 6.609375 7.171875 C7.52957984 13.55196189 7.56640257 19.85461921 3.609375 25.171875 C-2.30878269 31.74277067 -9.00452846 35.69039337 -17.92285156 36.36279297 C-39.90092067 37.28013184 -39.90092067 37.28013184 -47.640625 31.921875 C-52.12248849 27.44001151 -53.56455123 23.9466312 -53.828125 17.671875 C-53.67357833 12.71294266 -52.79647311 9.93623343 -49.390625 6.171875 C-36.70416863 -5.68720378 -15.1925496 -9.61730204 0 0 Z " fill="#1E1F20" transform="translate(961.390625,171.828125)"/>
<path d="M0 0 C4.56728322 1.911886 6.53995645 4.78278248 9 9 C10.70521746 14.11565238 10.22548198 19.56712559 10.24023438 24.92163086 C10.24985563 27.03085053 10.28084911 29.13905931 10.3125 31.24804688 C10.38377193 40.22664917 10.41873413 48.9141958 4.4375 56.0625 C1.87132208 58.10228245 0.57055381 58.89132308 -2.625 59.5 C-7.82302947 58.72992156 -10.74444445 56.03300165 -14 52 C-19.62904521 40.69352237 -21.07871626 26.32187275 -17.828125 14.0625 C-14.43195724 5.60411991 -9.69777878 -1.02081882 0 0 Z " fill="#F6F6F5" transform="translate(1136,248)"/>
<path d="M0 0 C5.99488976 0.06566144 9.24845269 0.4734501 13.875 4.3125 C18.9202785 10.86360008 19.72082726 18.29501061 18.875 26.3125 C17.55067766 31.10276309 15.49496742 34.57156332 12.3125 38.375 C7.50202635 41.08635788 3.28177435 41.25023743 -2.125 40.3125 C-4.78063802 38.4156157 -5.69742527 37.16764945 -7.125 34.3125 C-7.22359764 31.84328023 -7.26486876 29.40291664 -7.2578125 26.93359375 C-7.25924759 25.84269188 -7.25924759 25.84269188 -7.26071167 24.72975159 C-7.26139235 23.19231072 -7.25954585 21.65486699 -7.25537109 20.11743164 C-7.25001351 17.755957 -7.25532377 15.39467189 -7.26171875 13.03320312 C-7.2610581 11.54166624 -7.25977721 10.05012948 -7.2578125 8.55859375 C-7.25983673 7.84819443 -7.26186096 7.1377951 -7.26394653 6.40586853 C-7.23270163 -0.07824702 -6.33634917 0.13711917 0 0 Z " fill="#F7F7F6" transform="translate(653.125,270.6875)"/>
<path d="M0 0 C4.79768194 0.13956893 7.46685648 1.50961856 11.3125 4.375 C14.23569851 8.99488017 14.77804975 13.02250365 14.6875 18.375 C14.69910156 19.06078125 14.71070313 19.7465625 14.72265625 20.453125 C14.68885003 26.35794492 13.09261976 30.32516512 9.25 34.75 C5.06922598 37.06276861 1.00518284 37.08928447 -3.6875 36.375 C-6.59191659 33.47058341 -5.94617736 31.30742155 -5.953125 27.25 C-5.95503845 26.5472998 -5.9569519 25.84459961 -5.95892334 25.12060547 C-5.96028475 23.63443646 -5.95659132 22.14825555 -5.94824219 20.66210938 C-5.93754154 18.38384354 -5.94813839 16.10636623 -5.9609375 13.828125 C-5.9596159 12.38541492 -5.95705349 10.94270534 -5.953125 9.5 C-5.95086914 8.18257812 -5.94861328 6.86515625 -5.94628906 5.5078125 C-5.56161702 0.85110345 -4.60173959 0.46797352 0 0 Z " fill="#F7F6F5" transform="translate(651.6875,206.625)"/>
<path d="M0 0 C0.66 0.99 1.32 1.98 2 3 C3.0828125 4.4540625 3.0828125 4.4540625 4.1875 5.9375 C6 9 6 9 5.75 11.375 C5.37875 12.179375 5.37875 12.179375 5 13 C4.01 13 3.02 13 2 13 C0 10.25 0 10.25 -2 7 C-2.98866506 5.65824027 -3.9838154 4.32103998 -5 3 C-4.01 3 -3.02 3 -2 3 C-0.84188612 1.94729537 -0.84188612 1.94729537 0 0 Z " fill="#2F2F30" transform="translate(893,201)"/>
<path d="M0 0 C0.66 0.33 1.32 0.66 2 1 C1.01 2.32 0.02 3.64 -1 5 C-0.01 5 0.98 5 2 5 C0.9024777 7.99324263 0.32317108 8.84610901 -2.625 10.25 C-3.40875 10.4975 -4.1925 10.745 -5 11 C-6.02214896 7.74770785 -6.18671298 6.41076857 -4.75 3.25 C-3 1 -3 1 0 0 Z " fill="#1A1C1D" transform="translate(734,337)"/>
<path d="M0 0 C0.99 0.33 1.98 0.66 3 1 C2.04882866 2.1725131 1.08882991 3.33787015 0.125 4.5 C-0.40867187 5.1496875 -0.94234375 5.799375 -1.4921875 6.46875 C-1.98976563 6.9740625 -2.48734375 7.479375 -3 8 C-3.66 8 -4.32 8 -5 8 C-5.33 11.3 -5.66 14.6 -6 18 C-6.33 18 -6.66 18 -7 18 C-7.59221131 13.41271243 -8.00030864 9.56940654 -5.44140625 5.5546875 C-3.70134588 3.60105836 -1.93127295 1.76376458 0 0 Z " fill="#363535" transform="translate(744,223)"/>
<path d="M0 0 C0.66 0 1.32 0 2 0 C1.8125 2.3125 1.8125 2.3125 1 5 C-1.4375 6.875 -1.4375 6.875 -4 8 C-4.66 7.67 -5.32 7.34 -6 7 C-5.04882866 5.8274869 -4.08882991 4.66212985 -3.125 3.5 C-2.59132813 2.8503125 -2.05765625 2.200625 -1.5078125 1.53125 C-0.76144531 0.77328125 -0.76144531 0.77328125 0 0 Z " fill="#2C2E2D" transform="translate(738,330)"/>
<path d="M0 0 C0.66 0.33 1.32 0.66 2 1 C-0.31 3.64 -2.62 6.28 -5 9 C-5.33 8.01 -5.66 7.02 -6 6 C-4.02 4.02 -2.04 2.04 0 0 Z " fill="#282B31" transform="translate(1227,342)"/>
<path d="M0 0 C2.88575819 0.39803561 3.82189513 0.79009069 5.75 3.0625 C6.1625 3.701875 6.575 4.34125 7 5 C3 5 3 5 1.25 3.625 C0 2 0 2 0 0 Z " fill="#171719" transform="translate(742,345)"/>
<path d="M0 0 C0.66 0 1.32 0 2 0 C2.66 1.32 3.32 2.64 4 4 C2.68 4.33 1.36 4.66 0 5 C-0.66 4.01 -1.32 3.02 -2 2 C-1.34 1.34 -0.68 0.68 0 0 Z " fill="#E7E6E5" transform="translate(737,342)"/>
</svg>
