<?xml version="1.0" encoding="UTF-8"?>
<svg version="1.1" xmlns="http://www.w3.org/2000/svg" width="2048" height="512">
<path d="M0 0 C675.84 0 1351.68 0 2048 0 C2048 168.96 2048 337.92 2048 512 C1372.16 512 696.32 512 0 512 C0 343.04 0 174.08 0 0 Z " fill="#FDFEFE" transform="translate(0,0)"/>
<path d="M0 0 C0.77447479 -0.00970322 1.54894958 -0.01940643 2.34689331 -0.02940369 C4.83027406 -0.05415576 7.31338353 -0.06690431 9.796875 -0.07421875 C10.64425232 -0.07683716 11.49162964 -0.07945557 12.36468506 -0.08215332 C25.47662196 -0.08649574 37.85572828 0.68919652 50.546875 4.23828125 C51.67738281 4.52703125 52.80789063 4.81578125 53.97265625 5.11328125 C65.58066439 8.48577648 76.4988532 15.31065239 85.546875 23.23828125 C86.30613281 23.89183594 87.06539062 24.54539063 87.84765625 25.21875 C95.79138719 32.54834375 101.44993819 41.35118339 102.546875 52.23828125 C103.61164063 51.7071875 104.67640625 51.17609375 105.7734375 50.62890625 C136.11221618 35.74971393 166.35099059 35.52296957 198.546875 44.23828125 C198.546875 44.89828125 198.546875 45.55828125 198.546875 46.23828125 C199.35125 46.32078125 200.155625 46.40328125 200.984375 46.48828125 C208.46790518 48.06376129 214.43746897 51.60042207 220.50390625 56.1640625 C222.45853808 57.41771315 222.45853808 57.41771315 224.546875 57.11328125 C226.98881308 56.04493334 228.70437475 54.65257564 230.734375 52.92578125 C243.67506099 42.61959974 258.80675754 41.73851261 274.73730469 41.84716797 C277.54151045 41.86325048 280.34427538 41.84725097 283.1484375 41.828125 C305.39245779 41.80200311 305.39245779 41.80200311 313.546875 47.23828125 C318.02496433 46.92914293 322.38788272 45.36353876 326.546875 43.73828125 C344.3194129 36.82468547 367.0960141 37.92847009 384.3828125 45.4765625 C388.13999465 47.25599041 391.53890262 49.17912227 394.859375 51.67578125 C397.37689376 53.53174971 397.37689376 53.53174971 399.859375 52.80078125 C401.40246491 51.90363595 402.9423603 51.00082963 404.47265625 50.08203125 C415.1858159 43.84061675 426.39049429 42.08716237 438.6640625 42.0703125 C439.5206546 42.0669841 440.3772467 42.0636557 441.25979614 42.06022644 C443.06332873 42.05518761 444.86687054 42.05281717 446.67041016 42.05297852 C449.4067341 42.05079334 452.14265351 42.03260873 454.87890625 42.01367188 C456.64062364 42.01073691 458.40234292 42.00875281 460.1640625 42.0078125 C460.97060272 42.00062698 461.77714294 41.99344147 462.60812378 41.98603821 C469.52712839 42.01341527 475.85606352 42.8448253 482.046875 46.05078125 C486.29632994 47.4925606 487.84981374 46.90488796 491.87866211 45.29272461 C502.43177744 41.12226939 511.63435666 39.64859698 522.984375 39.86328125 C524.31965889 39.86620559 525.65494732 39.86751362 526.99023438 39.8671875 C532.99405468 39.92179526 537.87841195 40.13811543 543.546875 42.23828125 C544.95913028 42.5312491 546.37582193 42.80399532 547.796875 43.05078125 C560.78607371 45.90100743 570.61802866 54.85284618 579.546875 64.23828125 C580.206875 64.89828125 580.866875 65.55828125 581.546875 66.23828125 C582.21332031 65.66980469 582.87976562 65.10132813 583.56640625 64.515625 C593.92923827 55.83403566 603.74526989 49.65013386 616.546875 45.23828125 C617.78050781 44.79355469 619.01414062 44.34882813 620.28515625 43.890625 C646.80317474 34.47717006 677.12736779 35.99483826 702.61474609 48.01953125 C709.56268985 51.39987154 715.70676786 55.12973743 721.546875 60.23828125 C722.73311581 61.21897302 723.92048121 62.19830737 725.109375 63.17578125 C725.91375 63.85640625 726.718125 64.53703125 727.546875 65.23828125 C730.69809387 63.84623796 733.31830785 61.97968546 736.06274414 59.91259766 C747.74746364 51.15769449 760.31472767 44.72886715 774.546875 41.23828125 C775.69671875 40.94050781 776.8465625 40.64273438 778.03125 40.3359375 C799.66562009 35.46596 828.86998638 35.64617735 848.515625 47.41796875 C852.27544729 48.93635852 855.13574951 47.40736101 858.73828125 45.92578125 C865.24626357 42.66801953 869.52397071 40.48648702 871.8828125 33.421875 C872.10195312 32.70128906 872.32109375 31.98070312 872.546875 31.23828125 C877.36386534 21.42589352 885.4060876 12.5980475 895.234375 7.67578125 C896.38486328 7.08603516 896.38486328 7.08603516 897.55859375 6.484375 C906.38978012 2.80182801 914.11020556 1.78824285 923.671875 1.92578125 C925.36376953 1.92094727 925.36376953 1.92094727 927.08984375 1.91601562 C941.36260299 2.0078287 952.24022114 6.15568508 962.546875 16.23828125 C967.09468313 22.38624409 970.55635705 28.85680685 971.171875 36.55078125 C971.24664063 37.43378906 971.32140625 38.31679687 971.3984375 39.2265625 C971.44742187 39.89042969 971.49640625 40.55429688 971.546875 41.23828125 C972.784375 41.30015625 974.021875 41.36203125 975.296875 41.42578125 C985.88602611 42.64120268 996.17060251 47.86946615 1003.0703125 56.04296875 C1004.44386517 58.04918811 1005.51157285 60.03826418 1006.546875 62.23828125 C1007.1346875 63.47964844 1007.1346875 63.47964844 1007.734375 64.74609375 C1011.95326937 75.26403179 1012.54092484 88.55175001 1008.921875 99.36328125 C1005.04774412 108.11394051 999.92489624 114.2394847 992.546875 120.23828125 C991.886875 120.89828125 991.226875 121.55828125 990.546875 122.23828125 C990.546875 122.89828125 990.546875 123.55828125 990.546875 124.23828125 C991.27003906 124.32335937 991.99320313 124.4084375 992.73828125 124.49609375 C999.01236386 126.15405717 1003.83305058 131.79196336 1007.45703125 136.96484375 C1010.69683371 142.6165876 1012.41307007 147.8477444 1013.546875 154.23828125 C1013.876875 154.56828125 1014.206875 154.89828125 1014.546875 155.23828125 C1015.92148414 173.64287569 1015.56100116 190.78790984 1004.546875 206.23828125 C1003.94875 207.08132813 1003.350625 207.924375 1002.734375 208.79296875 C990.96000215 224.41300369 972.23831475 234.30612572 953.12890625 237.73046875 C937.53392651 239.74249486 921.45011503 239.46298034 906.546875 234.23828125 C904.95746094 233.69494141 904.95746094 233.69494141 903.3359375 233.140625 C891.76123335 228.75175903 880.50393963 221.6738782 873.546875 211.23828125 C870.31559449 212.66004468 868.18777735 214.40611592 865.671875 216.86328125 C859.91338625 222.11479341 853.34364075 225.53617817 846.546875 229.23828125 C845.78503906 229.74359375 845.02320313 230.24890625 844.23828125 230.76953125 C831.36242808 237.79612166 816.16036117 238.81427412 801.796875 238.73828125 C801.11877777 238.73645844 800.44068054 238.73463562 799.74203491 238.73275757 C791.46837774 238.67824234 783.62758218 237.99838327 775.546875 236.23828125 C774.5465625 236.06167969 773.54625 235.88507813 772.515625 235.703125 C757.35010439 232.46365462 742.26164163 224.34776175 730.546875 214.23828125 C730.546875 213.57828125 730.546875 212.91828125 730.546875 212.23828125 C727.0751232 214.21516628 724.12422017 216.37576378 721.109375 218.98828125 C711.23184292 226.96347382 699.49468727 231.31813054 687.546875 235.23828125 C686.67417969 235.54765625 685.80148437 235.85703125 684.90234375 236.17578125 C678.17236979 238.43722646 671.61795282 238.99445098 664.546875 239.23828125 C663.83321777 239.2655127 663.11956055 239.29274414 662.38427734 239.32080078 C639.10860993 240.10837923 616.01433904 235.47774879 596.26171875 222.64453125 C593.73922727 221.04916461 593.73922727 221.04916461 591.41015625 221.34375 C589.2833858 222.36477816 587.62514952 223.55869771 585.796875 225.05078125 C578.36866808 230.80522088 571.80668978 233.3288657 562.37060547 233.4152832 C561.14518036 233.42811844 559.91975525 233.44095367 558.65719604 233.45417786 C557.33946198 233.46156479 556.02172791 233.46895172 554.6640625 233.4765625 C553.98732609 233.48063803 553.31058968 233.48471355 552.6133461 233.48891258 C549.02804121 233.50972403 545.44277397 233.52404434 541.85742188 233.53344727 C538.18260542 233.54447424 534.5084007 233.57884429 530.83379936 233.61861897 C527.98362218 233.64496057 525.13358664 233.65315468 522.28329849 233.65672874 C520.27885505 233.66387604 518.27450914 233.69023975 516.27023315 233.71711731 C509.09508993 233.70024781 503.38823764 232.96191297 496.77883911 230.09220886 C492.67280972 228.52128223 489.34004141 229.6494579 485.30845642 230.97331238 C477.49407973 233.40431902 470.19253766 233.65983146 462.05078125 233.6015625 C460.68603008 233.60104242 459.32127815 233.60156581 457.95652771 233.60307312 C455.12007216 233.60298415 452.28390533 233.59270212 449.44750977 233.57446289 C445.81717076 233.55162542 442.18724655 233.55126698 438.5568552 233.55798054 C435.74898096 233.5613221 432.941201 233.55468945 430.13334465 233.5448513 C428.14583488 233.53915579 426.15830907 233.54043202 424.17079163 233.54182434 C422.96531174 233.53229233 421.75983185 233.52276031 420.51782227 233.51293945 C419.45845963 233.50833206 418.39909698 233.50372467 417.30763245 233.49897766 C414.52419586 233.23613967 412.95604306 232.57877832 410.546875 231.23828125 C408.2764379 231.17229796 408.2764379 231.17229796 405.984375 231.55078125 C405.21996094 231.65003906 404.45554687 231.74929688 403.66796875 231.8515625 C401.36927877 232.21917995 401.36927877 232.21917995 398.546875 233.23828125 C396.53528906 233.34726513 394.52031433 233.39720784 392.50585938 233.4152832 C390.63746399 233.43453606 390.63746399 233.43453606 388.73132324 233.45417786 C387.36776124 233.46235027 386.00419469 233.46979304 384.640625 233.4765625 C383.95102188 233.48063803 383.26141876 233.48471355 382.55091858 233.48891258 C378.89430035 233.50976961 375.23771951 233.52406767 371.58105469 233.53344727 C367.82995687 233.54445555 364.0794615 233.57879032 360.32857513 233.61861897 C357.42349257 233.64496232 354.518549 233.65315507 351.61335754 233.65672874 C350.23244704 233.66155646 348.85154112 233.67305959 347.4707489 233.69176674 C339.54987002 233.79232956 333.06687018 233.27077615 325.75646973 230.08610535 C321.74403049 228.54652769 318.85335146 229.71569067 315.046875 231.23828125 C310.24386585 233.15948491 305.36750617 233.36837031 300.24121094 233.4152832 C299.01263367 233.42811844 297.7840564 233.44095367 296.51824951 233.45417786 C295.20253967 233.46156479 293.88682983 233.46895172 292.53125 233.4765625 C291.85418251 233.48063803 291.17711502 233.48471355 290.47953033 233.48891258 C286.89537369 233.50969847 283.31125447 233.52403211 279.72705078 233.53344727 C276.051045 233.54449484 272.37564726 233.57889636 268.6998558 233.61861897 C265.84972103 233.64492653 262.99972819 233.6531515 260.14948273 233.65672874 C258.14332913 233.66388563 256.13727318 233.69025845 254.13128662 233.71711731 C244.28383927 233.69390614 236.26840039 231.99058951 228.484375 225.67578125 C227.75089844 225.09699219 227.01742188 224.51820313 226.26171875 223.921875 C224.546875 222.23828125 224.546875 222.23828125 223.546875 219.23828125 C222.61681641 219.76615234 222.61681641 219.76615234 221.66796875 220.3046875 C200.99364853 231.83054579 181.48832773 238.64402443 157.484375 238.61328125 C156.22665283 238.61239502 154.96893066 238.61150879 153.6730957 238.6105957 C128.47478297 238.29411068 103.24428549 230.07500048 84.65234375 212.44140625 C84.28753906 212.044375 83.92273438 211.64734375 83.546875 211.23828125 C80.25259575 212.73774629 77.59584821 214.65673816 74.734375 216.86328125 C65.14029497 223.87190246 54.94239228 228.92840292 43.859375 233.11328125 C42.73885742 233.54265991 42.73885742 233.54265991 41.59570312 233.98071289 C30.35018543 238.04390114 18.97848567 238.64816967 7.109375 238.61328125 C6.41021973 238.61273743 5.71106445 238.6121936 4.99072266 238.6116333 C-28.14024849 238.49368584 -58.74067693 226.9082339 -82.453125 203.23828125 C-89.45355419 195.56707923 -95.07494254 187.08194648 -100.453125 178.23828125 C-101.13503906 177.1503125 -101.81695312 176.06234375 -102.51953125 174.94140625 C-104.9651085 170.6185436 -106.23602518 165.99598959 -107.578125 161.23828125 C-107.95517578 159.94277344 -107.95517578 159.94277344 -108.33984375 158.62109375 C-108.83047323 156.93086234 -109.31550359 155.2389938 -109.79443359 153.54541016 C-110.35883235 151.56855015 -110.9573045 149.60147315 -111.5625 147.63671875 C-112.59015658 143.71539758 -113.14806007 139.88768121 -113.578125 135.86328125 C-113.66231689 135.08525146 -113.74650879 134.30722168 -113.83325195 133.50561523 C-115.00414526 121.74804319 -114.87250271 109.97349337 -113.453125 98.23828125 C-112.793125 98.23828125 -112.133125 98.23828125 -111.453125 98.23828125 C-111.41574219 97.56023437 -111.37835938 96.8821875 -111.33984375 96.18359375 C-109.5482297 70.81995949 -93.27888074 45.72058192 -74.453125 29.23828125 C-69.62380763 25.32817662 -64.58605754 21.73615475 -59.453125 18.23828125 C-58.03966797 17.26375 -58.03966797 17.26375 -56.59765625 16.26953125 C-39.99116959 5.7257302 -19.55582605 0.20608606 0 0 Z " fill="#F6F6F5" transform="translate(448.453125,135.76171875)"/>
<path d="M0 0 C0.77447479 -0.00970322 1.54894958 -0.01940643 2.34689331 -0.02940369 C4.83027406 -0.05415576 7.31338353 -0.06690431 9.796875 -0.07421875 C10.64425232 -0.07683716 11.49162964 -0.07945557 12.36468506 -0.08215332 C25.47662196 -0.08649574 37.85572828 0.68919652 50.546875 4.23828125 C51.67738281 4.52703125 52.80789063 4.81578125 53.97265625 5.11328125 C65.58066439 8.48577648 76.4988532 15.31065239 85.546875 23.23828125 C86.30613281 23.89183594 87.06539062 24.54539063 87.84765625 25.21875 C95.79138719 32.54834375 101.44993819 41.35118339 102.546875 52.23828125 C103.61164063 51.7071875 104.67640625 51.17609375 105.7734375 50.62890625 C136.11221618 35.74971393 166.35099059 35.52296957 198.546875 44.23828125 C198.546875 44.89828125 198.546875 45.55828125 198.546875 46.23828125 C199.35125 46.32078125 200.155625 46.40328125 200.984375 46.48828125 C208.46790518 48.06376129 214.43746897 51.60042207 220.50390625 56.1640625 C222.45853808 57.41771315 222.45853808 57.41771315 224.546875 57.11328125 C226.98881308 56.04493334 228.70437475 54.65257564 230.734375 52.92578125 C243.67506099 42.61959974 258.80675754 41.73851261 274.73730469 41.84716797 C277.54151045 41.86325048 280.34427538 41.84725097 283.1484375 41.828125 C305.39245779 41.80200311 305.39245779 41.80200311 313.546875 47.23828125 C318.02496433 46.92914293 322.38788272 45.36353876 326.546875 43.73828125 C344.3194129 36.82468547 367.0960141 37.92847009 384.3828125 45.4765625 C388.13999465 47.25599041 391.53890262 49.17912227 394.859375 51.67578125 C397.37689376 53.53174971 397.37689376 53.53174971 399.859375 52.80078125 C401.40246491 51.90363595 402.9423603 51.00082963 404.47265625 50.08203125 C415.1858159 43.84061675 426.39049429 42.08716237 438.6640625 42.0703125 C439.5206546 42.0669841 440.3772467 42.0636557 441.25979614 42.06022644 C443.06332873 42.05518761 444.86687054 42.05281717 446.67041016 42.05297852 C449.4067341 42.05079334 452.14265351 42.03260873 454.87890625 42.01367188 C456.64062364 42.01073691 458.40234292 42.00875281 460.1640625 42.0078125 C460.97060272 42.00062698 461.77714294 41.99344147 462.60812378 41.98603821 C469.52712839 42.01341527 475.85606352 42.8448253 482.046875 46.05078125 C486.29632994 47.4925606 487.84981374 46.90488796 491.87866211 45.29272461 C502.43177744 41.12226939 511.63435666 39.64859698 522.984375 39.86328125 C524.31965889 39.86620559 525.65494732 39.86751362 526.99023438 39.8671875 C532.99405468 39.92179526 537.87841195 40.13811543 543.546875 42.23828125 C544.95913028 42.5312491 546.37582193 42.80399532 547.796875 43.05078125 C560.78607371 45.90100743 570.61802866 54.85284618 579.546875 64.23828125 C580.206875 64.89828125 580.866875 65.55828125 581.546875 66.23828125 C582.21332031 65.66980469 582.87976562 65.10132813 583.56640625 64.515625 C593.92923827 55.83403566 603.74526989 49.65013386 616.546875 45.23828125 C617.78050781 44.79355469 619.01414062 44.34882813 620.28515625 43.890625 C646.80317474 34.47717006 677.12736779 35.99483826 702.61474609 48.01953125 C709.56268985 51.39987154 715.70676786 55.12973743 721.546875 60.23828125 C722.73311581 61.21897302 723.92048121 62.19830737 725.109375 63.17578125 C725.91375 63.85640625 726.718125 64.53703125 727.546875 65.23828125 C730.69809387 63.84623796 733.31830785 61.97968546 736.06274414 59.91259766 C747.74746364 51.15769449 760.31472767 44.72886715 774.546875 41.23828125 C775.69671875 40.94050781 776.8465625 40.64273438 778.03125 40.3359375 C799.66562009 35.46596 828.86998638 35.64617735 848.515625 47.41796875 C852.27544729 48.93635852 855.13574951 47.40736101 858.73828125 45.92578125 C865.24626357 42.66801953 869.52397071 40.48648702 871.8828125 33.421875 C872.10195312 32.70128906 872.32109375 31.98070312 872.546875 31.23828125 C877.36386534 21.42589352 885.4060876 12.5980475 895.234375 7.67578125 C896.38486328 7.08603516 896.38486328 7.08603516 897.55859375 6.484375 C906.38978012 2.80182801 914.11020556 1.78824285 923.671875 1.92578125 C925.36376953 1.92094727 925.36376953 1.92094727 927.08984375 1.91601562 C941.36260299 2.0078287 952.24022114 6.15568508 962.546875 16.23828125 C967.09468313 22.38624409 970.55635705 28.85680685 971.171875 36.55078125 C971.24664063 37.43378906 971.32140625 38.31679687 971.3984375 39.2265625 C971.44742187 39.89042969 971.49640625 40.55429688 971.546875 41.23828125 C972.784375 41.30015625 974.021875 41.36203125 975.296875 41.42578125 C985.88602611 42.64120268 996.17060251 47.86946615 1003.0703125 56.04296875 C1004.44386517 58.04918811 1005.51157285 60.03826418 1006.546875 62.23828125 C1007.1346875 63.47964844 1007.1346875 63.47964844 1007.734375 64.74609375 C1011.95326937 75.26403179 1012.54092484 88.55175001 1008.921875 99.36328125 C1005.04774412 108.11394051 999.92489624 114.2394847 992.546875 120.23828125 C991.886875 120.89828125 991.226875 121.55828125 990.546875 122.23828125 C990.546875 122.89828125 990.546875 123.55828125 990.546875 124.23828125 C991.27003906 124.32335937 991.99320313 124.4084375 992.73828125 124.49609375 C999.01236386 126.15405717 1003.83305058 131.79196336 1007.45703125 136.96484375 C1010.69683371 142.6165876 1012.41307007 147.8477444 1013.546875 154.23828125 C1013.876875 154.56828125 1014.206875 154.89828125 1014.546875 155.23828125 C1015.92148414 173.64287569 1015.56100116 190.78790984 1004.546875 206.23828125 C1003.94875 207.08132813 1003.350625 207.924375 1002.734375 208.79296875 C990.96000215 224.41300369 972.23831475 234.30612572 953.12890625 237.73046875 C937.53392651 239.74249486 921.45011503 239.46298034 906.546875 234.23828125 C904.95746094 233.69494141 904.95746094 233.69494141 903.3359375 233.140625 C891.76123335 228.75175903 880.50393963 221.6738782 873.546875 211.23828125 C870.31559449 212.66004468 868.18777735 214.40611592 865.671875 216.86328125 C859.91338625 222.11479341 853.34364075 225.53617817 846.546875 229.23828125 C845.78503906 229.74359375 845.02320313 230.24890625 844.23828125 230.76953125 C831.36242808 237.79612166 816.16036117 238.81427412 801.796875 238.73828125 C801.11877777 238.73645844 800.44068054 238.73463562 799.74203491 238.73275757 C791.46837774 238.67824234 783.62758218 237.99838327 775.546875 236.23828125 C774.5465625 236.06167969 773.54625 235.88507813 772.515625 235.703125 C757.35010439 232.46365462 742.26164163 224.34776175 730.546875 214.23828125 C730.546875 213.57828125 730.546875 212.91828125 730.546875 212.23828125 C727.0751232 214.21516628 724.12422017 216.37576378 721.109375 218.98828125 C711.23184292 226.96347382 699.49468727 231.31813054 687.546875 235.23828125 C686.67417969 235.54765625 685.80148437 235.85703125 684.90234375 236.17578125 C678.17236979 238.43722646 671.61795282 238.99445098 664.546875 239.23828125 C663.83321777 239.2655127 663.11956055 239.29274414 662.38427734 239.32080078 C639.10860993 240.10837923 616.01433904 235.47774879 596.26171875 222.64453125 C593.73922727 221.04916461 593.73922727 221.04916461 591.41015625 221.34375 C589.2833858 222.36477816 587.62514952 223.55869771 585.796875 225.05078125 C578.36866808 230.80522088 571.80668978 233.3288657 562.37060547 233.4152832 C561.14518036 233.42811844 559.91975525 233.44095367 558.65719604 233.45417786 C557.33946198 233.46156479 556.02172791 233.46895172 554.6640625 233.4765625 C553.98732609 233.48063803 553.31058968 233.48471355 552.6133461 233.48891258 C549.02804121 233.50972403 545.44277397 233.52404434 541.85742188 233.53344727 C538.18260542 233.54447424 534.5084007 233.57884429 530.83379936 233.61861897 C527.98362218 233.64496057 525.13358664 233.65315468 522.28329849 233.65672874 C520.27885505 233.66387604 518.27450914 233.69023975 516.27023315 233.71711731 C509.09508993 233.70024781 503.38823764 232.96191297 496.77883911 230.09220886 C492.67280972 228.52128223 489.34004141 229.6494579 485.30845642 230.97331238 C477.49407973 233.40431902 470.19253766 233.65983146 462.05078125 233.6015625 C460.68603008 233.60104242 459.32127815 233.60156581 457.95652771 233.60307312 C455.12007216 233.60298415 452.28390533 233.59270212 449.44750977 233.57446289 C445.81717076 233.55162542 442.18724655 233.55126698 438.5568552 233.55798054 C435.74898096 233.5613221 432.941201 233.55468945 430.13334465 233.5448513 C428.14583488 233.53915579 426.15830907 233.54043202 424.17079163 233.54182434 C422.96531174 233.53229233 421.75983185 233.52276031 420.51782227 233.51293945 C419.45845963 233.50833206 418.39909698 233.50372467 417.30763245 233.49897766 C414.52419586 233.23613967 412.95604306 232.57877832 410.546875 231.23828125 C408.2764379 231.17229796 408.2764379 231.17229796 405.984375 231.55078125 C405.21996094 231.65003906 404.45554687 231.74929688 403.66796875 231.8515625 C401.36927877 232.21917995 401.36927877 232.21917995 398.546875 233.23828125 C396.53528906 233.34726513 394.52031433 233.39720784 392.50585938 233.4152832 C390.63746399 233.43453606 390.63746399 233.43453606 388.73132324 233.45417786 C387.36776124 233.46235027 386.00419469 233.46979304 384.640625 233.4765625 C383.95102188 233.48063803 383.26141876 233.48471355 382.55091858 233.48891258 C378.89430035 233.50976961 375.23771951 233.52406767 371.58105469 233.53344727 C367.82995687 233.54445555 364.0794615 233.57879032 360.32857513 233.61861897 C357.42349257 233.64496232 354.518549 233.65315507 351.61335754 233.65672874 C350.23244704 233.66155646 348.85154112 233.67305959 347.4707489 233.69176674 C339.54987002 233.79232956 333.06687018 233.27077615 325.75646973 230.08610535 C321.74403049 228.54652769 318.85335146 229.71569067 315.046875 231.23828125 C310.24386585 233.15948491 305.36750617 233.36837031 300.24121094 233.4152832 C299.01263367 233.42811844 297.7840564 233.44095367 296.51824951 233.45417786 C295.20253967 233.46156479 293.88682983 233.46895172 292.53125 233.4765625 C291.85418251 233.48063803 291.17711502 233.48471355 290.47953033 233.48891258 C286.89537369 233.50969847 283.31125447 233.52403211 279.72705078 233.53344727 C276.051045 233.54449484 272.37564726 233.57889636 268.6998558 233.61861897 C265.84972103 233.64492653 262.99972819 233.6531515 260.14948273 233.65672874 C258.14332913 233.66388563 256.13727318 233.69025845 254.13128662 233.71711731 C244.28383927 233.69390614 236.26840039 231.99058951 228.484375 225.67578125 C227.75089844 225.09699219 227.01742188 224.51820313 226.26171875 223.921875 C224.546875 222.23828125 224.546875 222.23828125 223.546875 219.23828125 C222.61681641 219.76615234 222.61681641 219.76615234 221.66796875 220.3046875 C200.99364853 231.83054579 181.48832773 238.64402443 157.484375 238.61328125 C156.22665283 238.61239502 154.96893066 238.61150879 153.6730957 238.6105957 C128.47478297 238.29411068 103.24428549 230.07500048 84.65234375 212.44140625 C84.28753906 212.044375 83.92273438 211.64734375 83.546875 211.23828125 C80.25259575 212.73774629 77.59584821 214.65673816 74.734375 216.86328125 C65.14029497 223.87190246 54.94239228 228.92840292 43.859375 233.11328125 C42.73885742 233.54265991 42.73885742 233.54265991 41.59570312 233.98071289 C30.35018543 238.04390114 18.97848567 238.64816967 7.109375 238.61328125 C6.41021973 238.61273743 5.71106445 238.6121936 4.99072266 238.6116333 C-28.14024849 238.49368584 -58.74067693 226.9082339 -82.453125 203.23828125 C-89.45355419 195.56707923 -95.07494254 187.08194648 -100.453125 178.23828125 C-101.13503906 177.1503125 -101.81695312 176.06234375 -102.51953125 174.94140625 C-104.9651085 170.6185436 -106.23602518 165.99598959 -107.578125 161.23828125 C-107.95517578 159.94277344 -107.95517578 159.94277344 -108.33984375 158.62109375 C-108.83047323 156.93086234 -109.31550359 155.2389938 -109.79443359 153.54541016 C-110.35883235 151.56855015 -110.9573045 149.60147315 -111.5625 147.63671875 C-112.59015658 143.71539758 -113.14806007 139.88768121 -113.578125 135.86328125 C-113.66231689 135.08525146 -113.74650879 134.30722168 -113.83325195 133.50561523 C-115.00414526 121.74804319 -114.87250271 109.97349337 -113.453125 98.23828125 C-112.793125 98.23828125 -112.133125 98.23828125 -111.453125 98.23828125 C-111.41574219 97.56023437 -111.37835938 96.8821875 -111.33984375 96.18359375 C-109.5482297 70.81995949 -93.27888074 45.72058192 -74.453125 29.23828125 C-69.62380763 25.32817662 -64.58605754 21.73615475 -59.453125 18.23828125 C-58.03966797 17.26375 -58.03966797 17.26375 -56.59765625 16.26953125 C-39.99116959 5.7257302 -19.55582605 0.20608606 0 0 Z M-79.140625 44.92578125 C-100.73505024 68.54284643 -108.06183412 98.66727514 -106.671875 129.93701172 C-105.40568667 149.04571554 -98.94817805 168.8093656 -87.453125 184.23828125 C-86.87304688 185.0375 -86.29296875 185.83671875 -85.6953125 186.66015625 C-70.10587149 207.14168126 -48.59848546 222.06379772 -23.453125 228.23828125 C-22.31488281 228.53605469 -21.17664063 228.83382812 -20.00390625 229.140625 C3.75168852 234.52721232 30.7159286 232.46036887 52.546875 221.23828125 C53.6709375 220.66335938 54.795 220.0884375 55.953125 219.49609375 C64.73513285 214.820582 74.24726911 209.02356331 80.25390625 200.94140625 C80.68058594 200.379375 81.10726562 199.81734375 81.546875 199.23828125 C82.206875 199.23828125 82.866875 199.23828125 83.546875 199.23828125 C84.95703125 200.7421875 84.95703125 200.7421875 86.609375 202.80078125 C100.72446399 219.22037457 123.50171901 228.6406332 144.71875 230.984375 C175.45777717 233.02318803 200.91274357 225.85710152 225.546875 207.23828125 C225.6603125 207.81707031 225.77375 208.39585937 225.890625 208.9921875 C227.62416997 214.92545153 231.90405051 219.18546504 237.171875 222.17578125 C242.05090758 224.7008946 246.10487869 225.36588957 251.59375 225.44702148 C253.42715942 225.47595741 253.42715942 225.47595741 255.29760742 225.50547791 C260.9003656 225.563473 266.50298069 225.61282079 272.10595703 225.64331055 C275.05269484 225.66104881 277.99846208 225.69575006 280.94482422 225.74584961 C284.52222832 225.80658678 288.09874071 225.83685863 291.67663574 225.84648323 C293.67950352 225.85903123 295.68211955 225.90095868 297.68457031 225.94371033 C305.74861419 225.92577533 311.07380518 224.62033191 317.9543457 220.33363342 C320.546875 219.23828125 320.546875 219.23828125 323.10820007 219.93014526 C324.31534416 220.57767258 324.31534416 220.57767258 325.546875 221.23828125 C333.8211843 225.26107932 340.90227315 225.81322805 350.05859375 225.734375 C351.4400083 225.73453037 352.82142328 225.73602565 354.20283508 225.73878479 C357.07983982 225.74016009 359.95634072 225.72775403 362.83325195 225.70483398 C366.50493633 225.67637052 370.17579041 225.67921982 373.84753704 225.6919241 C376.69331355 225.69890381 379.53890078 225.69106738 382.38465309 225.67866707 C384.39140883 225.67201484 386.39819128 225.67627571 388.404953 225.68077087 C394.92910346 225.61340959 399.76459251 225.30981411 405.546875 222.23828125 C407.99585765 222.45436795 409.54325241 223.23659958 411.77131653 224.27090454 C414.94599885 225.37738951 417.47158653 225.50543573 420.83081055 225.52880859 C422.70382088 225.54794815 422.70382088 225.54794815 424.6146698 225.56747437 C425.9709762 225.57053323 427.32728469 225.57276034 428.68359375 225.57421875 C430.08738844 225.58065375 431.49118181 225.58738262 432.89497375 225.59439087 C435.83618269 225.60634898 438.77727434 225.61007347 441.71850586 225.60888672 C445.46296246 225.60868418 449.20665455 225.63592428 452.9509306 225.67043114 C455.85170347 225.69282322 458.75229635 225.69672045 461.65314674 225.69566727 C463.03207838 225.69800715 464.41101623 225.70673845 465.78986168 225.722332 C474.3311609 225.80984543 480.86701026 224.99408028 488.546875 221.23828125 C493.23075463 219.12393984 493.23075463 219.12393984 495.93359375 220.1015625 C497.07248047 220.81892578 497.07248047 220.81892578 498.234375 221.55078125 C499.00136719 222.02128906 499.76835938 222.49179687 500.55859375 222.9765625 C501.21472656 223.39292969 501.87085938 223.80929687 502.546875 224.23828125 C505.25900633 225.59434691 507.42196658 225.39553217 510.45849609 225.43115234 C511.70094086 225.44721527 512.94338562 225.4632782 514.22348022 225.47982788 C515.58908397 225.49132369 516.95469544 225.50193081 518.3203125 225.51171875 C519.35422056 225.51970427 519.35422056 225.51970427 520.40901566 225.5278511 C524.06677386 225.55460423 527.7244979 225.57396059 531.38232422 225.58837891 C534.39110218 225.60164412 537.39918992 225.62935272 540.40771484 225.67041016 C544.0541003 225.7201656 547.69986638 225.74455334 551.34657669 225.75160599 C552.72668847 225.75825606 554.10678989 225.77331199 555.48670578 225.7974968 C565.87521889 225.96898225 575.19721895 224.71587008 583.3984375 217.8515625 C584.27628906 216.71267578 584.27628906 216.71267578 585.171875 215.55078125 C585.78289063 214.78378906 586.39390625 214.01679688 587.0234375 213.2265625 C587.52617188 212.57042969 588.02890625 211.91429687 588.546875 211.23828125 C589.206875 210.57828125 589.866875 209.91828125 590.546875 209.23828125 C591.11792969 209.66238281 591.68898438 210.08648437 592.27734375 210.5234375 C606.25436896 220.63400423 621.36104836 227.7790781 638.546875 230.23828125 C639.31128906 230.34914063 640.07570313 230.46 640.86328125 230.57421875 C656.40579121 232.37413383 671.65231295 232.20563834 686.546875 227.23828125 C687.22089355 227.01865723 687.89491211 226.7990332 688.58935547 226.57275391 C704.0760704 221.43234324 716.02421161 213.87138551 727.546875 202.23828125 C730.74895162 203.65117093 732.86451269 205.36496894 735.359375 207.80078125 C743.67379371 215.34560088 754.07600536 221.22659482 764.546875 225.23828125 C765.13106201 225.47168213 765.71524902 225.70508301 766.31713867 225.94555664 C787.38203377 234.17637972 812.4177518 233.87009389 833.546875 226.23828125 C834.26198242 225.98127441 834.97708984 225.72426758 835.71386719 225.45947266 C850.52476799 219.94851848 864.18599203 210.95012932 872.546875 197.23828125 C874.76764455 199.36049594 876.61223502 201.57108539 878.421875 204.05078125 C878.95039062 204.7571875 879.47890625 205.46359375 880.0234375 206.19140625 C881.28755268 207.88985844 882.54330404 209.59453189 883.796875 211.30078125 C889.36638663 217.76071637 896.88165836 221.62205665 904.546875 225.05078125 C905.18665283 225.34073975 905.82643066 225.63069824 906.4855957 225.92944336 C923.40676754 233.16857286 946.70409998 233.16707739 963.859375 226.78125 C965.07625 226.27207031 966.293125 225.76289063 967.546875 225.23828125 C968.16691406 224.98127441 968.78695313 224.72426758 969.42578125 224.45947266 C981.14613115 219.47710053 991.80033522 212.23264238 998.546875 201.23828125 C998.98515625 200.53703125 999.4234375 199.83578125 999.875 199.11328125 C1007.87547042 184.84738219 1009.29156593 168.36803966 1005.578125 152.671875 C1002.15786913 141.2839776 996.29103722 135.41966183 986.421875 129.30078125 C979.16177221 126.52687405 969.48973409 127.46113761 962.546875 130.23828125 C962.546875 126.27828125 962.546875 122.31828125 962.546875 118.23828125 C963.41828125 118.29628906 964.2896875 118.35429687 965.1875 118.4140625 C975.59860034 118.80842236 983.94189102 116.92907359 992.421875 110.67578125 C998.80242406 104.67055861 1002.27289734 95.57128829 1002.71484375 86.96875 C1002.77894465 75.34084613 1001.46616147 66.37066468 993.359375 57.55078125 C989.54424073 53.89938665 985.45534675 52.04380043 980.546875 50.23828125 C979.598125 49.82578125 978.649375 49.41328125 977.671875 48.98828125 C972.98007617 47.86224953 968.34813367 48.08450428 963.546875 48.23828125 C963.65128906 47.03945312 963.65128906 47.03945312 963.7578125 45.81640625 C964.26467532 35.53433197 961.69205254 28.09117203 954.984375 20.23828125 C954.18 19.57828125 953.375625 18.91828125 952.546875 18.23828125 C951.4640625 17.21734375 951.4640625 17.21734375 950.359375 16.17578125 C938.91055606 8.28881709 925.51217063 8.05068047 912.171875 9.98828125 C900.07144646 12.32402081 889.52240281 18.98195575 882.546875 29.23828125 C881.15479685 31.93039342 879.88779033 34.67827169 878.609375 37.42578125 C875.57278006 43.8666895 873.20690666 47.31997647 866.546875 50.23828125 C864.78642794 51.28338048 863.03669152 52.34668684 861.296875 53.42578125 C859.72146965 54.3765434 858.13863831 55.31516681 856.546875 56.23828125 C855.89460938 56.67914063 855.24234375 57.12 854.5703125 57.57421875 C852.546875 58.23828125 852.546875 58.23828125 850.1640625 57.296875 C848.80667969 56.49443359 848.80667969 56.49443359 847.421875 55.67578125 C842.12629498 52.83234173 836.97117922 50.99177074 831.171875 49.42578125 C830.41116699 49.21945068 829.65045898 49.01312012 828.86669922 48.80053711 C820.44364001 46.59140767 812.55210665 46.05569517 803.859375 46.05078125 C802.73853516 46.03853516 801.61769531 46.02628906 800.46289062 46.01367188 C775.20952146 45.96970199 752.30511584 55.6604855 733.546875 72.23828125 C732.32117867 73.26327876 731.09267928 74.28495058 729.859375 75.30078125 C729.09625 75.94015625 728.333125 76.57953125 727.546875 77.23828125 C727.04800781 76.62082031 726.54914062 76.00335938 726.03515625 75.3671875 C716.9534194 64.65497724 705.72915526 57.07221629 692.546875 52.23828125 C691.79889648 51.96322754 691.05091797 51.68817383 690.28027344 51.40478516 C670.95978255 44.60541431 648.26355823 42.85334497 628.546875 49.23828125 C627.38671875 49.60179687 626.2265625 49.9653125 625.03125 50.33984375 C606.55527947 56.53849187 592.13172084 66.42926303 578.546875 80.23828125 C578.43472656 79.6659375 578.32257812 79.09359375 578.20703125 78.50390625 C575.37934909 68.79943492 566.34682872 60.7682109 558.109375 55.55078125 C541.16985054 46.30718593 522.5397957 44.46321364 503.94580078 49.52636719 C499.40118278 50.86832344 494.98718185 52.47714978 490.66015625 54.40625 C484.82977032 56.70176239 484.82977032 56.70176239 481.58984375 55.53125 C480.97753906 55.16644531 480.36523438 54.80164063 479.734375 54.42578125 C473.3524979 50.65652761 466.55781346 49.93125681 459.3125 49.97265625 C458.55322205 49.9707428 457.79394409 49.96882935 457.01165771 49.96685791 C455.41499498 49.96550602 453.81832087 49.96913228 452.22167969 49.97753906 C449.816797 49.98819299 447.41267145 49.97764079 445.0078125 49.96484375 C429.88732274 49.95039083 415.46648626 50.90855796 403.3359375 60.87109375 C401.49147644 62.2806164 399.64940404 63.26574579 397.546875 64.23828125 C397.10859375 63.80257812 396.6703125 63.366875 396.21875 62.91796875 C383.95380429 51.40088558 369.31150734 47.6540093 352.859375 47.73828125 C351.01641846 47.74251099 351.01641846 47.74251099 349.13623047 47.74682617 C338.22510056 47.94035736 329.03651632 49.68900828 319.3828125 54.96875 C316.546875 56.23828125 316.546875 56.23828125 314.48046875 56.05078125 C313.84238281 55.78265625 313.20429687 55.51453125 312.546875 55.23828125 C311.75410156 54.92890625 310.96132813 54.61953125 310.14453125 54.30078125 C308.45664191 53.59337617 306.76914038 52.88504506 305.08203125 52.17578125 C297.53745168 49.38579805 289.4285008 49.94273393 281.49584961 49.88818359 C279.76133644 49.87180056 278.02688562 49.84475157 276.29272461 49.80615234 C262.38328755 49.49921859 245.12501143 49.85488524 234.09375 59.62109375 C233.58328125 60.15476563 233.0728125 60.6884375 232.546875 61.23828125 C231.65742187 62.16253906 231.65742187 62.16253906 230.75 63.10546875 C227.60491722 66.22087353 227.60491722 66.22087353 226.546875 70.23828125 C225.86625 69.68140625 225.185625 69.12453125 224.484375 68.55078125 C200.76478394 49.87791169 173.32627276 44.28106227 143.546875 46.23828125 C137.99969675 46.94471585 132.84350302 48.4453961 127.546875 50.23828125 C126.3403125 50.61210937 125.13375 50.9859375 123.890625 51.37109375 C115.78517805 54.03179481 108.75128987 57.70733777 101.546875 62.23828125 C99.88202964 63.24131051 98.21593368 64.24227878 96.546875 65.23828125 C96.60875 63.95953125 96.670625 62.68078125 96.734375 61.36328125 C96.65790847 49.12863612 90.53993087 39.18928467 82.296875 30.48828125 C69.3351082 18.2659441 52.77837399 12.3584709 35.546875 9.23828125 C34.92103516 9.07126709 34.29519531 8.90425293 33.65039062 8.73217773 C26.48716478 6.86405233 19.41613505 6.89444427 12.046875 6.92578125 C11.38213165 6.92727173 10.71738831 6.92876221 10.03250122 6.93029785 C-24.49822331 7.06953255 -55.38354715 19.8724802 -79.140625 44.92578125 Z " fill="#2A2B2D" transform="translate(448.453125,135.76171875)"/>
<path d="M0 0 C0.6936969 -0.00295074 1.3873938 -0.00590149 2.10211182 -0.00894165 C12.63734166 -0.01915405 22.05528024 0.78737614 32.0625 4.3125 C32.90683594 4.55097656 33.75117188 4.78945312 34.62109375 5.03515625 C45.74009351 8.25330696 57.94577368 15.05209176 63.78125 25.34375 C67.48553833 33.9268571 67.72788904 45.69014659 65.0859375 54.609375 C63.89876154 57.01286008 62.63123451 59.1424926 61.0625 61.3125 C60.423125 62.26125 59.78375 63.21 59.125 64.1875 C52.9765044 70.52231365 45.98323087 73.36591345 37.29663086 73.72021484 C28.57616967 73.84336524 21.36674512 73.10466451 14.6328125 67.171875 C10.00591346 62.34776387 6.95700579 57.482943 4.16015625 51.453125 C2.59392879 48.39870277 1.12084449 46.87723439 -1.9375 45.3125 C-8.22622286 44.48774946 -12.75636187 45.63690301 -17.9375 49.3125 C-25.2061556 55.73734018 -28.74437461 63.47830687 -29.6875 73.0625 C-29.79455651 75.14474905 -29.87665004 77.2283888 -29.9375 79.3125 C-30.01484375 81.05660156 -30.01484375 81.05660156 -30.09375 82.8359375 C-30.44285084 96.24722813 -27.07669016 104.84591737 -18.625 115.125 C-15.03895701 118.0438722 -11.2003353 119.60401591 -6.9375 121.3125 C-6.2775 121.6425 -5.6175 121.9725 -4.9375 122.3125 C-1.44444091 122.6086258 2.05836636 122.5906906 5.5625 122.625 C6.51898438 122.65400391 7.47546875 122.68300781 8.4609375 122.71289062 C14.6577009 122.76746916 19.27628845 121.83449103 24.88867188 119.17651367 C27.0625 118.3125 27.0625 118.3125 31.0625 118.3125 C31.0625 117.6525 31.0625 116.9925 31.0625 116.3125 C33.00390625 115.015625 33.00390625 115.015625 35.625 113.5625 C39.0472505 111.60555112 41.91328892 109.67058693 44.75 106.9375 C47.29928001 104.66947859 48.07340289 104.31039593 51.625 103.625 C55.88345805 104.47669161 58.44698661 105.91082074 61.0625 109.3125 C66.44126786 119.76169871 68.31725798 132.1834332 64.93359375 143.5703125 C62.44568592 150.90134756 59.4001984 157.61379785 54.0625 163.3125 C53.46695313 163.98539063 52.87140625 164.65828125 52.2578125 165.3515625 C44.87283837 173.27039018 36.10809428 177.63318659 26.0625 181.3125 C25.15242188 181.67472656 24.24234375 182.03695312 23.3046875 182.41015625 C22.37914062 182.76980469 21.45359375 183.12945312 20.5 183.5 C19.67371094 183.82355469 18.84742188 184.14710938 17.99609375 184.48046875 C-5.82756673 191.23737911 -33.79996109 185.93893645 -55.05126953 174.38427734 C-70.89940597 165.37918817 -83.40146448 151.28028978 -91.25 134.9375 C-91.56340332 134.29095459 -91.87680664 133.64440918 -92.19970703 132.97827148 C-97.51807787 121.32532587 -99.58669893 110.12596734 -99.40405273 97.4440918 C-99.37497045 95.2477685 -99.38352533 93.05385811 -99.39648438 90.85742188 C-99.38019388 78.94238542 -97.48799157 68.00851868 -92.75 57 C-92.34104492 56.01483398 -92.34104492 56.01483398 -91.92382812 55.00976562 C-91.27079802 53.44020203 -90.60559427 51.87571087 -89.9375 50.3125 C-89.2775 50.3125 -88.6175 50.3125 -87.9375 50.3125 C-87.82921875 49.28382813 -87.82921875 49.28382813 -87.71875 48.234375 C-86.70724891 44.45136091 -84.72322389 41.67307023 -82.4375 38.5625 C-81.98608643 37.94415283 -81.53467285 37.32580566 -81.06958008 36.6887207 C-65.83551429 16.22453249 -43.45371538 4.81780946 -18.59716797 0.76831055 C-12.41511122 -0.00166277 -6.2225546 0.02317815 0 0 Z " fill="#222224" transform="translate(459.9375,161.6875)"/>
<path d="M0 0 C15.0390604 11.48210421 22.65621329 27.29585503 26.55078125 45.4140625 C26.84065053 47.59222312 26.95371472 49.70934753 27.01171875 51.90625 C27.07359375 52.97617187 27.13546875 54.04609375 27.19921875 55.1484375 C27.55145 65.56127374 25.58674169 74.87055793 23.01171875 84.90625 C22.35171875 84.90625 21.69171875 84.90625 21.01171875 84.90625 C20.93308594 85.75316406 20.85445312 86.60007812 20.7734375 87.47265625 C19.87725132 91.51238779 18.10293621 94.46489839 15.82421875 97.84375 C15.41349121 98.4620166 15.00276367 99.0802832 14.57958984 99.71728516 C6.64270417 111.51822197 -2.96744521 119.00882588 -15.98828125 124.90625 C-17.1484375 125.46119141 -17.1484375 125.46119141 -18.33203125 126.02734375 C-37.48706352 134.98166534 -63.05805772 134.36893094 -82.67578125 127.34375 C-88.41939236 125.19069444 -88.41939236 125.19069444 -90.98828125 123.90625 C-90.98828125 123.24625 -90.98828125 122.58625 -90.98828125 121.90625 C-91.705 121.81214844 -92.42171875 121.71804688 -93.16015625 121.62109375 C-103.80526389 118.93041046 -112.86532953 107.8224386 -118.73828125 99.03125 C-126.0831139 86.41839945 -129.55792131 72.99812394 -129.36328125 58.46875 C-129.35385498 57.3741748 -129.34442871 56.27959961 -129.3347168 55.15185547 C-128.96977933 35.61388862 -121.84149689 19.74390108 -108.61328125 5.3984375 C-79.35330198 -22.38112615 -32.0954509 -22.48779305 0 0 Z " fill="#222325" transform="translate(657.98828125,216.09375)"/>
<path d="M0 0 C0.6693457 -0.00942627 1.33869141 -0.01885254 2.02832031 -0.02856445 C6.62972312 0.00151378 10.50701513 0.86276514 14.875 2.25 C15.70644531 2.42660156 16.53789063 2.60320312 17.39453125 2.78515625 C25.70388089 4.69616511 31.52547175 9.65842179 36.5078125 16.48828125 C42.11149963 25.93401734 43.31093151 35.31987955 43.28569031 46.16344833 C43.28114071 48.2933525 43.29540975 50.42245641 43.31408691 52.55227661 C43.35056328 57.07650547 43.36452138 61.60064591 43.375 66.125 C43.38716641 71.36914055 43.40909558 76.61288286 43.45500183 81.85684586 C43.46836763 83.93279873 43.46443978 86.00822061 43.45959473 88.084198 C43.54301412 98.71211067 45.6167082 107.8676813 49.0625 117.875 C50.74794737 123.27491408 52.02818164 128.6087601 50.875 134.25 C49.47265625 136.52734375 49.47265625 136.52734375 47.875 138.25 C47.215 138.25 46.555 138.25 45.875 138.25 C45.545 139.24 45.215 140.23 44.875 141.25 C37.28610638 141.34286979 29.69727203 141.41385075 22.10793877 141.45724869 C18.58347306 141.47808269 15.05939747 141.50632202 11.53515625 141.55175781 C7.47912957 141.60371956 3.42350971 141.62297967 -0.6328125 141.640625 C-1.89239777 141.66127014 -3.15198303 141.68191528 -4.44973755 141.70318604 C-15.36462695 141.70597883 -15.36462695 141.70597883 -20.125 137.25 C-23.05264541 133.01083714 -22.73759189 128.20239951 -22.125 123.25 C-21.33203125 121.16015625 -21.33203125 121.16015625 -20.3125 119.125 C-14.4544315 107.34255546 -14.61548824 93.25838453 -14.67895508 80.39257812 C-14.68758245 77.72450319 -14.6583771 75.0584965 -14.62695312 72.390625 C-14.62534324 70.6666673 -14.62591457 68.94270586 -14.62890625 67.21875 C-14.61767227 66.43528198 -14.60643829 65.65181396 -14.59486389 64.84460449 C-14.66483405 59.26111389 -15.96424952 54.90067987 -19.125 50.25 C-23.49428441 46.83982681 -28.12007622 46.67172113 -33.5 46.83984375 C-37.82441972 47.51553433 -39.28305923 48.91071959 -42.125 52.25 C-45.46740977 58.81956403 -46.28826498 64.28774932 -46.328125 71.56640625 C-46.33382507 72.37810776 -46.33952515 73.18980927 -46.34539795 74.02610779 C-46.35483382 75.74501245 -46.36137632 77.46393509 -46.36523438 79.18286133 C-46.37487612 81.77914251 -46.40588551 84.37460972 -46.4375 86.97070312 C-46.49448025 95.84253335 -46.25064672 103.8233866 -43.125 112.25 C-42.73957031 113.36632812 -42.35414063 114.48265625 -41.95703125 115.6328125 C-41.62058594 116.53773438 -41.28414062 117.44265625 -40.9375 118.375 C-38.84471987 124.580898 -37.81797579 129.90982702 -40.25 136.125 C-43.26945755 139.54705189 -46.24105643 141.05483761 -50.83230591 141.53045654 C-54.22638504 141.64738753 -57.60783486 141.6656214 -61.00390625 141.6484375 C-62.24873276 141.65130768 -63.49355927 141.65417786 -64.77610779 141.65713501 C-68.07375961 141.65969368 -71.37098398 141.64766037 -74.6685791 141.63085938 C-76.68731186 141.62500055 -78.70565391 141.63084554 -80.72436523 141.64111328 C-84.60939661 141.65964398 -88.49385077 141.65740211 -92.37890625 141.6484375 C-93.58108292 141.65451019 -94.78325958 141.66058289 -96.02186584 141.6668396 C-97.1433049 141.65738312 -98.26474396 141.64792664 -99.42016602 141.63818359 C-100.40356461 141.63579681 -101.3869632 141.63341003 -102.40016174 141.63095093 C-105.63210987 141.17910259 -107.49766381 140.15909424 -110.125 138.25 C-113.44311956 133.44444753 -114.07647043 128.90692417 -113.125 123.25 C-112.0357526 120.22431277 -110.79359945 117.34178831 -109.4140625 114.4375 C-105.95102251 105.87434658 -105.82963302 97.64344421 -105.859375 88.52734375 C-105.85650482 86.57726158 -105.85650482 86.57726158 -105.85357666 84.58778381 C-105.85064595 81.85038439 -105.85485698 79.11311644 -105.86425781 76.37573242 C-105.87566259 72.88699113 -105.86907349 69.39855733 -105.85711288 65.90982723 C-105.84810388 62.55314213 -105.8544309 59.19653755 -105.859375 55.83984375 C-105.85330231 53.97548927 -105.85330231 53.97548927 -105.84710693 52.07347107 C-105.8929312 43.55751414 -106.96981114 36.77175096 -110.25 28.875 C-112.18698156 23.60494828 -113.24107215 18.83036075 -112.125 13.25 C-110.08946603 8.98078273 -106.57816195 6.37768247 -102.15625 4.76513672 C-93.03752527 2.45257552 -82.97332868 3.00257438 -73.61621094 2.95483398 C-72.02790501 2.94319864 -70.43964153 2.92256974 -68.8515625 2.89331055 C-66.52838239 2.85070304 -64.20633418 2.83449174 -61.8828125 2.82421875 C-61.17754425 2.80671066 -60.472276 2.78920258 -59.74563599 2.77116394 C-54.9159295 2.79241649 -52.52731488 3.85283534 -49.125 7.25 C-47.02392507 10.34499661 -46.90278557 12.80585171 -47 16.5 C-47.01804687 17.39203125 -47.03609375 18.2840625 -47.0546875 19.203125 C-47.07789063 19.87859375 -47.10109375 20.5540625 -47.125 21.25 C-46.43277344 20.61384766 -46.43277344 20.61384766 -45.7265625 19.96484375 C-32.29496712 7.88702577 -18.30667769 0.1944405 0 0 Z " fill="#232325" transform="translate(972.125,201.75)"/>
<path d="M0 0 C1.67545898 -0.05607422 1.67545898 -0.05607422 3.38476562 -0.11328125 C14.55353889 -0.22982497 24.21587117 3.06414048 32.39453125 10.85546875 C38.36713411 18.22129829 42.51564325 27.24948914 42.61108398 36.77587891 C42.62457382 37.85866119 42.63806366 38.94144348 42.65196228 40.05703735 C42.66761986 41.8115773 42.66761986 41.8115773 42.68359375 43.6015625 C42.71657811 46.10416956 42.74978886 48.60677364 42.78320312 51.109375 C42.83024005 55.03415526 42.87458432 58.95892776 42.91430664 62.88378906 C42.27490458 89.43893998 42.27490458 89.43893998 48.5625 114.875 C51.08327838 120.83076699 52.2780261 125.89983599 51.4375 132.375 C50.7775 132.375 50.1175 132.375 49.4375 132.375 C49.31375 132.99375 49.19 133.6125 49.0625 134.25 C48.4375 136.375 48.4375 136.375 46.4375 138.375 C45.4475 138.375 44.4575 138.375 43.4375 138.375 C43.4375 139.035 43.4375 139.695 43.4375 140.375 C35.96165552 140.44460318 28.48588127 140.49786342 21.00977802 140.53043652 C17.5380589 140.54607243 14.06656197 140.56727212 10.5949707 140.60131836 C6.60105288 140.64024063 2.60736737 140.65472629 -1.38671875 140.66796875 C-2.62959152 140.68345261 -3.87246429 140.69893646 -5.15299988 140.71488953 C-6.31382584 140.71511612 -7.47465179 140.71534271 -8.6706543 140.71557617 C-10.19954536 140.72556892 -10.19954536 140.72556892 -11.75932312 140.73576355 C-15.03332666 140.3144055 -16.90197437 139.2953111 -19.5625 137.375 C-22.65803478 132.8304915 -22.20154257 127.63919222 -21.5625 122.375 C-20.48386585 118.71806935 -19.23660484 115.18842089 -17.8515625 111.63671875 C-14.3427579 101.26297513 -14.21213981 90.04412727 -14.24682617 79.19628906 C-14.25001975 77.11211293 -14.22628332 75.02931828 -14.20117188 72.9453125 C-14.01580845 59.6430417 -14.01580845 59.6430417 -20.0625 48.25 C-26.13699372 44.99580693 -32.99164808 45.66888406 -39.5625 47.375 C-40.73907468 49.05519054 -40.73907468 49.05519054 -41.5625 51.375 C-42.231604 52.38409424 -42.90070801 53.39318848 -43.59008789 54.43286133 C-46.12497673 58.8471198 -46.12502596 62.82774832 -46.05859375 67.82421875 C-46.0607766 69.16502251 -46.0607766 69.16502251 -46.06300354 70.53291321 C-46.06135019 72.41805286 -46.04985235 74.3032068 -46.02905273 76.18823242 C-46.0002588 79.03689654 -46.00842465 81.8836765 -46.02148438 84.73242188 C-46.00821642 95.79777313 -45.5109566 106.00737076 -40.875 116.25 C-38.62486758 121.99630592 -38.62430129 128.34372256 -39.5625 134.375 C-41.76772624 137.88394489 -44.67353705 139.07867902 -48.5625 140.375 C-50.33034778 140.47780185 -52.10176955 140.52347645 -53.87255859 140.53613281 C-54.9573349 140.54574036 -56.04211121 140.5553479 -57.15975952 140.56524658 C-58.33164825 140.56949646 -59.50353699 140.57374634 -60.7109375 140.578125 C-61.91561676 140.58382507 -63.12029602 140.58952515 -64.36148071 140.59539795 C-66.91187664 140.60485005 -69.46228478 140.61138276 -72.01269531 140.61523438 C-75.91492998 140.62494384 -79.8166389 140.65596779 -83.71875 140.6875 C-86.19530937 140.69402965 -88.67187251 140.69928027 -91.1484375 140.703125 C-92.31627777 140.7154718 -93.48411804 140.7278186 -94.68734741 140.74053955 C-95.77842804 140.73753845 -96.86950867 140.73453735 -97.99365234 140.73144531 C-98.95056976 140.73509094 -99.90748718 140.73873657 -100.8934021 140.74249268 C-105.30123573 140.13560352 -108.7357579 137.76709052 -111.5625 134.375 C-114.52379703 125.49110891 -111.68799389 118.34328326 -107.97265625 110.18359375 C-104.785798 102.41631156 -105.40304305 93.53719031 -105.39453125 85.2890625 C-105.38953865 83.58271133 -105.38953865 83.58271133 -105.38444519 81.84188843 C-105.37940535 79.4466797 -105.37703595 77.05146402 -105.37719727 74.65625 C-105.37501088 71.01811012 -105.35682362 67.38027387 -105.33789062 63.7421875 C-105.33495596 61.40364686 -105.33297165 59.06510479 -105.33203125 56.7265625 C-105.32484573 55.65225983 -105.31766022 54.57795715 -105.31025696 53.47109985 C-105.33579639 44.91083501 -105.55569808 35.77484754 -110.1875 28.3125 C-112.90023692 23.2722669 -113.468483 19.02229405 -112.5625 13.375 C-110.75224528 8.74879349 -107.89014871 6.69910764 -103.5625 4.375 C-97.39053404 2.47551183 -91.30980984 2.05617888 -84.890625 2.0390625 C-84.00518005 2.0324057 -83.11973511 2.0257489 -82.2074585 2.01889038 C-80.35203102 2.00883924 -78.49656795 2.004071 -76.64111328 2.00439453 C-73.80571811 1.99998946 -70.9718427 1.96350452 -68.13671875 1.92578125 C-66.32552611 1.91991778 -64.51432615 1.91594525 -62.703125 1.9140625 C-61.86033997 1.89969147 -61.01755493 1.88532043 -60.14923096 1.87051392 C-56.10808683 1.9019335 -54.06745139 2.05711951 -50.56933594 4.25927734 C-46.63969334 8.40213413 -46.21445597 12.83337422 -45.5625 18.375 C-44.9025 18.375 -44.2425 18.375 -43.5625 18.375 C-42.39777172 17.21027172 -41.23561731 16.04286603 -40.0859375 14.86328125 C-28.66514085 3.70604145 -15.4738759 0.19178888 0 0 Z " fill="#232325" transform="translate(801.5625,202.625)"/>
<path d="M0 0 C0 0.66 0 1.32 0 2 C0.99 2.2784375 0.99 2.2784375 2 2.5625 C11.53854427 7.13305246 18.5629443 15.86246048 22.23828125 25.5703125 C25.13157628 34.79918178 25.59778724 44.63726042 21.4375 53.5 C14.012929 66.50163247 0.72203506 70.14731027 -13 74 C-19.24900722 75.6690279 -25.53201538 77.20474679 -31.8125 78.75 C-33.4877129 79.16503095 -35.1628437 79.58039344 -36.83789062 79.99609375 C-40.89099318 81.00121056 -44.94517176 82.00186877 -49 83 C-48.31244781 86.75755265 -46.86386627 88.33355246 -43.9609375 90.8515625 C-34.74013069 96.25179597 -21.7929781 95.03867606 -11.8125 92.4375 C-6.88766871 90.88199456 -2.61208581 88.79560795 1.875 86.25 C7.05782371 83.32797059 10.10458689 81.7588604 16 83 C18.63179669 84.42555654 19.91284309 85.70921803 22 88 C24.17925078 95.8798519 24.10888669 104.54019395 20.31640625 111.84765625 C11.78907397 125.78997105 -1.43205457 133.68760558 -17.125 137.875 C-34.09862879 141.04923965 -52.59246317 140.4393579 -69 135 C-70.06863281 134.649375 -71.13726563 134.29875 -72.23828125 133.9375 C-90.48930538 127.11999682 -104.87350658 112.98390688 -113.3125 95.5625 C-113.9115045 94.05567091 -114.47273296 92.53340463 -115 91 C-115.29777344 90.14148438 -115.59554688 89.28296875 -115.90234375 88.3984375 C-121.36608741 69.3131025 -119.15076068 47.71484661 -110.25 30.0625 C-99.00275311 11.39321201 -82.77166432 -0.11937704 -62.03515625 -6.2734375 C-41.89790932 -11.09393676 -18.54020062 -9.43864759 0 0 Z " fill="#222224" transform="translate(1144,209)"/>
<path d="M0 0 C6.21323007 5.06263191 11.08064415 12.19061737 12.63671875 20.1484375 C13.40267598 30.93462208 12.45733401 38.30514357 6.51171875 47.3984375 C-1.0158448 54.59871568 -8.32529712 55.88066242 -18.45239258 55.73779297 C-24.70258336 55.45095596 -29.66996812 54.57629175 -34.36328125 50.1484375 C-39.64525939 44.32442231 -42.37322938 38.84496631 -43.80078125 31.171875 C-44.24203305 28.9417631 -44.24203305 28.9417631 -46.36328125 27.1484375 C-51.09095565 26.67567006 -53.41573145 26.66572345 -57.67578125 28.8359375 C-62.77214243 33.22117851 -64.75942374 38.48461402 -65.62011719 45.13208008 C-66.43507254 56.21520661 -65.17866554 64.26255958 -57.79296875 73.0078125 C-51.18912166 79.45214637 -42.55446299 81.52784286 -33.55078125 81.6484375 C-22.29736587 81.49913846 -12.37405422 78.32398794 -2.86328125 72.3203125 C0.2072124 70.8810186 2.28027427 70.79011437 5.63671875 71.1484375 C9.8981875 74.01673378 12.15870081 76.25803712 13.63671875 81.1484375 C14.79879835 95.19903625 12.88268756 106.06824815 3.63671875 117.1484375 C-6.31038357 128.21068582 -22.49821013 134.32776833 -37.12353516 135.33935547 C-60.8650922 136.28744416 -82.77488362 132.44316362 -101.17578125 116.2734375 C-113.64589712 104.34005545 -123.09600026 88.23191465 -123.796875 70.609375 C-123.82037283 68.24751236 -123.82095606 65.88533086 -123.80078125 63.5234375 C-123.79320801 62.2866626 -123.78563477 61.0498877 -123.77783203 59.77563477 C-123.43679813 40.78602094 -117.93691548 26.52182722 -105.36328125 12.1484375 C-104.80898437 11.51035156 -104.2546875 10.87226563 -103.68359375 10.21484375 C-79.1354599 -16.15384548 -29.18097094 -20.52204231 0 0 Z " fill="#222224" transform="translate(1296.36328125,212.8515625)"/>
<path d="M0 0 C1.28293945 -0.0299707 1.28293945 -0.0299707 2.59179688 -0.06054688 C8.44879859 -0.05607929 13.30563365 0.84921483 18.0625 4.4375 C21.79592351 8.24124769 22.56913486 10.72989257 22.63671875 16.015625 C22.66443359 17.25828125 22.69214844 18.5009375 22.72070312 19.78125 C22.73037109 21.0703125 22.74003906 22.359375 22.75 23.6875 C22.79186584 26.25527145 22.83723826 28.82298899 22.88671875 31.390625 C22.90351685 33.09460449 22.90351685 33.09460449 22.9206543 34.83300781 C22.76792059 37.36545626 22.76792059 37.36545626 24.0625 38.4375 C26.0525267 38.54721774 28.04611256 38.59341179 30.0390625 38.61328125 C31.26753906 38.63712891 32.49601562 38.66097656 33.76171875 38.68554688 C36.35530747 38.72812818 38.94910539 38.75958667 41.54296875 38.77929688 C53.6428911 39.05056729 53.6428911 39.05056729 59.0625 43.4375 C61.74329829 46.81988462 61.36245601 50.62280659 61.375 54.8125 C61.39175781 56.09898437 61.40851563 57.38546875 61.42578125 58.7109375 C61.03277307 62.74244078 60.29075605 65.06841569 58.0625 68.4375 C54.06319064 71.45438888 50.99753674 71.83391886 46.046875 71.9140625 C45.39044006 71.92964203 44.73400513 71.94522156 44.05767822 71.96127319 C41.97596292 72.0085356 39.8945798 72.03648605 37.8125 72.0625 C35.71636919 72.09898785 33.62042704 72.13953432 31.5244751 72.18515015 C29.63333026 72.22475207 27.74194932 72.25255152 25.85058594 72.27978516 C23.15627831 72.12170742 23.15627831 72.12170742 22.0625 73.4375 C21.94902904 75.8650157 21.89831911 78.26294294 21.89453125 80.69140625 C21.89120285 81.42568344 21.88787445 82.15996063 21.88444519 82.91648865 C21.87936928 84.47760389 21.87703707 86.03873003 21.87719727 87.59985352 C21.87503127 89.96584616 21.85694061 92.33135687 21.83789062 94.69726562 C21.83495256 96.21614425 21.83297053 97.73502508 21.83203125 99.25390625 C21.82125298 100.30282799 21.82125298 100.30282799 21.81025696 101.37294006 C21.84236277 108.43637633 23.17127602 114.42379022 27.0625 120.4375 C27.0625 121.0975 27.0625 121.7575 27.0625 122.4375 C31.88244657 124.0113601 35.9318083 124.99721182 41.0625 124.4375 C44.31938994 122.65541439 44.31938994 122.65541439 47.0625 120.4375 C50.63720457 118.05436362 51.84803535 117.78912082 56.0625 118.4375 C60.59922337 120.8840557 63.30318771 124.08717809 65 128.9375 C68.04130386 141.46162709 66.03652198 152.31248045 60.0625 163.4375 C51.77711937 174.76085353 39.86106212 181.20992776 26.203125 184.02734375 C9.38173186 186.22416748 -7.58308593 183.74798268 -21.9375 174.4375 C-30.89461197 166.82254204 -35.36140873 156.89261506 -36.9375 145.4375 C-37.26216908 139.7899229 -37.31000184 134.14785309 -37.3515625 128.4921875 C-37.37030572 126.86979218 -37.3898814 125.24740628 -37.4102478 123.62503052 C-37.46124229 119.38701981 -37.50104132 115.14897762 -37.53839111 110.91082764 C-37.57863749 106.57328715 -37.62963493 102.23587395 -37.6796875 97.8984375 C-37.77605898 89.41154579 -37.86058583 80.92459026 -37.9375 72.4375 C-38.96230469 72.41171875 -39.98710938 72.3859375 -41.04296875 72.359375 C-42.40368699 72.30306942 -43.76436243 72.24572263 -45.125 72.1875 C-45.79853516 72.17332031 -46.47207031 72.15914063 -47.16601562 72.14453125 C-52.01089254 71.90819579 -54.52305088 70.85819126 -57.9375 67.4375 C-60.3589607 63.80530895 -60.23619516 61.94591442 -60.25 57.625 C-60.26675781 56.42230469 -60.28351563 55.21960938 -60.30078125 53.98046875 C-59.89905787 50.06258585 -59.06637857 47.73914575 -56.9375 44.4375 C-54.80859375 42.75 -54.80859375 42.75 -52.375 41.4375 C-51.49199219 40.94121094 -50.60898438 40.44492188 -49.69921875 39.93359375 C-48.78785156 39.43988281 -47.87648438 38.94617188 -46.9375 38.4375 C-45.17970974 37.47238822 -43.42940675 36.49349295 -41.6875 35.5 C-40.91921875 35.07847656 -40.1509375 34.65695313 -39.359375 34.22265625 C-33.17763966 29.66611907 -29.69096952 23.60034358 -26.375 16.8125 C-23.16777657 10.24887997 -20.34944137 5.34601555 -13.74609375 1.65234375 C-9.03478926 0.14955842 -4.91186663 -0.04053303 0 0 Z " fill="#222224" transform="translate(1370.9375,163.5625)"/>
<path d="M0 0 C3.83988474 1.79620388 5.74517706 4.5092299 7.6875 8.25 C8.120625 9.4875 8.55375 10.725 9 12 C9.25523437 12.63204346 9.51046875 13.26408691 9.7734375 13.9152832 C12.20560985 20.30500332 12.41925896 26.15190049 12.3125 32.9375 C12.31572266 33.95779297 12.31894531 34.97808594 12.32226562 36.02929688 C12.25081128 46.2082937 11.20837569 57.3262709 4.72265625 65.63671875 C1.36482376 68.88293354 -2.21374216 70.0677016 -6.7578125 70.3125 C-10.20059776 69.8326693 -12.07291425 68.42708575 -14.5 66 C-21.4146663 56.78044494 -22.33749036 44.596694 -22.25 33.5 C-22.25773438 32.51902344 -22.26546875 31.53804688 -22.2734375 30.52734375 C-22.25146873 22.27807202 -21.57932861 14.75654165 -17.125 7.625 C-16.63257813 6.81289062 -16.14015625 6.00078125 -15.6328125 5.1640625 C-11.33682849 -0.52965794 -6.81373078 -1.1302397 0 0 Z " fill="#F7F7F6" transform="translate(611,239)"/>
<path d="M0 0 C6.01044098 4.98007967 6.01044098 4.98007967 6.43359375 9.359375 C6.43712112 11.85675512 6.361618 14.32164531 6.1875 16.8125 C5.5275 16.8125 4.8675 16.8125 4.1875 16.8125 C3.94902344 17.43125 3.71054688 18.05 3.46484375 18.6875 C1.8524977 21.36981269 0.66657097 21.76720096 -2.25 22.8125 C-3.58417969 23.29783203 -3.58417969 23.29783203 -4.9453125 23.79296875 C-6.36457031 24.29763672 -6.36457031 24.29763672 -7.8125 24.8125 C-8.77929688 25.20050781 -9.74609375 25.58851563 -10.7421875 25.98828125 C-11.69351562 26.36339844 -12.64484375 26.73851562 -13.625 27.125 C-14.49769531 27.47175781 -15.37039063 27.81851562 -16.26953125 28.17578125 C-19.15561441 28.89841037 -20.97292597 28.60268667 -23.8125 27.8125 C-25.50982583 21.96924713 -26.10206061 15.13004183 -23.87109375 9.390625 C-18.6000689 0.60007571 -9.9943546 -4.21983861 0 0 Z " fill="#F2F2F1" transform="translate(1106.8125,237.1875)"/>
<path d="M0 0 C0.83023682 0.30236572 0.83023682 0.30236572 1.67724609 0.61083984 C4.24055703 1.53960661 6.80769792 2.45732607 9.375 3.375 C10.24511719 3.69210937 11.11523438 4.00921875 12.01171875 4.3359375 C22.13841381 7.93654019 31.93300916 9.33251951 42.625 10.125 C43.72457031 10.21136719 44.82414062 10.29773438 45.95703125 10.38671875 C48.63765424 10.59650664 51.31857082 10.80083008 54 11 C54 11.33 54 11.66 54 12 C47.73 12.33 41.46 12.66 35 13 C34.34 14.32 33.68 15.64 33 17 C40.59 17.33 48.18 17.66 56 18 C56 18.33 56 18.66 56 19 C39.19495904 19.49806378 24.61182789 17.6822172 8.5625 12.625 C7.64355957 12.34519287 6.72461914 12.06538574 5.77783203 11.77709961 C-0.51076104 9.67872539 -0.51076104 9.67872539 -2.78515625 6.5234375 C-3 4 -3 4 -1.625 1.6875 C-0.820625 0.8521875 -0.820625 0.8521875 0 0 Z " fill="#353639" transform="translate(1057,356)"/>
<path d="M0 0 C0 0.33 0 0.66 0 1 C-4.95 1.33 -9.9 1.66 -15 2 C-15 3.32 -15 4.64 -15 6 C-13.68 6.33 -12.36 6.66 -11 7 C-12.28132813 7.03738281 -13.56265625 7.07476562 -14.8828125 7.11328125 C-26.2923493 7.52009353 -37.08275567 8.36091856 -48 12 C-49.56118428 12.06740865 -51.1250252 12.08514456 -52.6875 12.0625 C-53.89986328 12.04896484 -53.89986328 12.04896484 -55.13671875 12.03515625 C-56.05904297 12.01775391 -56.05904297 12.01775391 -57 12 C-56 10 -56 10 -53 9 C-53 8.01 -53 7.02 -53 6 C-52.34 6 -51.68 6 -51 6 C-51 5.34 -51 4.68 -51 4 C-34.51465328 -2.04462713 -17.28152235 -2.18864265 0 0 Z " fill="#313133" transform="translate(1122,175)"/>
<path d="M0 0 C6.00498601 -0.25668107 10.75223537 0.48874258 16.4375 2.375 C17.15615234 2.59671875 17.87480469 2.8184375 18.61523438 3.046875 C20.43318208 3.63054093 22.2203632 4.30826838 24 5 C24.495 5.99 24.495 5.99 25 7 C23.865625 7.28875 22.73125 7.5775 21.5625 7.875 C20.386875 8.24625 19.21125 8.6175 18 9 C17.67 9.66 17.34 10.32 17 11 C18.32 11.33 19.64 11.66 21 12 C19 13 19 13 16.0859375 12.109375 C14.86132812 11.66078125 13.63671875 11.2121875 12.375 10.75 C-4.23984873 5.01484455 -20.56136881 4.36130864 -38 4 C-38 3.67 -38 3.34 -38 3 C-33.68751453 2.97070016 -29.37505507 2.95310097 -25.0625 2.9375 C-23.85013672 2.92912109 -22.63777344 2.92074219 -21.38867188 2.91210938 C-14.83374288 2.89434534 -8.49598725 3.11004274 -2 4 C-1.34 2.68 -0.68 1.36 0 0 Z " fill="#373738" transform="translate(487,139)"/>
<path d="M0 0 C1.45418335 -0.01933594 1.45418335 -0.01933594 2.93774414 -0.0390625 C9.01881378 -0.04737068 14.36204708 0.65493612 20.25 2.1875 C19.59 3.8375 18.93 5.4875 18.25 7.1875 C7.36 6.8575 -3.53 6.5275 -14.75 6.1875 C-15.08 5.5275 -15.41 4.8675 -15.75 4.1875 C-14.76 4.1875 -13.77 4.1875 -12.75 4.1875 C-12.75 3.5275 -12.75 2.8675 -12.75 2.1875 C-16.71 2.1875 -20.67 2.1875 -24.75 2.1875 C-24.75 1.8575 -24.75 1.5275 -24.75 1.1875 C-16.50245156 0.30100727 -8.28929751 0.05309823 0 0 Z " fill="#1E1E21" transform="translate(466.75,135.8125)"/>
<path d="M0 0 C7.24997422 -0.28307925 13.90961228 0.49025965 21 2 C21 2.66 21 3.32 21 4 C26.28 4 31.56 4 37 4 C35 6 35 6 32.3984375 6.1953125 C31.40070313 6.17210937 30.40296875 6.14890625 29.375 6.125 C27.87066406 6.09792969 27.87066406 6.09792969 26.3359375 6.0703125 C25.56507812 6.04710937 24.79421875 6.02390625 24 6 C24 6.99 24 7.98 24 9 C5.95899772 8.40546697 5.95899772 8.40546697 -1 5 C-1 2 -1 2 0 0 Z " fill="#202123" transform="translate(1217,364)"/>
<path d="M0 0 C-0.99 0.495 -0.99 0.495 -2 1 C-2 2.65 -2 4.3 -2 6 C-5.77822928 7.25940976 -9.31606686 7.14517402 -13.25 7.125 C-14.35794922 7.13080078 -14.35794922 7.13080078 -15.48828125 7.13671875 C-20.09321539 7.12859717 -24.45737954 6.75710341 -29 6 C-29.33 4.35 -29.66 2.7 -30 1 C-19.9811352 0.32807613 -10.04584053 -0.15723924 0 0 Z " fill="#1C1D1F" transform="translate(625,367)"/>
<path d="M0 0 C7.92 0 15.84 0 24 0 C24 0.99 24 1.98 24 3 C24.66 3.66 25.32 4.32 26 5 C21.32415345 6.18781586 16.78859821 6.1483211 12 6.125 C10.80890625 6.13080078 10.80890625 6.13080078 9.59375 6.13671875 C5.5970522 6.13005759 1.90052465 5.99085908 -2 5 C-1.34 3.35 -0.68 1.7 0 0 Z " fill="#1B1C1F" transform="translate(1092,368)"/>
<path d="M0 0 C3.43734063 -0.08703823 6.87439837 -0.14040272 10.3125 -0.1875 C11.28896484 -0.21263672 12.26542969 -0.23777344 13.27148438 -0.26367188 C14.20927734 -0.27333984 15.14707031 -0.28300781 16.11328125 -0.29296875 C16.97735596 -0.3086792 17.84143066 -0.32438965 18.73168945 -0.34057617 C21.45018536 0.06759322 22.30363829 0.89592904 24 3 C22.96484375 4.484375 22.96484375 4.484375 21 6 C18.42795004 6.24579317 16.12358663 6.328576 13.5625 6.25 C12.24378906 6.23453125 10.92507813 6.2190625 9.56640625 6.203125 C6.83176615 6.04737332 4.58741849 5.82056239 2 5 C2 3.68 2 2.36 2 1 C1.34 0.67 0.68 0.34 0 0 Z " fill="#1C1D1E" transform="translate(1105,176)"/>
<path d="M0 0 C2.73141052 0.02401621 5.46186711 0.0204821 8.19335938 0.01391602 C9.93815686 0.01948129 11.68295029 0.02658385 13.42773438 0.03540039 C14.64635162 0.03403328 14.64635162 0.03403328 15.8895874 0.03263855 C19.75412319 0.08161141 21.65454032 0.1436356 24.94335938 2.33618164 C24.36786346 2.34426849 23.79236755 2.35235535 23.19943237 2.36068726 C17.19686192 2.44690238 11.19461527 2.5464131 5.19238281 2.65356445 C2.95383146 2.69179152 0.71522 2.72665525 -1.5234375 2.75805664 C-4.74566088 2.80384312 -7.9674727 2.86181578 -11.18945312 2.92211914 C-12.18655304 2.93367035 -13.18365295 2.94522156 -14.21096802 2.9571228 C-19.25715564 3.06372974 -23.28832349 3.52327138 -28.05664062 5.33618164 C-30.93164062 4.96118164 -30.93164062 4.96118164 -33.05664062 4.33618164 C-33.05664062 4.00618164 -33.05664062 3.67618164 -33.05664062 3.33618164 C-21.95028839 0.52771542 -11.42180807 -0.10773317 0 0 Z " fill="#646566" transform="translate(896.056640625,177.663818359375)"/>
<path d="M0 0 C1.41750563 0.11509661 2.83401169 0.24253658 4.25 0.375 C5.03890625 0.44460938 5.8278125 0.51421875 6.640625 0.5859375 C9.085877 1.01507113 10.84836903 1.78600638 13 3 C11.68 3.33 10.36 3.66 9 4 C7.98888907 7.04913228 7.98888907 7.04913228 9 10 C5.7 9.01 2.4 8.02 -1 7 C-0.67 4.69 -0.34 2.38 0 0 Z " fill="#313234" transform="translate(1208,360)"/>
<path d="M0 0 C0.99 0.33 1.98 0.66 3 1 C1.04761147 3.00612399 -0.91137822 5.00492433 -2.875 7 C-3.43058594 7.57234375 -3.98617188 8.1446875 -4.55859375 8.734375 C-6.00134404 10.19450782 -7.4974374 11.60149298 -9 13 C-9.66 13 -10.32 13 -11 13 C-11 13.66 -11 14.32 -11 15 C-11.66 14.67 -12.32 14.34 -13 14 C-11.77801556 12.41111701 -10.54705525 10.82913536 -9.3125 9.25 C-8.28576172 7.92742187 -8.28576172 7.92742187 -7.23828125 6.578125 C-4.98455894 3.98221448 -2.86319757 1.9057147 0 0 Z " fill="#343638" transform="translate(1051,219)"/>
<path d="M0 0 C0.33 0.99 0.66 1.98 1 3 C0.21753906 3.77085937 -0.56492187 4.54171875 -1.37109375 5.3359375 C-2.39336057 6.34882573 -3.41548881 7.36185384 -4.4375 8.375 C-5.2119043 9.13683594 -5.2119043 9.13683594 -6.00195312 9.9140625 C-8.857133 12.68568936 -8.857133 12.68568936 -11 16 C-11.66 16 -12.32 16 -13 16 C-13.33 15.01 -13.66 14.02 -14 13 C-13.40832031 12.56429688 -12.81664062 12.12859375 -12.20703125 11.6796875 C-7.49151592 8.12574283 -3.56301983 4.71238107 0 0 Z " fill="#D8D9DA" transform="translate(1452,244)"/>
<path d="M0 0 C10.70899471 -0.38095238 10.70899471 -0.38095238 16 2 C16.66 2.66 17.32 3.32 18 4 C11.91766294 3.32418477 5.98685848 2.26361972 0 1 C0 0.67 0 0.34 0 0 Z " fill="#525152" transform="translate(1265,182)"/>
<path d="M0 0 C3.3 0 6.6 0 10 0 C9.67 0.99 9.34 1.98 9 3 C5.7 3 2.4 3 -1 3 C-0.67 2.01 -0.34 1.02 0 0 Z " fill="#1C1D1F" transform="translate(609,175)"/>
<path d="M0 0 C-1.98 2.97 -1.98 2.97 -4 6 C-4.99 5.34 -5.98 4.68 -7 4 C-6.67 2.68 -6.34 1.36 -6 0 C-2.25 -1.125 -2.25 -1.125 0 0 Z " fill="#E7E6E4" transform="translate(1101,291)"/>
<path d="M0 0 C0.33 0 0.66 0 1 0 C1.054348 2.0622048 1.09294961 4.12482816 1.125 6.1875 C1.14820313 7.33605469 1.17140625 8.48460937 1.1953125 9.66796875 C1.00484152 12.91740372 0.39360127 15.08660521 -1 18 C-2.0625 16.1875 -2.0625 16.1875 -3 14 C-2 11 -2 11 -1 9 C-0.77532169 7.46331135 -0.59203195 5.92031946 -0.4375 4.375 C-0.35371094 3.55773437 -0.26992187 2.74046875 -0.18359375 1.8984375 C-0.12300781 1.27195313 -0.06242187 0.64546875 0 0 Z " fill="#D9D9D7" transform="translate(1310,215)"/>
<path d="M0 0 C0.66 0.33 1.32 0.66 2 1 C1.071875 1.886875 0.14375 2.77375 -0.8125 3.6875 C-3.38358652 6.24643008 -5.29232337 8.77438858 -7 12 C-7.33 11.01 -7.66 10.02 -8 9 C-5.84140076 5.16249025 -3.71404629 2.38760119 0 0 Z " fill="#D7D7D5" transform="translate(1240,240)"/>
<path d="M0 0 C4.83256305 0.41421969 6.82679218 2.46413986 10 6 C9.67 6.99 9.34 7.98 9 9 C6 6 3 3 0 0 Z " fill="#383738" transform="translate(1010,194)"/>
<path d="M0 0 C0.66 0.66 1.32 1.32 2 2 C-1.3 2.33 -4.6 2.66 -8 3 C-8.33 2.34 -8.66 1.68 -9 1 C-5.98675805 -0.50662097 -3.31713623 -0.17770373 0 0 Z " fill="#1E2021" transform="translate(793,181)"/>
<path d="M0 0 C0.66 0 1.32 0 2 0 C1.88637738 1.4800841 1.75877092 2.95910074 1.625 4.4375 C1.52058594 5.67306641 1.52058594 5.67306641 1.4140625 6.93359375 C1.27742188 7.61550781 1.14078125 8.29742187 1 9 C0.01 9.495 0.01 9.495 -1 10 C-1.125 3.375 -1.125 3.375 0 0 Z " fill="#28292B" transform="translate(1028,255)"/>
<path d="M0 0 C0.66 0 1.32 0 2 0 C2 0.66 2 1.32 2 2 C2.66 2 3.32 2 4 2 C3.67 3.32 3.34 4.64 3 6 C1.35 6 -0.3 6 -2 6 C-2 5.34 -2 4.68 -2 4 C-1.34 4 -0.68 4 0 4 C0 2.68 0 1.36 0 0 Z " fill="#1A1C1F" transform="translate(763,359)"/>
<path d="M0 0 C-5.05857527 2.72384822 -9.28978955 4.67947366 -15 3 C-15 2.67 -15 2.34 -15 2 C-9.77487721 0.53329887 -5.4185766 -0.22577402 0 0 Z " fill="#68686A" transform="translate(878,179)"/>
<path d="M0 0 C0 0.66 0 1.32 0 2 C-0.99 2 -1.98 2 -3 2 C-3 2.66 -3 3.32 -3 4 C-5.31 4 -7.62 4 -10 4 C-9.67 3.34 -9.34 2.68 -9 2 C-7.0625 1.4375 -7.0625 1.4375 -5 1 C-3 0 -3 0 0 0 Z " fill="#191A1C" transform="translate(1075,183)"/>
<path d="M0 0 C2.46800047 1.15173355 4.04783565 2.04783565 6 4 C4.1875 4.625 4.1875 4.625 2 5 C1.01 4.34 0.02 3.68 -1 3 C-0.67 2.01 -0.34 1.02 0 0 Z " fill="#323336" transform="translate(385,345)"/>
<path d="M0 0 C2.64 0.33 5.28 0.66 8 1 C8.33 1.99 8.66 2.98 9 4 C9.66 4 10.32 4 11 4 C10.67 4.66 10.34 5.32 10 6 C6.7 4.35 3.4 2.7 0 1 C0 0.67 0 0.34 0 0 Z " fill="#4B4C4C" transform="translate(828,188)"/>
<path d="M0 0 C2.31 0 4.62 0 7 0 C7.33 0.66 7.66 1.32 8 2 C4.71303767 2.79953138 3.28976808 3.09658936 0 2 C0 1.34 0 0.68 0 0 Z " fill="#1A1B1D" transform="translate(438,367)"/>
<path d="M0 0 C0.98726527 2.66561622 1.0275526 3.90126985 0.25 6.6875 C-1 9 -1 9 -4 10 C-2.66666667 6.66666667 -1.33333333 3.33333333 0 0 Z " fill="#3F4144" transform="translate(1345,179)"/>
<path d="M0 0 C0.33 0.66 0.66 1.32 1 2 C1.66 2.33 2.32 2.66 3 3 C1.02 4.32 -0.96 5.64 -3 7 C-2.38722388 4.03824877 -1.74627478 2.61941217 0 0 Z " fill="#36393C" transform="translate(521,349)"/>
<path d="M0 0 C0.8971875 0.309375 0.8971875 0.309375 1.8125 0.625 C-1.1340385 2.42566242 -4.07551935 4.12663895 -7.1875 5.625 C-5.69046729 2.17030914 -4.27938051 -0.73360809 0 0 Z " fill="#D4D2D2" transform="translate(603.1875,239.375)"/>
</svg>
