<?xml version="1.0" encoding="UTF-8"?>
<svg version="1.1" xmlns="http://www.w3.org/2000/svg" width="2048" height="512">
<path d="M0 0 C675.84 0 1351.68 0 2048 0 C2048 168.96 2048 337.92 2048 512 C1372.16 512 696.32 512 0 512 C0 343.04 0 174.08 0 0 Z " fill="#FDFDFD" transform="translate(0,0)"/>
<path d="M0 0 C1.63751294 -0.00898656 3.27502515 -0.01810871 4.91253662 -0.02735901 C8.33510317 -0.0437813 11.75757269 -0.05153663 15.18017578 -0.05444336 C19.5318885 -0.05981822 23.88266915 -0.09748988 28.23411942 -0.14318752 C31.61453452 -0.17316198 34.99473069 -0.18017131 38.37526703 -0.18116951 C39.97781388 -0.18533198 41.58036385 -0.19760321 43.1827774 -0.21868706 C58.11249075 -0.39949601 70.12408318 2.59560666 81.171875 13.37109375 C89.57989618 22.32887016 92.77279355 30.9778206 92.57226562 43.11767578 C92.14784736 53.73520603 88.76182458 61.95209693 82.171875 70.37109375 C81.32197998 70.83435059 80.47208496 71.29760742 79.59643555 71.77490234 C75.64444117 76.00665223 76.44556616 80.77380364 76.46484375 86.35546875 C76.44216179 88.11156464 76.44216179 88.11156464 76.41902161 89.90313721 C76.37603171 93.64265026 76.36729512 97.38135785 76.359375 101.12109375 C76.33623968 103.65627158 76.31087638 106.19143014 76.28320312 108.7265625 C76.22023896 114.94141379 76.18539449 121.15594888 76.171875 127.37109375 C76.831875 127.37109375 77.491875 127.37109375 78.171875 127.37109375 C78.3575 126.69046875 78.543125 126.00984375 78.734375 125.30859375 C82.6364039 117.33488253 90.21754976 112.76306078 98.171875 109.37109375 C101.48592113 108.44757956 104.75994807 107.80036004 108.171875 107.37109375 C108.35621094 106.69046875 108.54054688 106.00984375 108.73046875 105.30859375 C116.25586369 80.15705155 134.17426808 60.70715751 157.03320312 48.36621094 C182.02870773 35.39930422 212.10702761 32.32969098 239.171875 40.49609375 C250.95160007 44.30300908 262.01265241 49.54377076 271.15625 58 C273.0350001 59.56562366 273.0350001 59.56562366 275.125 59.31640625 C277.77963244 58.09041188 279.86709826 56.48420058 282.171875 54.68359375 C292.88140083 46.771543 304.33407054 42.45199823 317.171875 39.37109375 C317.92484863 39.18345459 318.67782227 38.99581543 319.45361328 38.80249023 C328.83153411 36.76844966 338.37165179 36.92929262 347.921875 36.93359375 C348.83372559 36.93319092 349.74557617 36.93278809 350.68505859 36.93237305 C376.91783547 36.9991876 399.31183988 41.85366817 420.171875 58.37109375 C421.161875 59.03109375 422.151875 59.69109375 423.171875 60.37109375 C423.419375 59.78199219 423.666875 59.19289062 423.921875 58.5859375 C428.04303362 51.28375958 438.2616195 46.08900196 446.07727051 43.81726074 C457.79068313 40.81955774 469.08013605 39.75688288 481.14575195 39.90454102 C483.76511365 39.93393874 486.38249072 39.92499397 489.00195312 39.91210938 C504.04417762 39.9325368 504.04417762 39.9325368 511.17944336 42.63256836 C515.78486199 44.33963751 518.55104453 44.59105385 523.046875 42.55859375 C537.09168334 36.30391222 555.05859817 35.78280685 569.54296875 41.14453125 C572.90220729 42.71184314 576.08614524 44.46048077 579.171875 46.515625 C582.92095913 48.11923716 586.52161758 46.32216383 590.171875 44.99609375 C602.10324327 41.01769135 612.82613014 39.91324912 625.32080078 40.03491211 C627.93162596 40.05868253 630.54143628 40.0554275 633.15234375 40.04882812 C634.84115182 40.05440172 636.52995568 40.06150958 638.21875 40.0703125 C638.98459412 40.06940109 639.75043823 40.06848969 640.53948975 40.06755066 C647.12509923 40.1525909 653.44673959 40.89952063 659.296875 44.05859375 C663.7767482 46.10375326 667.07562104 45.14873635 671.59375 43.47265625 C673.25302052 42.80391995 674.90494295 42.11649364 676.546875 41.40625 C692.39081128 35.15826917 714.37042191 36.0540714 730.171875 42.37109375 C748.67884866 50.68064667 760.8890727 64.69292526 768.171875 83.37109375 C771.86128153 93.92408829 772.52127103 104.1361416 772.5703125 115.25 C772.57487552 116.25452272 772.57487552 116.25452272 772.57953072 117.27933884 C772.59891659 123.58025726 772.56444488 129.88071414 772.51171875 136.18139648 C772.13550687 156.71712602 772.13550687 156.71712602 777.81396484 176.2355957 C779.84028575 180.91449527 780.01337882 185.15037192 779.796875 190.18359375 C779.77431641 191.07667236 779.75175781 191.96975098 779.72851562 192.88989258 C779.24029625 204.62750011 775.46086595 212.96389972 767.171875 221.37109375 C757.14470082 230.05384234 745.20530193 231.98850814 732.33203125 231.90234375 C731.04807968 231.90617065 729.76412811 231.90999756 728.44126892 231.91394043 C725.74262902 231.9197861 723.04452417 231.91143661 720.34594727 231.89257812 C716.92583768 231.8698133 713.5069861 231.8829257 710.08692265 231.90686798 C706.77269766 231.92498884 703.45879168 231.91221477 700.14453125 231.90234375 C698.93684586 231.91044067 697.72916046 231.9185376 696.48487854 231.92687988 C688.10877496 231.83595566 681.03577386 230.2068599 673.171875 227.37109375 C669.44606255 226.12915627 668.37970966 226.82277587 664.796875 228.24609375 C659.19300027 230.45368076 654.38040753 231.49131075 648.34692383 231.53222656 C647.19835403 231.54183411 646.04978424 231.55144165 644.8664093 231.56134033 C643.63303329 231.56559021 642.39965729 231.56984009 641.12890625 231.57421875 C639.85013107 231.57991882 638.5713559 231.5856189 637.25382996 231.5914917 C634.54804083 231.60197384 631.84228115 231.60783408 629.13647461 231.61132812 C625.69482918 231.61679427 622.25358306 231.64079319 618.81206226 231.66930008 C615.5010192 231.69258214 612.19002679 231.69438665 608.87890625 231.69921875 C607.04402397 231.71773895 607.04402397 231.71773895 605.17207336 231.7366333 C593.88847913 231.70754948 584.20302048 229.39531801 575.171875 222.37109375 C567.97985754 215.07987605 562.86234784 206.72818638 562.171875 196.37109375 C562.09710937 195.43652344 562.02234375 194.50195312 561.9453125 193.5390625 C561.4972895 183.78866711 563.71417308 174.55764664 569.171875 166.37109375 C569.63103007 163.40266717 569.63103007 163.40266717 569.796875 160.18359375 C569.87164063 159.09691406 569.94640625 158.01023437 570.0234375 156.890625 C570.07242188 156.05917969 570.12140625 155.22773438 570.171875 154.37109375 C569.470625 154.68046875 568.769375 154.98984375 568.046875 155.30859375 C561.79833804 157.61783567 555.61976343 157.52479632 549.046875 157.49609375 C547.70689453 157.50189453 547.70689453 157.50189453 546.33984375 157.5078125 C545.47746094 157.50652344 544.61507812 157.50523437 543.7265625 157.50390625 C542.94780762 157.50277832 542.16905273 157.50165039 541.36669922 157.50048828 C539.18340853 157.3717737 537.26989577 156.97249054 535.171875 156.37109375 C536.21236486 159.80471029 537.67215545 162.06900354 540.046875 164.68359375 C548.63773731 174.30367917 548.84178628 184.80907059 548.35986328 197.12353516 C547.7766694 204.09611035 544.29618509 209.87201363 540.171875 215.37109375 C539.470625 216.36109375 538.769375 217.35109375 538.046875 218.37109375 C531.29446309 226.21128022 519.78702356 230.66824883 509.71850586 231.73800659 C505.9469641 231.87948105 502.19590622 231.8997923 498.421875 231.8671875 C497.03287684 231.86734305 495.64387825 231.86884117 494.25488281 231.87159729 C491.36373368 231.87297066 488.47308702 231.86060449 485.58203125 231.83764648 C481.91089616 231.80926457 478.24059368 231.81201334 474.56939697 231.8247366 C471.70712403 231.83175381 468.84503722 231.82383642 465.98278809 231.81147957 C463.98235124 231.80488681 461.98188793 231.8090672 459.98144531 231.81358337 C449.82892286 231.70987277 440.94974267 230.66393061 432.171875 225.37109375 C430.05497566 225.50200268 430.05497566 225.50200268 428.046875 226.43359375 C427.2734375 226.73136719 426.5 227.02914062 425.703125 227.3359375 C424.8678125 227.67753906 424.0325 228.01914062 423.171875 228.37109375 C421.30039301 229.08867041 419.42528402 229.79685083 417.546875 230.49609375 C416.68835938 230.82867187 415.82984375 231.16125 414.9453125 231.50390625 C400.63315257 235.97897597 380.69509766 234.92045661 367.109375 228.62109375 C363.70355081 227.17180686 362.66123875 227.43286603 359.171875 228.37109375 C357.72172884 228.96616297 356.2843668 229.59307797 354.859375 230.24609375 C336.17615355 237.77433298 312.69296491 238.32834206 294.04882812 230.47705078 C286.6085095 227.13291835 279.61462101 223.40422995 273.171875 218.37109375 C273.171875 217.71109375 273.171875 217.05109375 273.171875 216.37109375 C272.39585937 216.87898437 271.61984375 217.386875 270.8203125 217.91015625 C259.92756158 224.8513603 248.72358843 230.073796 236.171875 233.37109375 C235.48738281 233.56445312 234.80289062 233.7578125 234.09765625 233.95703125 C206.95830984 241.31504658 176.68772637 235.78757831 152.51171875 222.3359375 C149.30621532 220.45012671 146.24063943 218.46831632 143.171875 216.37109375 C140.09564019 217.74055793 138.05607139 219.32553987 135.671875 221.68359375 C128.23248987 228.36927007 118.52215243 231.4807392 108.62666321 231.51153564 C107.52357315 231.51724579 106.42048309 231.52295593 105.28396606 231.52883911 C104.08335541 231.52995697 102.88274475 231.53107483 101.64575195 231.53222656 C100.37361343 231.53719147 99.10147491 231.54215637 97.79078674 231.54727173 C94.30705191 231.56035772 90.82333633 231.56683349 87.33958077 231.57128239 C85.15933429 231.57421986 82.97909297 231.57832597 80.79884911 231.58278656 C73.9666011 231.59645281 67.13436502 231.60612317 60.30210429 231.60998845 C52.43553822 231.61446423 44.56914634 231.63199334 36.7026332 231.66098905 C30.60900469 231.6826642 24.51542497 231.69269587 18.42175835 231.69402957 C14.78850767 231.69507363 11.15542091 231.70089549 7.52221107 231.71884918 C3.46302493 231.73851829 -0.5958006 231.73401777 -4.6550293 231.72753906 C-5.8455188 231.73675385 -7.0360083 231.74596863 -8.26257324 231.75546265 C-21.08653769 231.69153559 -32.51131822 227.94740573 -42.12890625 219.2265625 C-51.64999587 208.82997039 -53.60670332 198.26357288 -53.19921875 184.6015625 C-52.82126165 178.60132547 -51.08718263 173.42263308 -47.828125 168.37109375 C-47.20130325 167.84949173 -46.57448151 167.32788971 -45.92866516 166.79048157 C-41.28609429 162.68891641 -39.3671904 159.16385235 -38.9198637 153.08758831 C-38.77760553 148.80717955 -38.8057347 144.53943975 -38.87109375 140.2578125 C-38.87332605 138.39695866 -38.87273617 136.53609949 -38.86946106 134.67524719 C-38.87119797 130.79062502 -38.90015373 126.90749027 -38.94995117 123.02319336 C-39.01253585 118.04490354 -39.01719173 113.06862777 -39.0029707 108.09002972 C-38.996563 104.25431565 -39.01530089 100.41905716 -39.04223061 96.5834446 C-39.05310327 94.74745174 -39.05738809 92.91140757 -39.05495262 91.07538414 C-39.05637924 88.51372761 -39.09035919 85.9545589 -39.13354492 83.39331055 C-39.1281369 82.63636902 -39.12272888 81.87942749 -39.11715698 81.09954834 C-39.21824723 77.26488418 -39.4731711 75.71741163 -42.26777649 72.99079895 C-43.1126915 72.45629623 -43.95760651 71.92179352 -44.828125 71.37109375 C-52.87444375 61.98056646 -55.53726911 51.07368336 -55.140625 38.9140625 C-54.03376683 26.36505796 -47.76403613 17.15021261 -38.21484375 9.125 C-26.44406674 0.4751164 -14.03088546 0.0400606 0 0 Z " fill="#F7F7F6" transform="translate(525.828125,137.62890625)"/>
<path d="M0 0 C1.63751294 -0.00898656 3.27502515 -0.01810871 4.91253662 -0.02735901 C8.33510317 -0.0437813 11.75757269 -0.05153663 15.18017578 -0.05444336 C19.5318885 -0.05981822 23.88266915 -0.09748988 28.23411942 -0.14318752 C31.61453452 -0.17316198 34.99473069 -0.18017131 38.37526703 -0.18116951 C39.97781388 -0.18533198 41.58036385 -0.19760321 43.1827774 -0.21868706 C58.11249075 -0.39949601 70.12408318 2.59560666 81.171875 13.37109375 C89.57989618 22.32887016 92.77279355 30.9778206 92.57226562 43.11767578 C92.14784736 53.73520603 88.76182458 61.95209693 82.171875 70.37109375 C81.32197998 70.83435059 80.47208496 71.29760742 79.59643555 71.77490234 C75.64444117 76.00665223 76.44556616 80.77380364 76.46484375 86.35546875 C76.44216179 88.11156464 76.44216179 88.11156464 76.41902161 89.90313721 C76.37603171 93.64265026 76.36729512 97.38135785 76.359375 101.12109375 C76.33623968 103.65627158 76.31087638 106.19143014 76.28320312 108.7265625 C76.22023896 114.94141379 76.18539449 121.15594888 76.171875 127.37109375 C76.831875 127.37109375 77.491875 127.37109375 78.171875 127.37109375 C78.3575 126.69046875 78.543125 126.00984375 78.734375 125.30859375 C82.6364039 117.33488253 90.21754976 112.76306078 98.171875 109.37109375 C101.48592113 108.44757956 104.75994807 107.80036004 108.171875 107.37109375 C108.35621094 106.69046875 108.54054688 106.00984375 108.73046875 105.30859375 C116.25586369 80.15705155 134.17426808 60.70715751 157.03320312 48.36621094 C182.02870773 35.39930422 212.10702761 32.32969098 239.171875 40.49609375 C250.95160007 44.30300908 262.01265241 49.54377076 271.15625 58 C273.0350001 59.56562366 273.0350001 59.56562366 275.125 59.31640625 C277.77963244 58.09041188 279.86709826 56.48420058 282.171875 54.68359375 C292.88140083 46.771543 304.33407054 42.45199823 317.171875 39.37109375 C317.92484863 39.18345459 318.67782227 38.99581543 319.45361328 38.80249023 C328.83153411 36.76844966 338.37165179 36.92929262 347.921875 36.93359375 C348.83372559 36.93319092 349.74557617 36.93278809 350.68505859 36.93237305 C376.91783547 36.9991876 399.31183988 41.85366817 420.171875 58.37109375 C421.161875 59.03109375 422.151875 59.69109375 423.171875 60.37109375 C423.419375 59.78199219 423.666875 59.19289062 423.921875 58.5859375 C428.04303362 51.28375958 438.2616195 46.08900196 446.07727051 43.81726074 C457.79068313 40.81955774 469.08013605 39.75688288 481.14575195 39.90454102 C483.76511365 39.93393874 486.38249072 39.92499397 489.00195312 39.91210938 C504.04417762 39.9325368 504.04417762 39.9325368 511.17944336 42.63256836 C515.78486199 44.33963751 518.55104453 44.59105385 523.046875 42.55859375 C537.09168334 36.30391222 555.05859817 35.78280685 569.54296875 41.14453125 C572.90220729 42.71184314 576.08614524 44.46048077 579.171875 46.515625 C582.92095913 48.11923716 586.52161758 46.32216383 590.171875 44.99609375 C602.10324327 41.01769135 612.82613014 39.91324912 625.32080078 40.03491211 C627.93162596 40.05868253 630.54143628 40.0554275 633.15234375 40.04882812 C634.84115182 40.05440172 636.52995568 40.06150958 638.21875 40.0703125 C638.98459412 40.06940109 639.75043823 40.06848969 640.53948975 40.06755066 C647.12509923 40.1525909 653.44673959 40.89952063 659.296875 44.05859375 C663.7767482 46.10375326 667.07562104 45.14873635 671.59375 43.47265625 C673.25302052 42.80391995 674.90494295 42.11649364 676.546875 41.40625 C692.39081128 35.15826917 714.37042191 36.0540714 730.171875 42.37109375 C748.67884866 50.68064667 760.8890727 64.69292526 768.171875 83.37109375 C771.86128153 93.92408829 772.52127103 104.1361416 772.5703125 115.25 C772.57487552 116.25452272 772.57487552 116.25452272 772.57953072 117.27933884 C772.59891659 123.58025726 772.56444488 129.88071414 772.51171875 136.18139648 C772.13550687 156.71712602 772.13550687 156.71712602 777.81396484 176.2355957 C779.84028575 180.91449527 780.01337882 185.15037192 779.796875 190.18359375 C779.77431641 191.07667236 779.75175781 191.96975098 779.72851562 192.88989258 C779.24029625 204.62750011 775.46086595 212.96389972 767.171875 221.37109375 C757.14470082 230.05384234 745.20530193 231.98850814 732.33203125 231.90234375 C731.04807968 231.90617065 729.76412811 231.90999756 728.44126892 231.91394043 C725.74262902 231.9197861 723.04452417 231.91143661 720.34594727 231.89257812 C716.92583768 231.8698133 713.5069861 231.8829257 710.08692265 231.90686798 C706.77269766 231.92498884 703.45879168 231.91221477 700.14453125 231.90234375 C698.93684586 231.91044067 697.72916046 231.9185376 696.48487854 231.92687988 C688.10877496 231.83595566 681.03577386 230.2068599 673.171875 227.37109375 C669.44606255 226.12915627 668.37970966 226.82277587 664.796875 228.24609375 C659.19300027 230.45368076 654.38040753 231.49131075 648.34692383 231.53222656 C647.19835403 231.54183411 646.04978424 231.55144165 644.8664093 231.56134033 C643.63303329 231.56559021 642.39965729 231.56984009 641.12890625 231.57421875 C639.85013107 231.57991882 638.5713559 231.5856189 637.25382996 231.5914917 C634.54804083 231.60197384 631.84228115 231.60783408 629.13647461 231.61132812 C625.69482918 231.61679427 622.25358306 231.64079319 618.81206226 231.66930008 C615.5010192 231.69258214 612.19002679 231.69438665 608.87890625 231.69921875 C607.04402397 231.71773895 607.04402397 231.71773895 605.17207336 231.7366333 C593.88847913 231.70754948 584.20302048 229.39531801 575.171875 222.37109375 C567.97985754 215.07987605 562.86234784 206.72818638 562.171875 196.37109375 C562.09710937 195.43652344 562.02234375 194.50195312 561.9453125 193.5390625 C561.4972895 183.78866711 563.71417308 174.55764664 569.171875 166.37109375 C569.63103007 163.40266717 569.63103007 163.40266717 569.796875 160.18359375 C569.87164063 159.09691406 569.94640625 158.01023437 570.0234375 156.890625 C570.07242188 156.05917969 570.12140625 155.22773438 570.171875 154.37109375 C569.470625 154.68046875 568.769375 154.98984375 568.046875 155.30859375 C561.79833804 157.61783567 555.61976343 157.52479632 549.046875 157.49609375 C547.70689453 157.50189453 547.70689453 157.50189453 546.33984375 157.5078125 C545.47746094 157.50652344 544.61507812 157.50523437 543.7265625 157.50390625 C542.94780762 157.50277832 542.16905273 157.50165039 541.36669922 157.50048828 C539.18340853 157.3717737 537.26989577 156.97249054 535.171875 156.37109375 C536.21236486 159.80471029 537.67215545 162.06900354 540.046875 164.68359375 C548.63773731 174.30367917 548.84178628 184.80907059 548.35986328 197.12353516 C547.7766694 204.09611035 544.29618509 209.87201363 540.171875 215.37109375 C539.470625 216.36109375 538.769375 217.35109375 538.046875 218.37109375 C531.29446309 226.21128022 519.78702356 230.66824883 509.71850586 231.73800659 C505.9469641 231.87948105 502.19590622 231.8997923 498.421875 231.8671875 C497.03287684 231.86734305 495.64387825 231.86884117 494.25488281 231.87159729 C491.36373368 231.87297066 488.47308702 231.86060449 485.58203125 231.83764648 C481.91089616 231.80926457 478.24059368 231.81201334 474.56939697 231.8247366 C471.70712403 231.83175381 468.84503722 231.82383642 465.98278809 231.81147957 C463.98235124 231.80488681 461.98188793 231.8090672 459.98144531 231.81358337 C449.82892286 231.70987277 440.94974267 230.66393061 432.171875 225.37109375 C430.05497566 225.50200268 430.05497566 225.50200268 428.046875 226.43359375 C427.2734375 226.73136719 426.5 227.02914062 425.703125 227.3359375 C424.8678125 227.67753906 424.0325 228.01914062 423.171875 228.37109375 C421.30039301 229.08867041 419.42528402 229.79685083 417.546875 230.49609375 C416.68835938 230.82867187 415.82984375 231.16125 414.9453125 231.50390625 C400.63315257 235.97897597 380.69509766 234.92045661 367.109375 228.62109375 C363.70355081 227.17180686 362.66123875 227.43286603 359.171875 228.37109375 C357.72172884 228.96616297 356.2843668 229.59307797 354.859375 230.24609375 C336.17615355 237.77433298 312.69296491 238.32834206 294.04882812 230.47705078 C286.6085095 227.13291835 279.61462101 223.40422995 273.171875 218.37109375 C273.171875 217.71109375 273.171875 217.05109375 273.171875 216.37109375 C272.39585937 216.87898437 271.61984375 217.386875 270.8203125 217.91015625 C259.92756158 224.8513603 248.72358843 230.073796 236.171875 233.37109375 C235.48738281 233.56445312 234.80289062 233.7578125 234.09765625 233.95703125 C206.95830984 241.31504658 176.68772637 235.78757831 152.51171875 222.3359375 C149.30621532 220.45012671 146.24063943 218.46831632 143.171875 216.37109375 C140.09564019 217.74055793 138.05607139 219.32553987 135.671875 221.68359375 C128.23248987 228.36927007 118.52215243 231.4807392 108.62666321 231.51153564 C107.52357315 231.51724579 106.42048309 231.52295593 105.28396606 231.52883911 C104.08335541 231.52995697 102.88274475 231.53107483 101.64575195 231.53222656 C100.37361343 231.53719147 99.10147491 231.54215637 97.79078674 231.54727173 C94.30705191 231.56035772 90.82333633 231.56683349 87.33958077 231.57128239 C85.15933429 231.57421986 82.97909297 231.57832597 80.79884911 231.58278656 C73.9666011 231.59645281 67.13436502 231.60612317 60.30210429 231.60998845 C52.43553822 231.61446423 44.56914634 231.63199334 36.7026332 231.66098905 C30.60900469 231.6826642 24.51542497 231.69269587 18.42175835 231.69402957 C14.78850767 231.69507363 11.15542091 231.70089549 7.52221107 231.71884918 C3.46302493 231.73851829 -0.5958006 231.73401777 -4.6550293 231.72753906 C-5.8455188 231.73675385 -7.0360083 231.74596863 -8.26257324 231.75546265 C-21.08653769 231.69153559 -32.51131822 227.94740573 -42.12890625 219.2265625 C-51.64999587 208.82997039 -53.60670332 198.26357288 -53.19921875 184.6015625 C-52.82126165 178.60132547 -51.08718263 173.42263308 -47.828125 168.37109375 C-47.20130325 167.84949173 -46.57448151 167.32788971 -45.92866516 166.79048157 C-41.28609429 162.68891641 -39.3671904 159.16385235 -38.9198637 153.08758831 C-38.77760553 148.80717955 -38.8057347 144.53943975 -38.87109375 140.2578125 C-38.87332605 138.39695866 -38.87273617 136.53609949 -38.86946106 134.67524719 C-38.87119797 130.79062502 -38.90015373 126.90749027 -38.94995117 123.02319336 C-39.01253585 118.04490354 -39.01719173 113.06862777 -39.0029707 108.09002972 C-38.996563 104.25431565 -39.01530089 100.41905716 -39.04223061 96.5834446 C-39.05310327 94.74745174 -39.05738809 92.91140757 -39.05495262 91.07538414 C-39.05637924 88.51372761 -39.09035919 85.9545589 -39.13354492 83.39331055 C-39.1281369 82.63636902 -39.12272888 81.87942749 -39.11715698 81.09954834 C-39.21824723 77.26488418 -39.4731711 75.71741163 -42.26777649 72.99079895 C-43.1126915 72.45629623 -43.95760651 71.92179352 -44.828125 71.37109375 C-52.87444375 61.98056646 -55.53726911 51.07368336 -55.140625 38.9140625 C-54.03376683 26.36505796 -47.76403613 17.15021261 -38.21484375 9.125 C-26.44406674 0.4751164 -14.03088546 0.0400606 0 0 Z M-40.078125 21.62109375 C-46.73427721 29.96856332 -47.97139131 38.91668945 -46.828125 49.37109375 C-44.97804515 57.94276547 -40.76780095 64.63757723 -33.75112915 69.94093323 C-30.99338842 73.42597649 -31.25304052 76.7465666 -31.27880859 81.00756836 C-31.26858673 81.87794235 -31.25836487 82.74831635 -31.24783325 83.64506531 C-31.22003854 86.52146935 -31.22195433 89.39691516 -31.2265625 92.2734375 C-31.21878879 94.27356828 -31.2101195 96.27369577 -31.20059204 98.27381897 C-31.18566723 102.46610212 -31.18625015 106.65804841 -31.19677734 110.8503418 C-31.20836869 116.22211578 -31.17450387 121.592511 -31.128088 126.96405697 C-31.09861995 131.09481361 -31.09686876 135.22523788 -31.10310745 139.35608101 C-31.10208071 141.33643895 -31.09159885 143.31681541 -31.07148361 145.29707146 C-31.04679668 148.06736636 -31.0603039 150.83497256 -31.08349609 153.60522461 C-31.06056488 154.83118347 -31.06056488 154.83118347 -31.03717041 156.08190918 C-31.13838789 161.55357522 -31.13838789 161.55357522 -33.14931107 163.93704414 C-34.64119516 165.16868862 -36.2327064 166.27687907 -37.828125 167.37109375 C-43.70225626 175.17816564 -46.98556717 183.56251327 -45.828125 193.37109375 C-43.74388816 203.88461757 -39.79114527 211.55941989 -31.40971375 218.32255554 C-19.13478869 225.80553094 -4.79153088 224.37938495 9.09535766 224.27844071 C12.89117211 224.25676712 16.68689706 224.27053679 20.48274231 224.2787323 C26.84997297 224.28685485 33.2166262 224.26639351 39.58374023 224.22875977 C46.91867115 224.18577903 54.25247315 224.18940113 61.58745021 224.21762735 C68.68252169 224.24375736 75.77717817 224.23579874 82.8722477 224.21292686 C85.87486705 224.20388611 88.87711705 224.206694 91.87972069 224.21943092 C95.42045312 224.23297953 98.9598638 224.21646146 102.50039864 224.1777935 C104.40059422 224.16389124 106.30093475 224.17902251 108.20111084 224.19537354 C117.89958133 224.0413102 124.7980524 221.18655602 132.109375 214.80859375 C136.0301576 210.35806864 136.0301576 210.35806864 139.171875 205.37109375 C143.01692359 206.72095123 145.74914323 208.45992918 148.921875 210.99609375 C171.5212882 227.72513448 200.80503396 231.57963696 228.19775391 227.97265625 C233.38995266 226.95361743 238.26355172 225.3218046 243.171875 223.37109375 C243.79642578 223.14115723 244.42097656 222.9112207 245.06445312 222.67431641 C252.95382556 219.76824674 259.79201859 215.95192376 266.6484375 211.10546875 C268.78000167 209.64043084 270.8282932 208.44936143 273.171875 207.37109375 C273.74292969 207.93957031 274.31398438 208.50804687 274.90234375 209.09375 C290.36015767 223.81430729 307.33518506 227.99203039 328.07519531 227.84838867 C338.36108546 227.5696489 346.84204386 225.46264233 356.171875 221.05859375 C360.99622448 218.82313511 363.77860321 219.49683922 368.73828125 221.30859375 C370.59748343 221.99662503 372.4497517 222.70381932 374.29296875 223.43359375 C389.01488781 228.22770579 408.75056891 227.00782249 422.5859375 220.1796875 C423.61847656 219.62474609 423.61847656 219.62474609 424.671875 219.05859375 C428.72833829 217.10279895 429.9062809 217.32754834 434.171875 218.37109375 C435.99819567 219.17039949 437.80534641 220.0146138 439.59326172 220.89648438 C446.85224303 223.99900205 453.6458471 224.06476759 461.4296875 223.96484375 C462.86831563 223.96312696 464.30694688 223.96320408 465.74557495 223.96496582 C468.73938526 223.96332521 471.73243531 223.94485978 474.72607422 223.91308594 C478.53642709 223.87333956 482.34579192 223.86905709 486.15631294 223.87654877 C489.11974923 223.87963777 492.08296916 223.86743115 495.04635239 223.85041809 C496.45036333 223.8434588 497.85439874 223.84025482 499.25842667 223.84111023 C511.40562554 223.82985484 521.69280068 222.45191381 531.171875 214.37109375 C539.1192535 205.67756399 541.57848001 197.01758829 541.44921875 185.3984375 C540.7387525 177.64334814 536.29094017 171.06349422 531.171875 165.37109375 C530.181875 164.71109375 529.191875 164.05109375 528.171875 163.37109375 C527.73950195 161.49169922 527.73950195 161.49169922 527.66015625 159.23828125 C527.62470703 158.43261719 527.58925781 157.62695312 527.55273438 156.796875 C527.51889648 155.53423828 527.51889648 155.53423828 527.484375 154.24609375 C527.43313477 152.97185547 527.43313477 152.97185547 527.38085938 151.671875 C527.29828327 149.5720827 527.23340522 147.47160811 527.171875 145.37109375 C527.75525635 145.65404297 528.3386377 145.93699219 528.93969727 146.22851562 C535.80566921 149.29773926 541.64040932 149.98534179 549.109375 149.87109375 C550.62047852 149.89429688 550.62047852 149.89429688 552.16210938 149.91796875 C561.76255891 149.86857737 569.80294578 146.89483927 578.171875 142.37109375 C578.01819613 167.40869661 578.01819613 167.40869661 573.42578125 175.22265625 C568.83234384 183.09303187 569.23573151 192.5343524 570.921875 201.24609375 C571.334375 202.27734375 571.746875 203.30859375 572.171875 204.37109375 C572.41679688 205.01304687 572.66171875 205.655 572.9140625 206.31640625 C576.05253408 213.62099055 581.26876487 218.20250476 588.44897461 221.44042969 C595.0220966 224.0142247 601.34094549 223.94686393 608.32421875 223.90234375 C609.67363259 223.90504681 611.02304451 223.90893594 612.37245178 223.91394043 C615.18558496 223.91979948 617.9982062 223.91139201 620.8112793 223.89257812 C624.38632296 223.86981168 627.96016344 223.88291828 631.53516293 223.90686798 C634.31763994 223.92144357 637.09983996 223.91666653 639.88232613 223.90635681 C641.83130311 223.9024547 643.78029163 223.91443504 645.72923279 223.92687988 C654.6169958 223.83412654 661.78736436 222.18657182 669.67259216 218.06350708 C672.171875 217.37109375 672.171875 217.37109375 674.55773926 218.46273804 C675.39011108 219.03626007 676.22248291 219.6097821 677.08007812 220.20068359 C683.90393777 224.20415323 689.87214554 224.20885862 697.640625 224.09765625 C699.01102699 224.09661536 700.38143198 224.09766497 701.75183105 224.10067749 C704.60633685 224.10049938 707.45969724 224.0799237 710.31396484 224.04345703 C713.9417383 223.99808316 717.5678444 223.99700754 721.19582367 224.01049232 C724.02038962 224.01722964 726.84458706 224.00380504 729.66908264 223.98423386 C731.64682975 223.97297668 733.62463983 223.97537824 735.60241699 223.97817993 C746.97942117 223.80112159 755.97781662 221.51176948 764.296875 213.51953125 C767.01680208 210.40294813 768.75305912 207.23791837 770.171875 203.37109375 C770.52636719 202.45070313 770.88085938 201.5303125 771.24609375 200.58203125 C773.68284998 192.13049699 773.20540184 182.81899923 769.33984375 174.91015625 C765.43671977 166.42510413 764.74287139 159.03199006 764.765625 149.7109375 C764.74905806 147.71841701 764.73247412 145.72589651 764.71495819 143.73338413 C764.68835209 140.25849476 764.68066243 136.78356642 764.671875 133.30859375 C765.62797819 104.81909123 765.62797819 104.81909123 757.546875 77.99609375 C757.20205078 77.33818848 756.85722656 76.6802832 756.50195312 76.00244141 C749.03805203 62.34430641 737.57549253 53.75458475 723.171875 48.37109375 C703.09742732 42.5133041 684.56151985 44.63539942 666.171875 54.37109375 C662.03603842 54.37109375 660.69637556 53.83016189 657.171875 51.93359375 C651.22061639 48.74930751 646.50147898 48.20435481 639.77734375 48.16796875 C638.95293289 48.16226868 638.12852203 48.1565686 637.27912903 48.1506958 C635.52993038 48.14125499 633.78071402 48.13471547 632.03149414 48.13085938 C629.40672719 48.12126681 626.78278262 48.0902838 624.15820312 48.05859375 C609.6381148 47.9669678 596.17545262 48.8687683 583.671875 56.99609375 C581.171875 57.37109375 581.171875 57.37109375 579.546875 56.328125 C578.22998326 55.26089398 576.91930407 54.1859734 575.61328125 53.10546875 C569.30848395 48.62654075 560.87669913 45.77661081 553.171875 45.37109375 C552.1921875 45.29761719 551.2125 45.22414062 550.203125 45.1484375 C538.60163563 44.63891263 528.10981858 47.39073832 518.171875 53.37109375 C514.27725911 53.28257975 511.47619641 52.05077528 508.06274414 50.34570312 C503.16444358 48.15048351 498.98358703 47.78748692 493.66796875 47.83984375 C492.78641617 47.83601685 491.90486359 47.83218994 490.99659729 47.82824707 C489.14021659 47.82554171 487.28379686 47.83280583 485.42749023 47.84960938 C482.64020846 47.87085869 479.85555749 47.84985496 477.06835938 47.82421875 C460.42162945 47.79718477 443.83817231 49.67957229 430.94921875 61.390625 C427.51656958 65.07702236 425.29855666 68.36361971 424.171875 73.37109375 C421.72010647 70.92367233 419.2731674 68.4766928 416.875 65.9765625 C405.60471231 54.86779167 391.47753572 49.5849643 376.171875 46.37109375 C375.38296875 46.19449219 374.5940625 46.01789063 373.78125 45.8359375 C366.13821617 44.25577948 358.70926473 44.06201349 350.921875 44.12109375 C349.63716309 44.12786133 348.35245117 44.13462891 347.02880859 44.14160156 C338.24819748 44.2373941 329.79073234 44.5707562 321.171875 46.37109375 C319.96402344 46.61601562 318.75617188 46.8609375 317.51171875 47.11328125 C301.50133067 50.85510928 287.51811384 58.45754297 276.171875 70.37109375 C272.61108901 68.81428499 269.98791161 66.64198227 267.046875 64.12109375 C257.81607881 56.5120887 248.65161481 51.78870438 237.171875 48.37109375 C236.51219727 48.17209473 235.85251953 47.9730957 235.17285156 47.76806641 C208.64443152 40.07419446 181.16894882 44.03216358 157.046875 56.99609375 C136.07943405 69.54786855 120.85290854 88.82687459 114.171875 112.37109375 C114.171875 113.36109375 114.171875 114.35109375 114.171875 115.37109375 C113.55441406 115.3246875 112.93695312 115.27828125 112.30078125 115.23046875 C103.41028212 114.85157381 97.49463286 117.23200647 90.609375 122.80859375 C86.05657447 127.04412595 83.13646878 131.95364816 80.02734375 137.296875 C77.51575077 141.45818801 74.62700813 146.14352719 70.171875 148.37109375 C70.0095394 138.30502463 69.88523282 128.23926788 69.8091898 118.17215538 C69.77268849 113.49727453 69.72319681 108.82329048 69.64379883 104.14892578 C69.5676253 99.63604577 69.52586137 95.1240271 69.5077343 90.61055374 C69.49482024 88.89048325 69.46960047 87.17045887 69.4317646 85.45075607 C69.14601523 71.92241825 69.14601523 71.92241825 71.70788574 68.04830933 C73.46225458 66.55664117 75.18139508 65.50830651 77.171875 64.37109375 C79.16481486 61.60586174 79.16481486 61.60586174 80.546875 58.74609375 C81.02898437 57.82570312 81.51109375 56.9053125 82.0078125 55.95703125 C85.61259082 47.94910088 85.60120767 37.1547408 82.609375 28.93359375 C78.01025162 19.27062722 70.34872879 13.19591813 60.48260498 9.31259155 C56.74300873 8.24913374 53.5597236 8.10324427 49.67285156 8.08056641 C48.94676697 8.07384918 48.22068237 8.06713196 47.47259521 8.06021118 C45.08582605 8.04130358 42.69933928 8.03731039 40.3125 8.03515625 C38.64109179 8.02872221 36.9696847 8.02199341 35.29827881 8.01498413 C31.79810986 8.00302867 28.29803947 7.99930141 24.79785156 8.00048828 C20.33491236 8.00069112 15.8726124 7.97341748 11.40982437 7.93894386 C7.95747027 7.91659215 4.50526784 7.91265329 1.05284882 7.91370773 C-0.59123177 7.91136311 -2.23531726 7.90260446 -3.87932587 7.887043 C-18.70551872 7.75986584 -29.63503046 10.52530581 -40.078125 21.62109375 Z " fill="#272729" transform="translate(525.828125,137.62890625)"/>
<path d="M0 0 C1.05896484 -0.00708984 2.11792969 -0.01417969 3.20898438 -0.02148438 C16.442583 0.08451487 26.34202471 4.02202115 35.6875 13.4375 C46.91145004 27.41038557 45.15565394 44.35135553 45.125 61.3125 C44.15598041 88.66143857 44.15598041 88.66143857 50.5625 114.875 C52.93505297 120.68102663 54.45176839 125.14903597 53.4375 131.4375 C51.4324912 135.2401029 50.01063738 137.05540841 46.4375 139.4375 C43.79458618 139.71165466 43.79458618 139.71165466 40.57666016 139.74389648 C39.37175934 139.75988388 38.16685852 139.77587128 36.92544556 139.79234314 C35.62231415 139.79770584 34.31918274 139.80306854 32.9765625 139.80859375 C31.62519227 139.81756213 30.27382304 139.82668402 28.92245483 139.83595276 C26.08955474 139.85243957 23.25677277 139.8601422 20.42382812 139.86303711 C16.7997278 139.86841939 13.17674298 139.90609158 9.55295753 139.95178127 C6.76132184 139.98157598 3.96995392 139.98876116 1.17817307 139.98976326 C-0.80551255 139.99599812 -2.78908126 140.02546018 -4.77255249 140.05528259 C-14.78551977 140.00503834 -14.78551977 140.00503834 -17.85791016 137.02758789 C-21.25298184 131.86884891 -21.23580519 127.53383934 -20.5625 121.4375 C-19.49558425 118.02575821 -18.24903399 114.76983878 -16.8515625 111.48046875 C-13.08378931 101.03995524 -13.18946352 89.38275864 -13.19189453 78.40429688 C-13.18747528 76.17502867 -13.15085292 73.94767687 -13.11328125 71.71875 C-13.05059953 63.90153736 -13.0873052 56.19652715 -17.5625 49.4375 C-21.90444822 45.59614904 -25.71705406 45.81929545 -31.35546875 45.96484375 C-35.30536759 46.54698475 -37.31916842 47.66133584 -40.1953125 50.34375 C-44.02455596 56.20796284 -45.0184493 61.95703684 -44.9609375 68.78515625 C-44.96380768 69.55951523 -44.96667786 70.33387421 -44.96963501 71.13169861 C-44.971664 72.76285538 -44.96621621 74.39403714 -44.95361328 76.02514648 C-44.93769649 78.46982038 -44.95342087 80.91280205 -44.97265625 83.35742188 C-44.98870448 95.14637389 -44.26654939 106.77340715 -39.375 117.6875 C-37.13996786 122.87658625 -36.49292323 127.85592713 -37.5625 133.4375 C-39.7640974 136.33433868 -41.34844462 137.83047231 -44.5625 139.4375 C-46.47592638 139.54912859 -48.39321666 139.59677172 -50.30981445 139.61450195 C-51.5147908 139.62733719 -52.71976715 139.64017242 -53.96125793 139.65339661 C-55.26955063 139.66078354 -56.57784332 139.66817047 -57.92578125 139.67578125 C-58.92314836 139.68189454 -58.92314836 139.68189454 -59.94066429 139.68813133 C-63.46068384 139.7089908 -66.98066443 139.72329241 -70.50073242 139.73266602 C-74.13250857 139.74372428 -77.76367095 139.7781166 -81.39523029 139.81783772 C-84.19112773 139.84401374 -86.98687922 139.8523587 -89.78288841 139.85594749 C-91.77098188 139.86317295 -93.75897554 139.88960878 -95.74690247 139.91633606 C-96.9613353 139.91341049 -98.17576813 139.91048492 -99.42700195 139.9074707 C-101.02678642 139.91627007 -101.02678642 139.91627007 -102.65888977 139.92524719 C-106.28527215 139.31608905 -107.93639721 137.95931323 -110.5625 135.4375 C-112.95623923 131.33394704 -113.00456699 127.07686032 -112.5625 122.4375 C-111.81908411 119.71968523 -110.76633057 117.19756432 -109.625 114.625 C-109.07382528 113.32698993 -108.5230294 112.0288189 -107.97265625 110.73046875 C-107.50730469 109.64378906 -107.04195312 108.55710937 -106.5625 107.4375 C-105.47451169 104.17353506 -105.41583741 101.74068641 -105.38549805 98.3046875 C-105.37266281 97.03906982 -105.35982758 95.77345215 -105.34660339 94.46948242 C-105.33843111 93.08382562 -105.33098832 91.69816436 -105.32421875 90.3125 C-105.32014322 89.61186432 -105.3160677 88.91122864 -105.31186867 88.18936157 C-105.29101114 84.4743886 -105.27671317 80.75945243 -105.26733398 77.04443359 C-105.25632443 73.23280601 -105.22198824 69.42177109 -105.18216228 65.61035156 C-105.15582387 62.65894599 -105.14762661 59.70767727 -105.14405251 56.75616455 C-105.13922369 55.35292601 -105.1277173 53.94969203 -105.10901451 52.54656982 C-104.98715752 42.79111598 -106.15922766 34.99303844 -110.6726532 26.29907227 C-112.56814113 22.33368434 -112.06376875 17.70756714 -111.5625 13.4375 C-109.38547703 8.9221931 -107.09159491 6.54405577 -102.5625 4.4375 C-96.83871406 2.45255741 -91.68170398 2.11667113 -85.6484375 2.1015625 C-84.2494371 2.0915773 -84.2494371 2.0915773 -82.82217407 2.08139038 C-80.860636 2.07131058 -78.89906395 2.06657191 -76.9375 2.06689453 C-73.93953411 2.06250298 -70.94302024 2.02608398 -67.9453125 1.98828125 C-66.03385917 1.98241575 -64.1223989 1.97844457 -62.2109375 1.9765625 C-61.3181308 1.96219147 -60.4253241 1.94782043 -59.50546265 1.93301392 C-55.39052652 1.96323189 -53.15176126 2.07316089 -49.58447266 4.27880859 C-46.34924867 7.73278716 -45.29896839 9.98615564 -44.9375 14.625 C-44.82535156 15.97658203 -44.82535156 15.97658203 -44.7109375 17.35546875 C-44.66195313 18.04253906 -44.61296875 18.72960937 -44.5625 19.4375 C-43.88445312 18.85742188 -43.20640625 18.27734375 -42.5078125 17.6796875 C-29.40624884 6.68308421 -17.45137837 -0.33047815 0 0 Z " fill="#202021" transform="translate(1226.5625,202.5625)"/>
<path d="M0 0 C0.75784286 -0.01252808 1.51568573 -0.02505615 2.29649353 -0.03796387 C25.81720106 -0.35182784 48.70728891 -0.1219854 66.91796875 17.01171875 C76.07266841 27.32411389 77.20782353 39.17580982 77.234375 52.4140625 C77.25951134 54.72396111 77.28490967 57.03385689 77.31054688 59.34375 C77.33936644 62.94693401 77.36341917 66.55006915 77.38208008 70.15332031 C77.40372327 73.65713944 77.44313079 77.16042732 77.484375 80.6640625 C77.48454872 82.2767099 77.48454872 82.2767099 77.48472595 83.92193604 C77.55667851 89.36121272 77.62436162 93.69320145 80.92578125 98.2734375 C83.24425999 98.9900582 85.57897828 99.65585777 87.92578125 100.2734375 C91.05227726 103.19336145 91.8703671 104.89279961 92.4921875 109.1640625 C92.51939979 110.61693326 92.51701877 112.07059611 92.48828125 113.5234375 C92.48022461 114.27979492 92.47216797 115.03615234 92.46386719 115.81542969 C92.24254235 122.0151917 90.7766 126.34483858 86.92578125 131.2734375 C86.36890625 132.1603125 85.81203125 133.0471875 85.23828125 133.9609375 C77.79150463 141.40771412 68.70927088 144.47938361 58.3503418 144.65405273 C46.03857768 144.62879445 37.76297651 143.75209747 28.71484375 134.76171875 C26.64793876 133.04230652 25.62600997 132.3537417 22.92578125 132.2734375 C20.2937191 133.78057175 20.2937191 133.78057175 17.67578125 135.9609375 C6.90334953 144.13657111 -2.2053941 146.41416571 -15.63671875 146.5234375 C-16.42796143 146.5327832 -17.2192041 146.54212891 -18.03442383 146.55175781 C-31.58723821 146.47873467 -42.01023423 141.95342819 -51.8125 132.58203125 C-60.0096305 124.21501203 -63.00212445 115.91530761 -63.44921875 104.0859375 C-63.01487213 93.31414132 -58.43199974 83.40761928 -50.640625 75.94140625 C-31.13835131 59.94182403 -7.29151452 57.86724153 16.92578125 56.2734375 C16.83834396 53.39705232 16.73140775 50.52359188 16.61328125 47.6484375 C16.59072266 46.84019531 16.56816406 46.03195313 16.54492188 45.19921875 C16.32216254 40.21751008 15.70802046 36.56905623 12.92578125 32.2734375 C9.2514269 29.82386794 6.195306 29.4593699 1.92578125 30.2734375 C-1.74440236 33.43387339 -3.21301858 37.69365151 -5.078125 42.0625 C-8.30628137 49.2277412 -12.77224065 53.62067125 -20.01196289 56.64282227 C-23.84163541 57.81389414 -27.66358827 57.70461688 -31.63671875 57.6484375 C-32.87325195 57.66583984 -32.87325195 57.66583984 -34.13476562 57.68359375 C-40.05584787 57.65519527 -44.3223812 56.70187534 -48.90234375 52.66015625 C-54.27854742 46.23529747 -55.63425017 40.74069622 -55.4375 32.36328125 C-54.41486397 23.66537698 -49.48346117 17.80627313 -42.94140625 12.3125 C-30.43755176 3.42011302 -15.11441782 0.22903395 0 0 Z " fill="#212122" transform="translate(865.07421875,200.7265625)"/>
<path d="M0 0 C1.2953215 -0.00960754 2.59064301 -0.01921509 3.92521667 -0.02911377 C5.34247664 -0.03396319 6.75973865 -0.03824166 8.17700195 -0.04199219 C9.63328553 -0.04774756 11.0895691 -0.05350524 12.54585266 -0.05926514 C15.60153556 -0.06977012 18.65719221 -0.07561539 21.71289062 -0.07910156 C25.61213915 -0.08457106 29.5110358 -0.1085677 33.41017437 -0.13707352 C36.42064902 -0.15578228 39.43104052 -0.16090996 42.44156837 -0.16243744 C43.87796759 -0.16544832 45.3143659 -0.17342351 46.75070763 -0.18662262 C64.01566964 -0.33389143 64.01566964 -0.33389143 69.27006531 4.61322021 C73.39643795 9.37603361 74.0987573 12.50988958 73.9934082 18.63769531 C73.27737648 25.43999667 67.58084116 29.24051025 62.65356445 33.32910156 C60.4419928 35.4330105 59.81021537 37.00303887 59.59356213 40.04681206 C59.58928864 40.76023829 59.58501516 41.47366451 59.58061218 42.20870972 C59.57345688 43.03019501 59.56630157 43.8516803 59.55892944 44.69805908 C59.55624054 45.59579041 59.55355164 46.49352173 59.55078125 47.41845703 C59.54421005 48.36671356 59.53763885 49.31497009 59.53086853 50.29196167 C59.51114033 53.43324867 59.49947528 56.57448792 59.48950195 59.71582031 C59.48542643 60.78801945 59.4813509 61.86021858 59.47715187 62.9649086 C59.4562953 68.63757383 59.44199057 74.31021488 59.43261719 79.98291016 C59.42154083 85.8464683 59.38712539 91.7096482 59.34744549 97.57307243 C59.32132651 102.07863073 59.31292964 106.58409814 59.30933571 111.08972549 C59.30445922 113.25150234 59.29281516 115.41327484 59.27429771 117.57497787 C59.2500023 120.59863232 59.25085366 123.62129777 59.2578125 126.64501953 C59.24500244 127.53870239 59.23219238 128.43238525 59.21899414 129.35314941 C59.25350531 133.4640078 59.40459333 135.62940189 61.58357239 139.21438599 C65.17525248 142.4753022 68.48930003 141.8324835 73.1340332 141.64941406 C82.1552282 140.42370822 91.23875974 137.00109061 96.94628906 129.57592773 C98.09222465 127.86062949 99.16864969 126.11873761 100.2277832 124.34863281 C101.0004771 123.10647253 101.77521227 121.86557966 102.55200195 120.62597656 C102.92244629 120.03155762 103.29289063 119.43713867 103.67456055 118.82470703 C105.06121648 116.6344721 106.51910243 114.50997717 108.0402832 112.41113281 C108.46954102 111.81816406 108.89879883 111.22519531 109.34106445 110.61425781 C112.42849432 107.37897919 115.68463774 106.80899065 120.0402832 106.66113281 C125.10658658 106.76245888 127.76189453 107.77916381 131.29418945 111.38769531 C139.02064504 120.94576299 138.78950768 133.37202619 137.7277832 145.16113281 C137.14111345 148.91262646 136.35578571 152.59276061 135.4777832 156.28613281 C135.27330566 157.14996582 135.06882812 158.01379883 134.8581543 158.90380859 C132.87788307 166.61384418 130.62505529 173.62345381 123.7277832 178.16113281 C121.20694102 179.4215539 119.46623626 179.29545927 116.64376831 179.30830383 C115.02884743 179.31903679 115.02884743 179.31903679 113.38130188 179.32998657 C111.60157234 179.33401993 111.60157234 179.33401993 109.78588867 179.33813477 C107.9174102 179.34799156 107.9174102 179.34799156 106.01118469 179.35804749 C101.87244429 179.37782185 97.73374271 179.38945409 93.5949707 179.39941406 C92.16933294 179.40346181 90.74369538 179.40757874 89.31805801 179.41176414 C82.61715548 179.43082208 75.91626397 179.44504926 69.21533954 179.45337611 C61.48790082 179.46313746 53.7607494 179.48942526 46.03341186 179.52987701 C40.05707272 179.56008488 34.08081568 179.57484958 28.10440171 179.57815713 C24.5370606 179.58050323 20.97002617 179.58940497 17.40276718 179.6146183 C13.4171008 179.64233221 9.4318087 179.63805356 5.44604492 179.63110352 C4.27170395 179.64391357 3.09736298 179.65672363 1.88743591 179.66992188 C-4.96692058 179.62639744 -9.46474573 178.89651065 -15.2722168 175.16113281 C-19.27935646 170.25238672 -19.97123392 166.03980577 -19.72143555 159.74316406 C-18.79845054 154.43800678 -15.09088222 151.79125715 -11.0847168 148.66113281 C-7.50977785 145.48340931 -6.49999893 142.81869999 -6.09015465 138.0369873 C-6.00497394 135.48766938 -5.99056887 132.94624594 -5.99755859 130.39550781 C-5.99244766 129.42891235 -5.98733673 128.46231689 -5.98207092 127.46643066 C-5.96820619 124.28126786 -5.96912913 121.09632215 -5.97143555 117.91113281 C-5.9675474 115.69205648 -5.96321248 113.47298088 -5.95845032 111.25390625 C-5.95099517 106.60707179 -5.95127466 101.96031332 -5.95654297 97.31347656 C-5.96234184 91.36159397 -5.94539288 85.41002213 -5.9221983 79.45819092 C-5.90746187 74.87709742 -5.90658906 70.29607882 -5.90970802 65.71496582 C-5.90919494 63.52054223 -5.90395964 61.32611444 -5.8938961 59.13171387 C-5.8815487 56.06318989 -5.88831309 52.99527221 -5.89990234 49.92675781 C-5.89225861 49.02268188 -5.88461487 48.11860596 -5.8767395 47.18713379 C-5.9192247 42.09330143 -6.43847007 38.57273106 -9.2722168 34.16113281 C-11.38572028 32.21173225 -11.38572028 32.21173225 -13.7722168 30.66113281 C-17.57477951 27.82312259 -19.89141258 25.85586714 -21.2722168 21.16113281 C-21.90500181 16.20431687 -21.81747933 12.38797352 -19.7722168 7.78613281 C-14.37393126 2.117933 -7.68964196 0.04598869 0 0 Z " fill="#212122" transform="translate(518.272216796875,163.8388671875)"/>
<path d="M0 0 C8.25234555 6.01044055 14.53636231 11.92216619 19.01953125 21.19921875 C19.35855469 21.89402344 19.69757813 22.58882812 20.046875 23.3046875 C23.25804907 31.19204133 23.51338198 40.55874628 20.91796875 48.62109375 C16.07195886 59.03871929 9.30695078 63.68980251 -0.98046875 68.19921875 C-4.47939046 69.37689329 -8.01718268 70.27481263 -11.60546875 71.13671875 C-13.06762817 71.50349731 -13.06762817 71.50349731 -14.55932617 71.87768555 C-17.69708165 72.66256171 -20.83854276 73.43122412 -23.98046875 74.19921875 C-27.34171116 75.03234305 -30.70207602 75.86889755 -34.06201172 76.70727539 C-36.18641781 77.23620981 -38.31172413 77.76154395 -40.43798828 78.28295898 C-41.39688965 78.51958252 -42.35579102 78.75620605 -43.34375 79 C-44.19235596 79.20794189 -45.04096191 79.41588379 -45.9152832 79.63012695 C-48.02042037 80.13855797 -48.02042037 80.13855797 -49.98046875 81.19921875 C-49.42870451 85.0615684 -48.04904543 86.82107182 -44.98046875 89.19921875 C-35.3278189 94.19563442 -23.37313955 93.19636689 -13.19140625 90.3984375 C-8.50570826 88.64842621 -4.10851645 86.36386098 0.23779297 83.89257812 C5.08624617 81.24729556 8.49100642 80.69078148 14.01953125 81.19921875 C17.26084908 83.03126796 18.64116499 84.46050367 20.33203125 87.76171875 C22.57047843 98.95395465 19.93635066 106.74162552 14.01953125 116.19921875 C4.60287758 128.78409235 -12.69877888 134.18280535 -27.55322266 136.85791016 C-50.54386161 140.09075196 -73.15051267 135.30763145 -91.9453125 121.60546875 C-107.18796235 109.52120581 -116.62251274 93.58161714 -118.98046875 74.19921875 C-120.28458279 51.85509265 -117.03143272 33.14925839 -102.125 15.53515625 C-91.11691398 3.54456347 -78.75188261 -3.82843013 -62.98046875 -7.80078125 C-61.75457031 -8.1565625 -60.52867187 -8.51234375 -59.265625 -8.87890625 C-40.69493116 -13.4576796 -16.12708065 -10.34964488 0 0 Z " fill="#202021" transform="translate(774.98046875,210.80078125)"/>
<path d="M0 0 C8.20018843 4.59481633 13.40222672 11.09474001 16.67578125 19.82421875 C18.70728763 29.80424039 18.8333525 41.48913176 13.36328125 50.32421875 C8.16454313 57.58174918 2.25990875 62.61091063 -6.63671875 64.32421875 C-17.13598145 65.07769525 -26.30504806 64.60399033 -34.94921875 58.01171875 C-37.97858003 54.98235747 -40.20107476 51.84237118 -42.63671875 48.32421875 C-45.46555622 46.90980001 -47.5104862 47.00521543 -50.63671875 47.32421875 C-53.48013228 50.23307144 -54.01617028 52.36229263 -54.04077148 56.36474609 C-54.05345566 57.36613617 -54.06613983 58.36752625 -54.07920837 59.39926147 C-54.07627274 60.47535675 -54.0733371 61.55145203 -54.0703125 62.66015625 C-54.07555435 63.77226471 -54.0807962 64.88437317 -54.0861969 66.03018188 C-54.09261871 68.38209193 -54.09127808 70.7340341 -54.08276367 73.0859375 C-54.07426664 76.67897008 -54.10299425 80.27040626 -54.13476562 83.86328125 C-54.13637808 86.14973911 -54.13579927 88.43619977 -54.1328125 90.72265625 C-54.14404648 91.79470306 -54.15528046 92.86674988 -54.16685486 93.97128296 C-54.09511035 101.67802182 -52.77125459 104.95124882 -47.53125 110.58984375 C-46.84417969 111.2446875 -46.15710937 111.89953125 -45.44921875 112.57421875 C-40.71810335 117.10344982 -40.71810335 117.10344982 -40.38671875 122.07421875 C-40.45337482 126.16245779 -41.35441285 128.86140981 -43.63671875 132.32421875 C-48.1492947 136.39654338 -50.60094036 137.44783451 -56.61181641 137.5012207 C-57.86717194 137.51405594 -59.12252747 137.52689117 -60.41592407 137.54011536 C-61.79420578 137.54828565 -63.17249196 137.55572883 -64.55078125 137.5625 C-65.24504589 137.56657553 -65.93931053 137.57065105 -66.65461349 137.57485008 C-70.33370415 137.59572005 -74.01275747 137.61001421 -77.69189453 137.61938477 C-81.478064 137.63041402 -85.26364001 137.66476976 -89.0496006 137.70455647 C-91.97172067 137.73081373 -94.89370178 137.7390849 -97.81592941 137.74266624 C-99.21048334 137.74751365 -100.60503184 137.75907471 -101.99946976 137.77770424 C-109.93869752 137.87712505 -115.93217708 137.81633247 -122.63671875 133.32421875 C-126.45354354 128.99980867 -127.38478489 124.5154386 -127.16015625 118.8046875 C-126.39800967 115.19302273 -124.59819703 113.03179971 -122.234375 110.265625 C-117.17510766 104.11781114 -115.53019826 97.47663358 -115.47558594 89.63525391 C-115.46597839 88.51704254 -115.45637085 87.39883118 -115.44647217 86.24673462 C-115.44009735 84.4481752 -115.44009735 84.4481752 -115.43359375 82.61328125 C-115.42789368 81.37178314 -115.4221936 80.13028503 -115.4163208 78.85116577 C-115.40688291 76.2269577 -115.40034163 73.60273784 -115.39648438 70.97851562 C-115.39209108 68.2957607 -115.37816236 65.61332584 -115.35546875 62.93066406 C-115.32498085 59.05393743 -115.3144341 55.17761446 -115.30859375 51.30078125 C-115.29624695 50.1057901 -115.28390015 48.91079895 -115.2711792 47.67959595 C-115.29169672 39.9916539 -115.84746112 33.90761279 -121.26171875 28.01171875 C-124.73725628 24.07887365 -124.98346896 21.74145371 -124.91796875 16.640625 C-124.35172448 11.97697429 -121.61293388 9.2476655 -118.32421875 6.13671875 C-110.44463714 0.82258232 -102.66304936 0.16786447 -93.4765625 0.0859375 C-92.60906876 0.07786575 -91.74157501 0.06979401 -90.84779358 0.06147766 C-89.02151451 0.04770361 -87.19521042 0.03695188 -85.36889648 0.02905273 C-83.50391075 0.01748516 -81.63895932 -0.00304121 -79.77416992 -0.0324707 C-77.07057348 -0.07509015 -74.36795284 -0.09130246 -71.6640625 -0.1015625 C-70.41857887 -0.12782463 -70.41857887 -0.12782463 -69.14793396 -0.15461731 C-65.15712093 -0.13966967 -63.12459156 0.02349218 -59.65112305 2.16455078 C-57.17169531 4.82277618 -56.45621039 7.01880147 -55.51171875 10.51171875 C-54.70758425 13.66588658 -54.70758425 13.66588658 -53.63671875 16.32421875 C-52.15171875 16.81921875 -52.15171875 16.81921875 -50.63671875 17.32421875 C-50.39953125 16.76605469 -50.16234375 16.20789063 -49.91796875 15.6328125 C-40.2829839 -1.72778521 -17.69092301 -7.65085441 0 0 Z " fill="#202021" transform="translate(1089.63671875,204.67578125)"/>
<path d="M0 0 C3.96770893 3.59573622 5.20806559 6.50244985 5.5 11.8125 C5.63139604 15.31639446 5.20265274 16.54365826 3.0625 19.3828125 C-0.8709431 22.50347781 -4.79783012 24.03129928 -9.5 25.6875 C-10.34175781 26.0071875 -11.18351563 26.326875 -12.05078125 26.65625 C-19.63687325 29.40396836 -19.63687325 29.40396836 -24 27.8125 C-26.10926295 21.48471115 -26.18956345 13.46347941 -23.4375 7.3125 C-18.12723028 -1.39044205 -9.50325662 -3.76170575 0 0 Z " fill="#F4F4F3" transform="translate(737,237.1875)"/>
<path d="M0 0 C3.39238074 5.0885711 2.5551695 11.06035521 2 17 C0.6225881 21.17973265 -1.29720652 23.53147101 -5 26 C-8.41578361 26.60210423 -11.58329654 26.59846717 -15 26 C-18.54360594 23.30685948 -19.65844914 21.90160749 -20.43359375 17.5859375 C-20.71544608 11.93180889 -19.9009813 8.31161091 -16 4 C-11.25840004 -0.29001901 -6.21449122 -1.24066282 0 0 Z " fill="#F3F2F1" transform="translate(881,283)"/>
<path d="M0 0 C0.33 0 0.66 0 1 0 C1.07347656 1.72283203 1.07347656 1.72283203 1.1484375 3.48046875 C1.49245733 10.80295066 1.87865099 17.95927577 3.1875 25.1875 C4.05006515 30.16141585 3.94725587 33.34822208 2 38 C1.67 38 1.34 38 1 38 C0.9498877 37.39003174 0.89977539 36.78006348 0.84814453 36.15161133 C0.61514187 33.37116574 0.37018705 30.59189654 0.125 27.8125 C0.04636719 26.85279297 -0.03226563 25.89308594 -0.11328125 24.90429688 C-0.19707031 23.97294922 -0.28085937 23.04160156 -0.3671875 22.08203125 C-0.44050293 21.22843018 -0.51381836 20.3748291 -0.58935547 19.49536133 C-1.03588207 16.7819556 -1.89508377 14.51063705 -3 12 C-2.34 12 -1.68 12 -1 12 C-0.67 8.04 -0.34 4.08 0 0 Z " fill="#BCBBB9" transform="translate(655,267)"/>
<path d="M0 0 C1.09731445 0.01353516 1.09731445 0.01353516 2.21679688 0.02734375 C3.99884298 0.05063847 5.78071759 0.0864981 7.5625 0.125 C6.2425 0.455 4.9225 0.785 3.5625 1.125 C3.5625 1.785 3.5625 2.445 3.5625 3.125 C-3.01599492 4.07994281 -8.85566638 4.0181507 -15.4375 3.125 C-15.4375 2.795 -15.4375 2.465 -15.4375 2.125 C-10.12218311 0.35089949 -5.58131195 -0.1327668 0 0 Z " fill="#323335" transform="translate(733.4375,173.875)"/>
<path d="M0 0 C0.66 0.66 1.32 1.32 2 2 C0.21190303 3.17213045 -1.58059125 4.33755526 -3.375 5.5 C-4.37273438 6.1496875 -5.37046875 6.799375 -6.3984375 7.46875 C-9 9 -9 9 -11 9 C-11 8.34 -11 7.68 -11 7 C-9.21601386 5.71993203 -7.37146094 4.52339649 -5.5 3.375 C-3.96859375 2.42753906 -3.96859375 2.42753906 -2.40625 1.4609375 C-1.6121875 0.97882813 -0.818125 0.49671875 0 0 Z " fill="#313335" transform="translate(795,353)"/>
<path d="M0 0 C0.66 0.33 1.32 0.66 2 1 C0.55746343 4.36591866 -1.33264727 6.51047079 -4 9 C-5.32 8.34 -6.64 7.68 -8 7 C-7.13375 6.6596875 -7.13375 6.6596875 -6.25 6.3125 C-3.4336339 4.66961977 -1.91922886 2.60466773 0 0 Z " fill="#2B2B2D" transform="translate(806,200)"/>
<path d="M0 0 C2.85212766 2.85212766 2.73901015 5.01990482 3 9 C2.52944399 11.45259494 1.82239721 13.62956099 1 16 C0.67 16 0.34 16 0 16 C0 10.72 0 5.44 0 0 Z " fill="#D8D7D3" transform="translate(656,289)"/>
<path d="M0 0 C3.3 0.33 6.6 0.66 10 1 C10 1.33 10 1.66 10 2 C5.545 2.495 5.545 2.495 1 3 C0.67 2.01 0.34 1.02 0 0 Z " fill="#121315" transform="translate(737,175)"/>
</svg>
