<?xml version="1.0" encoding="UTF-8"?>
<svg version="1.1" xmlns="http://www.w3.org/2000/svg" width="2048" height="512">
<path d="M0 0 C675.84 0 1351.68 0 2048 0 C2048 168.96 2048 337.92 2048 512 C1372.16 512 696.32 512 0 512 C0 343.04 0 174.08 0 0 Z " fill="#FBFCFC" transform="translate(0,0)"/>
<path d="M0 0 C1.25672012 -0.00365067 2.51344025 -0.00730133 3.8082428 -0.01106262 C7.22144617 -0.01773244 10.63409473 -0.01112574 14.04724288 0.00226951 C17.63625682 0.01367797 21.22525838 0.00946949 24.81428528 0.00752258 C30.83522236 0.00664289 36.85604614 0.01765442 42.87695312 0.03613281 C49.82132517 0.05732434 56.76553179 0.06080221 63.70992965 0.05457085 C70.4167168 0.04886274 77.12344617 0.05453803 83.83022499 0.0657444 C86.67332346 0.0703683 89.51638634 0.07127391 92.35948753 0.06915855 C96.3321682 0.06691312 100.30469364 0.08143209 104.27734375 0.09765625 C105.44689606 0.09517883 106.61644836 0.09270142 107.82144165 0.09014893 C120.2247375 0.1708466 130.71173246 3.25353546 140.06958008 11.80981445 C147.34744321 19.5978783 152.44359084 29.38842086 155.94458008 39.37231445 C159.97018255 38.95587282 163.96527616 38.53870721 167.95629883 37.8605957 C195.72165222 33.2275604 224.03408759 38.18716173 247.94458008 53.37231445 C250.95325817 55.64470735 253.84694893 57.99290244 256.70239258 60.4543457 C258.99205552 62.49015001 258.99205552 62.49015001 261.94458008 64.37231445 C262.51563477 63.81543945 263.08668945 63.25856445 263.67504883 62.68481445 C282.71382903 44.7659625 305.98495744 36.67039487 331.76953125 36.68603516 C339.41263196 36.65909994 344.68436341 36.36486478 350.44848633 31.03637695 C351.22635498 30.22563721 352.00422363 29.41489746 352.80566406 28.57958984 C355.67331295 25.62029141 358.35812411 24.1958185 362.06958008 22.43481445 C363.1859082 21.88954102 364.30223633 21.34426758 365.45239258 20.7824707 C378.11208915 15.67044558 394.62377846 14.91985824 407.37426758 20.11450195 C419.22463627 25.91361854 427.09749428 32.79669553 431.94458008 45.37231445 C431.94458008 46.36231445 431.94458008 47.35231445 431.94458008 48.37231445 C432.68579102 47.99719727 433.42700195 47.62208008 434.19067383 47.2355957 C446.38601285 41.30958641 459.26809222 36.65394097 472.94458008 36.37231445 C473.929021 36.3278418 473.929021 36.3278418 474.93334961 36.2824707 C495.13882549 35.38663936 512.73338125 39.41193489 530.62426758 48.7746582 C532.98281549 49.66497621 532.98281549 49.66497621 535.05004883 48.2121582 C535.73711914 47.58438477 536.42418945 46.95661133 537.13208008 46.30981445 C540.34670024 43.5209718 542.87967647 41.94429369 546.88208008 40.55981445 C553.79414702 37.38864844 556.30227168 30.29191914 559.52270508 23.81762695 C565.078692 13.00387546 574.32892378 6.41862477 585.52270508 2.09887695 C591.99947725 0.1558453 598.42575804 0.15699485 605.13208008 0.12231445 C606.10983398 0.10168945 607.08758789 0.08106445 608.0949707 0.05981445 C620.26723257 -0.00454648 631.11291155 3.10700187 640.20629883 11.4465332 C647.58353465 19.26013048 650.49913661 26.70394333 650.94458008 37.37231445 C651.60458008 37.37231445 652.26458008 37.37231445 652.94458008 37.37231445 C653.00645508 36.38231445 653.00645508 36.38231445 653.06958008 35.37231445 C655.72202308 26.27822417 663.90314629 20.24427878 671.80395508 15.7434082 C692.86335144 4.85908288 721.77892569 -3.6007475 745.30395508 3.34106445 C754.41650474 6.89981166 762.81072224 14.09452099 766.88208008 23.12231445 C768.72451462 28.75799659 769.04447425 33.47855825 768.94458008 39.37231445 C769.90106445 39.04875977 770.85754883 38.72520508 771.84301758 38.3918457 C788.40287672 33.68837994 806.5149689 38.28809869 821.19848633 46.1965332 C829.165878 50.69914331 836.30751309 56.34227162 840.94458008 64.37231445 C840.94458008 65.03231445 840.94458008 65.69231445 840.94458008 66.37231445 C841.38286133 65.97141602 841.82114258 65.57051758 842.27270508 65.1574707 C844.46628561 63.19127352 846.69683282 61.27641237 848.94458008 59.37231445 C849.78118164 58.66204102 850.6177832 57.95176758 851.47973633 57.2199707 C872.41122939 40.46888835 898.51409298 34.49299086 924.94458008 36.37231445 C939.32732767 38.29159379 952.69356466 43.78550823 965.16723633 51.0168457 C968.02862592 52.66471308 968.02862592 52.66471308 971.94458008 52.37231445 C974.10353843 51.35834457 976.22488074 50.26313469 978.31958008 49.12231445 C985.29386137 45.47335434 992.28678339 43.23268314 999.94458008 41.37231445 C1001.6712793 40.94112305 1001.6712793 40.94112305 1003.43286133 40.5012207 C1020.51055242 36.38445318 1037.273394 34.9519204 1053.58129883 42.6105957 C1056.19589767 43.75101908 1056.19589767 43.75101908 1059.50708008 41.68481445 C1060.5512207 41.1144043 1060.5512207 41.1144043 1061.61645508 40.5324707 C1073.7313883 34.49533116 1090.18441719 34.20514563 1102.94458008 38.43481445 C1119.45880031 44.77414415 1130.45738086 55.51913676 1137.94458008 71.37231445 C1143.50748686 85.22357899 1142.55718872 102.74642386 1136.94458008 116.37231445 C1129.26496842 132.52866202 1117.29594772 141.40102476 1100.69458008 147.42700195 C1096.74642295 148.78418096 1093.79304862 149.49302422 1089.62036133 149.4699707 C1088.59233398 149.46674805 1087.56430664 149.46352539 1086.50512695 149.46020508 C1085.43327148 149.45182617 1084.36141602 149.44344727 1083.25708008 149.43481445 C1081.63189453 149.42804688 1081.63189453 149.42804688 1079.97387695 149.42114258 C1077.29738923 149.40935188 1074.62101231 149.39289509 1071.94458008 149.37231445 C1073.37353055 153.19706552 1074.60099087 155.25490288 1077.69458008 157.93481445 C1085.05973493 164.99141091 1088.9635847 174.2390003 1089.25708008 184.37231445 C1089.13304354 194.59843831 1085.71961167 204.6406233 1078.94458008 212.37231445 C1070.18704029 220.62025602 1060.13154046 224.43269465 1048.22753906 224.56518555 C1046.90854111 224.58124847 1045.58954315 224.5973114 1044.23057556 224.61386108 C1042.80061499 224.6253541 1041.37064707 224.6359617 1039.94067383 224.64575195 C1039.21218798 224.65107563 1038.48370213 224.65639931 1037.73314095 224.66188431 C1033.87321149 224.68853463 1030.01331339 224.70793077 1026.15332031 224.72241211 C1022.98472968 224.7357095 1019.81678943 224.76349482 1016.6484375 224.80444336 C1012.79644211 224.85420239 1008.94503248 224.87858509 1005.09272957 224.88563919 C1003.63808845 224.89228181 1002.18345676 224.90731716 1000.729002 224.93153 C989.47549758 225.10811181 979.0744816 223.64524841 970.00708008 216.43481445 C967.17063764 214.03077424 967.17063764 214.03077424 964.19458008 214.74731445 C962.58583008 215.55168945 962.58583008 215.55168945 960.94458008 216.37231445 C959.23993328 217.1718882 957.53113894 217.96264563 955.81958008 218.74731445 C954.86696289 219.18430664 953.9143457 219.62129883 952.93286133 220.0715332 C928.53642568 230.69115813 899.51451196 230.73313887 874.81958008 221.12231445 C867.66303005 217.94273303 860.80054498 214.14684158 853.94458008 210.37231445 C853.69450195 210.97043945 853.44442383 211.56856445 853.18676758 212.18481445 C849.51973668 218.64247893 841.04664046 221.40487993 834.34387207 223.5539856 C828.34410698 224.99833957 822.41559071 224.92186148 816.27270508 224.8684082 C814.89654463 224.86856369 813.52038377 224.87006089 812.14422607 224.87281799 C809.28336841 224.87419059 806.4230191 224.86183202 803.56225586 224.83886719 C799.91538808 224.81037683 796.26935578 224.81326414 792.62242508 224.8259573 C789.78947943 224.83294316 786.95672357 224.82509408 784.12380219 224.81270027 C782.13204523 224.80606426 780.14026146 224.81030324 778.14849854 224.81480408 C771.28900689 224.7436019 766.22365171 224.09789059 759.94458008 221.37231445 C755.95297498 221.27385718 752.36400188 222.24444158 748.56689453 223.40209961 C742.46443323 224.9309861 736.24132274 224.69738117 729.98754883 224.70825195 C728.63527797 224.71469447 727.28300845 224.72142386 725.93074036 224.72842407 C723.10581231 224.74034473 720.28100607 224.74411032 717.45605469 224.74291992 C713.865348 224.74271704 710.27543546 224.77000964 706.6849165 224.80446434 C703.89391102 224.82688175 701.10309221 224.83075298 698.312006 224.82970047 C696.35411821 224.83315651 694.39628868 224.85472172 692.43852234 224.87680054 C683.34764928 224.83074676 675.09273921 223.5905844 667.63208008 218.05981445 C665.06767455 216.11750889 665.06767455 216.11750889 662.06958008 216.37231445 C659.02565056 217.3463719 656.4314803 218.69937596 653.61645508 220.1887207 C649.96162213 221.80774758 646.21324948 222.93312087 642.38208008 224.05981445 C641.66173584 224.27412109 640.9413916 224.48842773 640.19921875 224.70922852 C617.55462479 231.207986 593.32121154 228.30078854 572.81958008 217.18481445 C566.58184329 213.45199559 561.85105288 208.67877145 556.94458008 203.37231445 C555.61694224 202.03330985 554.28551057 200.6980071 552.94458008 199.37231445 C552.31293945 200.00137695 551.68129883 200.63043945 551.03051758 201.27856445 C529.37408819 221.99883695 502.63131085 228.3558828 473.42114258 227.71606445 C457.60026557 227.07424388 442.92609597 221.6326389 428.94458008 214.37231445 C428.37803711 215.57114258 428.37803711 215.57114258 427.80004883 216.79418945 C416.88898591 238.5652096 397.53013306 250.89586182 374.8659668 258.55200195 C342.01677799 269.03010894 303.06498195 269.68242521 271.50317383 254.7434082 C260.37174157 248.61614473 249.395607 239.78237557 245.2644043 227.32055664 C243.93658487 222.71649818 242.89307084 218.06763827 241.94458008 213.37231445 C241.2871582 213.73583008 240.62973633 214.0993457 239.95239258 214.47387695 C233.73833563 217.75772819 227.53645067 220.38363111 220.88208008 222.62231445 C220.16358887 222.86804199 219.44509766 223.11376953 218.70483398 223.36694336 C207.88773059 226.89801581 197.4762047 227.71347571 186.13208008 227.68481445 C184.8681543 227.70092773 183.60422852 227.71704102 182.30200195 227.73364258 C160.9281242 227.7445867 137.83179093 220.50199053 121.46020508 206.3059082 C120.96004883 205.99782227 120.45989258 205.68973633 119.94458008 205.37231445 C116.55192738 206.50319868 116.00973877 207.31529157 113.88208008 210.05981445 C106.83953839 218.3504015 96.60689645 222.92216754 85.94458008 224.37231445 C83.60463817 224.47061886 81.26237911 224.52028386 78.92041016 224.53344727 C77.90684448 224.54089462 77.90684448 224.54089462 76.87280273 224.54849243 C74.65322827 224.56301005 72.43372533 224.56989949 70.21411133 224.57543945 C69.06799157 224.57968052 69.06799157 224.57968052 67.89871788 224.58400726 C63.85304804 224.59895974 59.80741347 224.60821337 55.76171875 224.61254883 C51.6106359 224.61801958 47.45988335 224.64202921 43.30890369 224.67052078 C40.09243365 224.68926921 36.87604114 224.69435926 33.6595211 224.6958847 C32.13070564 224.69888563 30.60189069 224.70682607 29.07312965 224.72006989 C14.18371401 224.83982627 0.58268486 222.56544184 -10.86791992 212.24731445 C-18.92523428 203.51210105 -22.57589018 191.8544008 -22.30151367 180.16918945 C-21.29881024 168.77338534 -15.5047478 160.46725498 -7.57104492 152.5871582 C-6.05541992 151.37231445 -6.05541992 151.37231445 -4.05541992 151.37231445 C-4.05541992 136.19231445 -4.05541992 121.01231445 -4.05541992 105.37231445 C-6.53041992 105.86731445 -6.53041992 105.86731445 -9.05541992 106.37231445 C-22.32469069 107.63331817 -32.86708327 105.9932455 -43.93041992 98.12231445 C-51.98918884 91.34595361 -57.19850754 81.82665558 -58.2668457 71.28637695 C-59.53710913 50.52508231 -52.8279498 30.68517534 -38.96557617 15.0090332 C-27.57955648 3.11696819 -16.30216155 -0.10710067 0 0 Z " fill="#F7F7F6" transform="translate(354.055419921875,138.627685546875)"/>
<path d="M0 0 C1.25672012 -0.00365067 2.51344025 -0.00730133 3.8082428 -0.01106262 C7.22144617 -0.01773244 10.63409473 -0.01112574 14.04724288 0.00226951 C17.63625682 0.01367797 21.22525838 0.00946949 24.81428528 0.00752258 C30.83522236 0.00664289 36.85604614 0.01765442 42.87695312 0.03613281 C49.82132517 0.05732434 56.76553179 0.06080221 63.70992965 0.05457085 C70.4167168 0.04886274 77.12344617 0.05453803 83.83022499 0.0657444 C86.67332346 0.0703683 89.51638634 0.07127391 92.35948753 0.06915855 C96.3321682 0.06691312 100.30469364 0.08143209 104.27734375 0.09765625 C105.44689606 0.09517883 106.61644836 0.09270142 107.82144165 0.09014893 C120.2247375 0.1708466 130.71173246 3.25353546 140.06958008 11.80981445 C147.34744321 19.5978783 152.44359084 29.38842086 155.94458008 39.37231445 C159.97018255 38.95587282 163.96527616 38.53870721 167.95629883 37.8605957 C195.72165222 33.2275604 224.03408759 38.18716173 247.94458008 53.37231445 C250.95325817 55.64470735 253.84694893 57.99290244 256.70239258 60.4543457 C258.99205552 62.49015001 258.99205552 62.49015001 261.94458008 64.37231445 C262.51563477 63.81543945 263.08668945 63.25856445 263.67504883 62.68481445 C282.71382903 44.7659625 305.98495744 36.67039487 331.76953125 36.68603516 C339.41263196 36.65909994 344.68436341 36.36486478 350.44848633 31.03637695 C351.22635498 30.22563721 352.00422363 29.41489746 352.80566406 28.57958984 C355.67331295 25.62029141 358.35812411 24.1958185 362.06958008 22.43481445 C363.1859082 21.88954102 364.30223633 21.34426758 365.45239258 20.7824707 C378.11208915 15.67044558 394.62377846 14.91985824 407.37426758 20.11450195 C419.22463627 25.91361854 427.09749428 32.79669553 431.94458008 45.37231445 C431.94458008 46.36231445 431.94458008 47.35231445 431.94458008 48.37231445 C432.68579102 47.99719727 433.42700195 47.62208008 434.19067383 47.2355957 C446.38601285 41.30958641 459.26809222 36.65394097 472.94458008 36.37231445 C473.929021 36.3278418 473.929021 36.3278418 474.93334961 36.2824707 C495.13882549 35.38663936 512.73338125 39.41193489 530.62426758 48.7746582 C532.98281549 49.66497621 532.98281549 49.66497621 535.05004883 48.2121582 C535.73711914 47.58438477 536.42418945 46.95661133 537.13208008 46.30981445 C540.34670024 43.5209718 542.87967647 41.94429369 546.88208008 40.55981445 C553.79414702 37.38864844 556.30227168 30.29191914 559.52270508 23.81762695 C565.078692 13.00387546 574.32892378 6.41862477 585.52270508 2.09887695 C591.99947725 0.1558453 598.42575804 0.15699485 605.13208008 0.12231445 C606.10983398 0.10168945 607.08758789 0.08106445 608.0949707 0.05981445 C620.26723257 -0.00454648 631.11291155 3.10700187 640.20629883 11.4465332 C647.58353465 19.26013048 650.49913661 26.70394333 650.94458008 37.37231445 C651.60458008 37.37231445 652.26458008 37.37231445 652.94458008 37.37231445 C653.00645508 36.38231445 653.00645508 36.38231445 653.06958008 35.37231445 C655.72202308 26.27822417 663.90314629 20.24427878 671.80395508 15.7434082 C692.86335144 4.85908288 721.77892569 -3.6007475 745.30395508 3.34106445 C754.41650474 6.89981166 762.81072224 14.09452099 766.88208008 23.12231445 C768.72451462 28.75799659 769.04447425 33.47855825 768.94458008 39.37231445 C769.90106445 39.04875977 770.85754883 38.72520508 771.84301758 38.3918457 C788.40287672 33.68837994 806.5149689 38.28809869 821.19848633 46.1965332 C829.165878 50.69914331 836.30751309 56.34227162 840.94458008 64.37231445 C840.94458008 65.03231445 840.94458008 65.69231445 840.94458008 66.37231445 C841.38286133 65.97141602 841.82114258 65.57051758 842.27270508 65.1574707 C844.46628561 63.19127352 846.69683282 61.27641237 848.94458008 59.37231445 C849.78118164 58.66204102 850.6177832 57.95176758 851.47973633 57.2199707 C872.41122939 40.46888835 898.51409298 34.49299086 924.94458008 36.37231445 C939.32732767 38.29159379 952.69356466 43.78550823 965.16723633 51.0168457 C968.02862592 52.66471308 968.02862592 52.66471308 971.94458008 52.37231445 C974.10353843 51.35834457 976.22488074 50.26313469 978.31958008 49.12231445 C985.29386137 45.47335434 992.28678339 43.23268314 999.94458008 41.37231445 C1001.6712793 40.94112305 1001.6712793 40.94112305 1003.43286133 40.5012207 C1020.51055242 36.38445318 1037.273394 34.9519204 1053.58129883 42.6105957 C1056.19589767 43.75101908 1056.19589767 43.75101908 1059.50708008 41.68481445 C1060.5512207 41.1144043 1060.5512207 41.1144043 1061.61645508 40.5324707 C1073.7313883 34.49533116 1090.18441719 34.20514563 1102.94458008 38.43481445 C1119.45880031 44.77414415 1130.45738086 55.51913676 1137.94458008 71.37231445 C1143.50748686 85.22357899 1142.55718872 102.74642386 1136.94458008 116.37231445 C1129.26496842 132.52866202 1117.29594772 141.40102476 1100.69458008 147.42700195 C1096.74642295 148.78418096 1093.79304862 149.49302422 1089.62036133 149.4699707 C1088.59233398 149.46674805 1087.56430664 149.46352539 1086.50512695 149.46020508 C1085.43327148 149.45182617 1084.36141602 149.44344727 1083.25708008 149.43481445 C1081.63189453 149.42804688 1081.63189453 149.42804688 1079.97387695 149.42114258 C1077.29738923 149.40935188 1074.62101231 149.39289509 1071.94458008 149.37231445 C1073.37353055 153.19706552 1074.60099087 155.25490288 1077.69458008 157.93481445 C1085.05973493 164.99141091 1088.9635847 174.2390003 1089.25708008 184.37231445 C1089.13304354 194.59843831 1085.71961167 204.6406233 1078.94458008 212.37231445 C1070.18704029 220.62025602 1060.13154046 224.43269465 1048.22753906 224.56518555 C1046.90854111 224.58124847 1045.58954315 224.5973114 1044.23057556 224.61386108 C1042.80061499 224.6253541 1041.37064707 224.6359617 1039.94067383 224.64575195 C1039.21218798 224.65107563 1038.48370213 224.65639931 1037.73314095 224.66188431 C1033.87321149 224.68853463 1030.01331339 224.70793077 1026.15332031 224.72241211 C1022.98472968 224.7357095 1019.81678943 224.76349482 1016.6484375 224.80444336 C1012.79644211 224.85420239 1008.94503248 224.87858509 1005.09272957 224.88563919 C1003.63808845 224.89228181 1002.18345676 224.90731716 1000.729002 224.93153 C989.47549758 225.10811181 979.0744816 223.64524841 970.00708008 216.43481445 C967.17063764 214.03077424 967.17063764 214.03077424 964.19458008 214.74731445 C962.58583008 215.55168945 962.58583008 215.55168945 960.94458008 216.37231445 C959.23993328 217.1718882 957.53113894 217.96264563 955.81958008 218.74731445 C954.86696289 219.18430664 953.9143457 219.62129883 952.93286133 220.0715332 C928.53642568 230.69115813 899.51451196 230.73313887 874.81958008 221.12231445 C867.66303005 217.94273303 860.80054498 214.14684158 853.94458008 210.37231445 C853.69450195 210.97043945 853.44442383 211.56856445 853.18676758 212.18481445 C849.51973668 218.64247893 841.04664046 221.40487993 834.34387207 223.5539856 C828.34410698 224.99833957 822.41559071 224.92186148 816.27270508 224.8684082 C814.89654463 224.86856369 813.52038377 224.87006089 812.14422607 224.87281799 C809.28336841 224.87419059 806.4230191 224.86183202 803.56225586 224.83886719 C799.91538808 224.81037683 796.26935578 224.81326414 792.62242508 224.8259573 C789.78947943 224.83294316 786.95672357 224.82509408 784.12380219 224.81270027 C782.13204523 224.80606426 780.14026146 224.81030324 778.14849854 224.81480408 C771.28900689 224.7436019 766.22365171 224.09789059 759.94458008 221.37231445 C755.95297498 221.27385718 752.36400188 222.24444158 748.56689453 223.40209961 C742.46443323 224.9309861 736.24132274 224.69738117 729.98754883 224.70825195 C728.63527797 224.71469447 727.28300845 224.72142386 725.93074036 224.72842407 C723.10581231 224.74034473 720.28100607 224.74411032 717.45605469 224.74291992 C713.865348 224.74271704 710.27543546 224.77000964 706.6849165 224.80446434 C703.89391102 224.82688175 701.10309221 224.83075298 698.312006 224.82970047 C696.35411821 224.83315651 694.39628868 224.85472172 692.43852234 224.87680054 C683.34764928 224.83074676 675.09273921 223.5905844 667.63208008 218.05981445 C665.06767455 216.11750889 665.06767455 216.11750889 662.06958008 216.37231445 C659.02565056 217.3463719 656.4314803 218.69937596 653.61645508 220.1887207 C649.96162213 221.80774758 646.21324948 222.93312087 642.38208008 224.05981445 C641.66173584 224.27412109 640.9413916 224.48842773 640.19921875 224.70922852 C617.55462479 231.207986 593.32121154 228.30078854 572.81958008 217.18481445 C566.58184329 213.45199559 561.85105288 208.67877145 556.94458008 203.37231445 C555.61694224 202.03330985 554.28551057 200.6980071 552.94458008 199.37231445 C552.31293945 200.00137695 551.68129883 200.63043945 551.03051758 201.27856445 C529.37408819 221.99883695 502.63131085 228.3558828 473.42114258 227.71606445 C457.60026557 227.07424388 442.92609597 221.6326389 428.94458008 214.37231445 C428.37803711 215.57114258 428.37803711 215.57114258 427.80004883 216.79418945 C416.88898591 238.5652096 397.53013306 250.89586182 374.8659668 258.55200195 C342.01677799 269.03010894 303.06498195 269.68242521 271.50317383 254.7434082 C260.37174157 248.61614473 249.395607 239.78237557 245.2644043 227.32055664 C243.93658487 222.71649818 242.89307084 218.06763827 241.94458008 213.37231445 C241.2871582 213.73583008 240.62973633 214.0993457 239.95239258 214.47387695 C233.73833563 217.75772819 227.53645067 220.38363111 220.88208008 222.62231445 C220.16358887 222.86804199 219.44509766 223.11376953 218.70483398 223.36694336 C207.88773059 226.89801581 197.4762047 227.71347571 186.13208008 227.68481445 C184.8681543 227.70092773 183.60422852 227.71704102 182.30200195 227.73364258 C160.9281242 227.7445867 137.83179093 220.50199053 121.46020508 206.3059082 C120.96004883 205.99782227 120.45989258 205.68973633 119.94458008 205.37231445 C116.55192738 206.50319868 116.00973877 207.31529157 113.88208008 210.05981445 C106.83953839 218.3504015 96.60689645 222.92216754 85.94458008 224.37231445 C83.60463817 224.47061886 81.26237911 224.52028386 78.92041016 224.53344727 C77.90684448 224.54089462 77.90684448 224.54089462 76.87280273 224.54849243 C74.65322827 224.56301005 72.43372533 224.56989949 70.21411133 224.57543945 C69.06799157 224.57968052 69.06799157 224.57968052 67.89871788 224.58400726 C63.85304804 224.59895974 59.80741347 224.60821337 55.76171875 224.61254883 C51.6106359 224.61801958 47.45988335 224.64202921 43.30890369 224.67052078 C40.09243365 224.68926921 36.87604114 224.69435926 33.6595211 224.6958847 C32.13070564 224.69888563 30.60189069 224.70682607 29.07312965 224.72006989 C14.18371401 224.83982627 0.58268486 222.56544184 -10.86791992 212.24731445 C-18.92523428 203.51210105 -22.57589018 191.8544008 -22.30151367 180.16918945 C-21.29881024 168.77338534 -15.5047478 160.46725498 -7.57104492 152.5871582 C-6.05541992 151.37231445 -6.05541992 151.37231445 -4.05541992 151.37231445 C-4.05541992 136.19231445 -4.05541992 121.01231445 -4.05541992 105.37231445 C-6.53041992 105.86731445 -6.53041992 105.86731445 -9.05541992 106.37231445 C-22.32469069 107.63331817 -32.86708327 105.9932455 -43.93041992 98.12231445 C-51.98918884 91.34595361 -57.19850754 81.82665558 -58.2668457 71.28637695 C-59.53710913 50.52508231 -52.8279498 30.68517534 -38.96557617 15.0090332 C-27.57955648 3.11696819 -16.30216155 -0.10710067 0 0 Z M96.93086243 7.37663269 C83.23643033 7.39283035 69.54223491 7.43536694 55.84797382 7.50440502 C48.84099592 7.53910779 41.83421725 7.56442458 34.82714844 7.56787109 C28.01681773 7.57124655 21.20699081 7.60061399 14.39681053 7.64574623 C11.81218497 7.65868905 9.22750099 7.6630404 6.64284706 7.65846825 C3.02714976 7.65355579 -0.58711579 7.67967797 -4.20263672 7.71289062 C-5.25899826 7.70426498 -6.3153598 7.69563934 -7.4037323 7.68675232 C-17.12580674 7.83593865 -24.94722719 11.48383457 -32.05151367 18.11450195 C-45.92196984 33.74242333 -50.97614283 51.42954008 -50.23022461 71.95336914 C-49.68950882 79.43578814 -46.24260764 85.16206381 -41.18432617 90.5480957 C-31.99374865 98.42332451 -22.77577324 99.96877009 -11.05541992 99.37231445 C-5.4377619 98.62101672 -1.11359572 96.93844912 3.94458008 94.37231445 C3.90652083 101.99614876 3.8471562 109.61956537 3.76067734 117.24300003 C3.72118753 120.7830311 3.68900691 124.32281289 3.67358398 127.86303711 C3.65552636 131.93424389 3.60558283 136.004519 3.55395508 140.07543945 C3.55211212 141.98030121 3.55211212 141.98030121 3.55023193 143.92364502 C3.53051331 145.10456726 3.51079468 146.2854895 3.49047852 147.50219727 C3.47715485 149.06106659 3.47715485 149.06106659 3.46356201 150.65142822 C2.54457828 155.46941902 -1.40607609 157.68573309 -5.05541992 160.62231445 C-10.89352686 165.67765845 -13.6401941 171.76923959 -14.32885742 179.40356445 C-14.62530811 189.52849562 -12.96665986 198.36264955 -6.11791992 206.18481445 C2.39558077 213.81696155 13.1109284 217.44847627 24.37036133 217.54931641 C26.25392334 217.56856926 26.25392334 217.56856926 28.17553711 217.58821106 C29.53604734 217.59638428 30.89656213 217.60382689 32.25708008 217.6105957 C32.95122009 217.61467123 33.64536011 217.61874676 34.36053467 217.62294579 C38.04007663 217.64374654 41.71958205 217.65806987 45.39916992 217.66748047 C49.15997411 217.67848849 52.92017745 217.71283951 56.68077087 217.75265217 C59.60655656 217.77907033 62.53220497 217.78719465 65.45809937 217.79076195 C66.84211247 217.79556901 68.22612198 217.80700997 69.61001587 217.82579994 C83.94076258 218.00817255 97.32771111 215.65192828 107.94067383 205.4543457 C111.7190187 201.3932141 114.0956093 197.59293782 115.94458008 192.37231445 C119.36472494 194.30208369 122.12093232 196.3409505 124.94458008 199.05981445 C134.96130746 208.05341647 146.24566455 213.38713684 158.94458008 217.37231445 C160.02868164 217.71391602 161.1127832 218.05551758 162.22973633 218.4074707 C187.16458169 224.92143395 215.72360251 220.15193756 237.80200195 207.2902832 C243.14408723 204.01475711 248.08371355 200.31685965 252.94458008 196.37231445 C252.44958008 197.46543945 251.95458008 198.55856445 251.44458008 199.68481445 C247.8789936 209.4091412 250.04126306 219.05510881 253.94458008 228.37231445 C255.66110565 231.35521048 257.63148395 233.83355041 259.94458008 236.37231445 C260.4112207 236.95239258 260.87786133 237.5324707 261.35864258 238.13012695 C269.84771421 247.83814221 283.69153797 252.76418536 295.94458008 255.37231445 C296.75749512 255.54746582 297.57041016 255.72261719 298.40795898 255.90307617 C307.57502755 257.67149535 316.64387541 257.77154479 325.94458008 257.74731445 C326.76539063 257.74643829 327.58620117 257.74556213 328.43188477 257.74465942 C341.01493749 257.70035506 352.82428949 257.00325501 364.94458008 253.37231445 C365.80921875 253.12562012 366.67385742 252.87892578 367.56469727 252.62475586 C387.28119124 246.91587412 407.03969954 237.82145197 417.94458008 219.37231445 C420.8866951 213.76139564 423.08401888 208.68309658 423.94458008 202.37231445 C424.4217749 202.64906006 424.89896973 202.92580566 425.390625 203.2109375 C450.43371664 217.65136176 475.31432816 224.60296582 504.13208008 218.4152832 C521.76391841 213.59181923 540.15477266 204.6604964 550.94458008 189.37231445 C552.40590894 186.09249012 552.40590894 186.09249012 552.94458008 183.37231445 C553.60458008 183.37231445 554.26458008 183.37231445 554.94458008 183.37231445 C555.34483398 184.69102539 555.34483398 184.69102539 555.75317383 186.03637695 C560.78166155 200.11614257 571.89891942 208.95534779 584.94458008 215.37231445 C603.01026917 222.59859009 625.58580196 223.31239466 643.94458008 216.37231445 C648.2587258 214.51542301 652.42571976 212.41348852 656.55395508 210.17700195 C659.32241337 208.7034677 662.00925261 207.45905783 664.94458008 206.37231445 C665.34547852 206.7590332 665.74637695 207.14575195 666.15942383 207.54418945 C673.55060815 214.31525174 681.46707462 217.46164874 691.49414062 217.53344727 C692.58264816 217.54305481 693.6711557 217.55266235 694.79264832 217.56256104 C695.96040298 217.56681091 697.12815765 217.57106079 698.33129883 217.57543945 C699.54348587 217.58113953 700.75567291 217.5868396 702.0045929 217.5927124 C704.56913381 217.60215166 707.1336868 217.60869211 709.69824219 217.61254883 C713.60023463 217.6222354 717.50169597 217.65326229 721.40356445 217.68481445 C723.90030613 217.69134694 726.39705156 217.69659644 728.89379883 217.70043945 C730.05143234 217.71278625 731.20906586 217.72513306 732.40177917 217.737854 C740.16484493 217.71675612 747.13052902 216.84623245 754.10844421 213.26031494 C755.94458008 212.37231445 755.94458008 212.37231445 757.75708008 212.55981445 C759.65749083 213.2656813 761.5240106 214.0615205 763.38208008 214.87231445 C768.19245872 216.89773704 772.34385153 217.49576419 777.53833008 217.56518555 C778.63717529 217.58124847 779.73602051 217.5973114 780.86816406 217.61386108 C785.89899839 217.65872099 790.92970521 217.6993998 795.96069336 217.72241211 C798.60238483 217.7389247 801.2440325 217.76615176 803.88549805 217.80444336 C807.71792505 217.85963799 811.54930734 217.88115526 815.38208008 217.89575195 C817.12811523 217.92975601 817.12811523 217.92975601 818.90942383 217.96444702 C830.09417669 217.93608832 840.18553358 214.98002429 848.35473633 207.0871582 C850.34775207 204.93744344 852.21997685 202.74364389 853.94458008 200.37231445 C854.48083008 200.78481445 855.01708008 201.19731445 855.56958008 201.62231445 C876.32991788 216.91940547 900.7523344 223.51325171 926.41723633 219.8059082 C930.30192544 219.15164004 934.11752435 218.3051048 937.94458008 217.37231445 C938.74637695 217.17895508 939.54817383 216.9855957 940.37426758 216.78637695 C947.02376667 214.85425835 953.14045364 211.36894893 959.27270508 208.2121582 C962.10831996 206.76308629 964.95859914 205.48916391 967.94458008 204.37231445 C968.76249023 205.16895508 968.76249023 205.16895508 969.59692383 205.98168945 C977.90053581 213.76011572 985.56323605 217.42528866 996.99731445 217.56518555 C998.79573792 217.58927994 998.79573792 217.58927994 1000.63049316 217.61386108 C1006.11929935 217.65865384 1011.60797788 217.6998222 1017.09692383 217.72241211 C1019.98136522 217.73569252 1022.86508926 217.7634423 1025.74926758 217.80444336 C1029.256475 217.85427735 1032.76303793 217.87859439 1036.27058411 217.88563919 C1038.22957251 217.89545747 1040.18839207 217.92957752 1042.14709473 217.96444702 C1053.22701335 217.93865136 1063.5962703 215.19449971 1072.29614258 208.03637695 C1078.91570187 201.35407303 1081.01214819 193.74010529 1081.31958008 184.49731445 C1081.13232641 174.09922868 1077.32032202 167.53337784 1069.94458008 160.37231445 C1069.06286133 159.82704102 1068.18114258 159.28176758 1067.27270508 158.7199707 C1063.7940952 155.21217785 1064.16559199 151.88845337 1064.13208008 147.12231445 C1064.10694336 146.2818457 1064.08180664 145.44137695 1064.0559082 144.57543945 C1063.99718072 142.50823217 1063.96798234 140.44022335 1063.94458008 138.37231445 C1064.49243164 138.66106445 1065.0402832 138.94981445 1065.60473633 139.24731445 C1076.92568513 144.54883194 1088.65273754 143.18859335 1100.36645508 139.6965332 C1113.69483897 134.76386711 1123.81489511 126.26454273 1129.94458008 113.37231445 C1132.77924513 106.68132382 1133.40981153 100.65834362 1133.31958008 93.43481445 C1133.33118164 92.50991211 1133.3427832 91.58500977 1133.35473633 90.63208008 C1133.29923735 77.43257202 1128.19111385 65.82899672 1118.94458008 56.37231445 C1105.00704086 45.20756033 1091.42511493 43.00526064 1073.94458008 44.37231445 C1068.05912537 45.56173095 1063.03953589 47.60702722 1057.94458008 50.74731445 C1056.45958008 51.55168945 1056.45958008 51.55168945 1054.94458008 52.37231445 C1052.99145508 51.59887695 1052.99145508 51.59887695 1050.94458008 50.37231445 C1037.67506784 43.23577005 1025.68356056 43.32125905 1011.13208008 46.55981445 C1010.09035645 46.78612549 1009.04863281 47.01243652 1007.9753418 47.24560547 C987.68705514 51.70543622 987.68705514 51.70543622 970.94458008 63.37231445 C967.84309498 61.95427603 965.09442258 60.16137585 962.27636719 58.24975586 C947.5114302 48.31953606 931.48730384 43.77366015 913.69458008 43.93481445 C912.52016357 43.9416626 911.34574707 43.94851074 910.13574219 43.95556641 C885.1152373 44.41442174 865.14359077 54.66542695 846.94458008 71.37231445 C844.78754609 73.63485554 842.86533944 75.9027667 840.94458008 78.37231445 C840.45989258 77.61047852 839.97520508 76.84864258 839.47583008 76.0637207 C829.10629375 60.09064647 818.05723252 49.81770142 798.94458008 45.37231445 C785.71237973 42.77468883 772.90198018 44.0946794 760.94458008 50.37231445 C760.96552734 49.77805664 760.98647461 49.18379883 761.00805664 48.5715332 C761.09199862 45.8386374 761.14348289 43.10601388 761.19458008 40.37231445 C761.2280957 39.43774414 761.26161133 38.50317383 761.29614258 37.5402832 C761.38566474 31.13944871 760.37624608 26.78350647 756.94458008 21.37231445 C756.10926758 20.04200195 756.10926758 20.04200195 755.25708008 18.68481445 C747.64762121 11.07535559 737.74009108 8.96015664 727.31958008 8.93481445 C706.6237834 8.94578105 680.60220565 15.32649787 665.06958008 29.74731445 C660.75495922 34.33668712 658.46058726 39.30828571 656.94458008 45.37231445 C652.32458008 45.37231445 647.70458008 45.37231445 642.94458008 45.37231445 C643.09926758 41.96918945 643.09926758 41.96918945 643.25708008 38.49731445 C643.36983687 30.08874951 641.50727236 24.47762119 635.99536133 18.1262207 C630.659927 12.9057329 625.07595996 10.36011641 617.94458008 8.37231445 C617.34258789 8.18024414 616.7405957 7.98817383 616.12036133 7.7902832 C602.98735348 5.26742532 588.35807371 7.30732821 577.17895508 14.67700195 C569.89715673 20.2020028 566.14046074 27.28694474 562.22753906 35.38134766 C558.64283432 42.61361806 554.34426601 45.34683301 547.00708008 48.68481445 C541.27176658 51.39435853 537.57732636 54.13688598 533.94458008 59.37231445 C530.50103641 58.09759917 527.62108809 56.58879961 524.56958008 54.55981445 C505.63104553 42.99882844 479.29469352 40.99721786 458.01098633 45.75927734 C447.154294 48.63250188 435.7410383 53.27341834 426.94458008 60.37231445 C426.84661133 59.69426758 426.74864258 59.0162207 426.64770508 58.31762695 C424.84196751 47.07846726 422.10669585 38.63127015 412.94458008 31.37231445 C402.87354946 24.51142485 389.70000075 23.02012593 377.90942383 24.84106445 C365.94005904 27.43571385 355.80597307 33.08022496 348.94458008 43.37231445 C346.23339844 43.74121094 346.23339844 43.74121094 342.78442383 43.7434082 C340.89312744 43.76516113 340.89312744 43.76516113 338.96362305 43.78735352 C337.96319977 43.79176453 337.96319977 43.79176453 336.94256592 43.79626465 C310.77660675 43.96833263 287.83434008 50.33902343 268.44067383 68.8215332 C264.4427337 72.50249404 264.4427337 72.50249404 262.94458008 77.37231445 C262.28458008 77.37231445 261.62458008 77.37231445 260.94458008 77.37231445 C260.70610352 76.81157227 260.46762695 76.25083008 260.22192383 75.6730957 C255.41960507 67.02304754 246.35548246 61.10344704 237.94458008 56.37231445 C237.07833008 55.86055664 236.21208008 55.34879883 235.31958008 54.8215332 C214.26029406 43.24490864 186.66550783 40.04806479 163.31958008 46.24731445 C161.17942864 46.90845963 159.05112394 47.61084609 156.94458008 48.37231445 C154.94458008 49.03898112 152.94458008 49.70564779 150.94458008 50.37231445 C150.77958008 49.21731445 150.61458008 48.06231445 150.44458008 46.87231445 C147.28469086 33.03417892 138.97583489 19.84913398 127.41723633 11.55981445 C121.64273228 8.1777422 116.58214444 7.23504966 109.8971405 7.30903625 C108.74927252 7.31808298 107.60140453 7.32712971 106.41875267 7.33645058 C103.2557591 7.36910215 100.09399211 7.37800779 96.93086243 7.37663269 Z " fill="#232324" transform="translate(354.055419921875,138.627685546875)"/>
<path d="M0 0 C4.76083403 4.99887573 5.36622346 8.44639332 5.26953125 15.1796875 C4.78290672 20.2716137 2.92786703 23.26491967 -0.8359375 26.65234375 C-4.64721116 29.63857158 -8.57357485 32.00810868 -13 34 C-12.41827681 37.48421573 -11.46993941 40.26826152 -9.9375 43.4375 C-6.47856146 51.85215413 -6.61692983 62.51010485 -10 71 C-16.61948044 86.27414276 -25.58142354 94.4301655 -40.9921875 100.93359375 C-56.75540881 106.52237222 -73.52992928 105.31363904 -90 105 C-89.59740897 109.46710864 -89.59740897 109.46710864 -86.953125 112.85546875 C-83.17187179 114.32095445 -79.74196935 114.40492849 -75.75 114.3125 C-74.55201782 114.29993164 -74.55201782 114.29993164 -73.32983398 114.28710938 C-68.16708989 114.18522987 -63.17514057 113.70712143 -58.0625 113 C-50.40258065 111.94851125 -42.78962704 111.7418024 -35.0625 111.6875 C-33.92498291 111.67009766 -32.78746582 111.65269531 -31.61547852 111.63476562 C-20.78959074 111.64111465 -11.28745123 113.67915398 -3 121 C4.80032072 130.32029756 5.61350597 139.12610325 5 151 C3.50703521 162.81308389 -3.68256999 171.89537174 -12.7265625 179.203125 C-37.1297779 196.43666256 -70.91451275 199.22221193 -99.7109375 194.625 C-113.12188184 192.07660203 -125.63043335 188.43054716 -134.3828125 177.23046875 C-137.94192972 171.3193475 -137.84725283 164.690677 -137 158 C-134.60289445 152.63048356 -130.79736174 150.13673652 -126 147 C-126.56751179 143.47222401 -127.70852371 142.06769669 -130.375 139.75 C-135.59154051 134.69413322 -137.09729891 129.80527768 -137.5625 122.625 C-137.33361689 115.45001196 -134.21390185 110.02259817 -129.03125 105.1484375 C-125.28636402 102.22454576 -121.33906034 99.95257715 -117 98 C-117.54953331 94.32051608 -118.76704598 93.08898228 -121.6875 90.875 C-129.31824066 84.49093331 -133.39687063 76.11382714 -134.37109375 66.23828125 C-134.59446087 53.03334283 -131.32753507 42.76561891 -122 33 C-107.49292898 19.10698489 -88.58505704 14.82736866 -69.0625 14.8125 C-68.22009766 14.80025391 -67.37769531 14.78800781 -66.50976562 14.77539062 C-61.42976809 14.76365853 -56.90798786 15.33160218 -51.98217773 16.5612793 C-49.62109533 17.08386398 -47.40972154 17.15546591 -45 17 C-44.5978125 15.80503906 -44.5978125 15.80503906 -44.1875 14.5859375 C-41.04881592 6.09910094 -37.98860266 2.01742335 -29.9765625 -2.01953125 C-20.58863924 -5.84100931 -8.51293768 -5.83154982 0 0 Z " fill="#1E1E1E" transform="translate(758,184)"/>
<path d="M0 0 C2.69295378 2.9554536 3.38011741 4.88892351 3.43237305 8.86035156 C3.45216721 9.82104553 3.47196136 10.7817395 3.49235535 11.77154541 C3.49874527 12.80084167 3.50513519 13.83013794 3.51171875 14.890625 C3.52966995 15.95037537 3.54762115 17.01012573 3.56611633 18.10198975 C3.6202702 21.48461944 3.65413199 24.8671076 3.6875 28.25 C3.72066852 30.54429055 3.75515773 32.83856241 3.79101562 35.1328125 C3.87599955 40.75508143 3.94432802 46.37736856 4 52 C7.19586224 50.48308142 9.24908661 48.88591704 11.75 46.375 C23.40849073 35.72859861 36.61847637 32.39648317 52 33 C61.2362299 33.94058435 71.28444161 39.1030918 77.47265625 45.95703125 C85.86951567 57.18863605 87.2847984 67.92411858 87.30859375 81.58203125 C87.32731942 83.55464589 87.34606235 85.52726053 87.36577702 87.49986553 C87.41077119 92.31793043 87.4346778 97.13612789 87.45629883 101.9543457 C87.46920697 104.6696954 87.4900164 107.38479155 87.51856995 110.10002136 C87.5445173 112.6410317 87.55870392 115.18220009 87.5589447 117.7233429 C87.67764605 128.14661187 89.07692329 137.70924079 94.6875 146.625 C97.86058332 152.23839951 99.43849481 156.59637794 98 163 C95.96188 167.48386399 93.81866731 169.55378571 89.25784302 171.39334106 C84.37541483 172.70519874 79.29860462 172.44619277 74.27734375 172.43359375 C73.05849991 172.4388356 71.83965607 172.44407745 70.58387756 172.44947815 C68.01450358 172.4558849 65.44510022 172.45457889 62.87573242 172.44604492 C58.94722367 172.4375211 55.02016269 172.46634074 51.09179688 172.49804688 C48.59114627 172.49965869 46.09049309 172.49908173 43.58984375 172.49609375 C42.4178392 172.50732773 41.24583466 172.51856171 40.03831482 172.53013611 C33.7519577 172.47643317 29.71722322 172.34162452 25 168 C22.02791966 163.54187949 21.64725831 160.2856137 22 155 C23.30112566 151.32575208 24.88453719 147.85394447 26.4921875 144.3046875 C30.67283677 133.53448892 30.37281394 121.60693337 30.37060547 110.22338867 C30.37502399 107.67365847 30.4116086 105.12560294 30.44921875 102.57617188 C30.4550812 100.9296933 30.45905442 99.28320668 30.4609375 97.63671875 C30.47530853 96.88758713 30.48967957 96.13845551 30.50448608 95.36662292 C30.46172734 90.37571233 29.33949907 86.97584889 26.85879517 82.64167786 C26 81 26 81 26 79 C21.26405242 76.47416129 16.23406225 76.14774315 11 77 C7.58303235 79.56272574 5.63959922 82.10097289 4 86 C3.68721045 88.28303259 3.68721045 88.28303259 3.70947266 90.73339844 C3.69671295 91.66827087 3.68395325 92.60314331 3.67080688 93.56634521 C3.66858124 94.57054504 3.66635559 95.57474487 3.6640625 96.609375 C3.6574057 97.65015198 3.6507489 98.69092896 3.64389038 99.76324463 C3.63376854 101.96551752 3.62907322 104.16782106 3.62939453 106.37011719 C3.62503403 109.72382848 3.58874328 113.07621009 3.55078125 116.4296875 C3.54491033 118.57291219 3.54094278 120.7161431 3.5390625 122.859375 C3.52469147 123.85547791 3.51032043 124.85158081 3.49551392 125.87786865 C3.5572273 135.38051745 6.85182111 141.02098612 13 148 C14.84746521 151.69493043 14.3419438 155.95884604 14 160 C12.08075349 165.45470062 9.06660792 168.15561072 4.18731689 171.09022522 C1.48625677 172.21368218 -0.63546522 172.27463626 -3.55957031 172.30639648 C-4.67462952 172.32238388 -5.78968872 172.33837128 -6.9385376 172.35484314 C-8.74013336 172.36288719 -8.74013336 172.36288719 -10.578125 172.37109375 C-11.81866638 172.38012222 -13.05920776 172.3891507 -14.33734131 172.39845276 C-16.96331365 172.41296312 -19.5893222 172.42184393 -22.21533203 172.42553711 C-24.89835127 172.42984216 -27.58040973 172.45067092 -30.26318359 172.48706055 C-34.1392941 172.53595917 -38.01423764 172.55133113 -41.890625 172.55859375 C-43.08359192 172.57812607 -44.27655884 172.59765839 -45.50567627 172.61778259 C-52.59365641 172.5795809 -57.58852526 171.80393966 -63 167 C-66.50537865 162.59903559 -66.72997113 158.61726682 -66.62890625 153.1328125 C-65.69154593 148.46347723 -63.21091418 145.80260542 -59.9453125 142.44921875 C-55.64527391 137.03531474 -55.7020333 130.66232341 -55.70947266 124.03881836 C-55.70275543 123.16961258 -55.69603821 122.3004068 -55.68911743 121.40486145 C-55.67021702 118.54979645 -55.66621793 115.6949673 -55.6640625 112.83984375 C-55.65763138 110.84639898 -55.65090279 108.85295514 -55.64389038 106.85951233 C-55.63193924 102.68944102 -55.62820757 98.51945245 -55.62939453 94.34936523 C-55.62959813 89.01060218 -55.60224355 83.67236897 -55.56785011 78.33373165 C-55.54560228 74.2201545 -55.54155627 70.10670558 -55.54261398 65.99307442 C-55.54025686 64.02471648 -55.53142708 62.05635506 -55.51594925 60.08805656 C-55.49632277 57.33558889 -55.502113 54.58427389 -55.51416016 51.83178711 C-55.50292114 51.02278961 -55.49168213 50.21379211 -55.48010254 49.38027954 C-55.5482322 43.2453791 -57.44318879 39.74842235 -61.66796875 35.20703125 C-62.16941406 34.74683594 -62.67085937 34.28664062 -63.1875 33.8125 C-66.69759589 30.30240411 -67.1729009 27.9706059 -67.3125 23.1875 C-67.23432753 18.29816712 -66.41838845 15.67476759 -63 12 C-57.34632175 7.46375463 -50.79888654 5.26326571 -44 3 C-43.01515625 2.64808594 -42.0303125 2.29617187 -41.015625 1.93359375 C-28.93967219 -2.30550368 -11.65863588 -7.36772567 0 0 Z " fill="#1E1D1D" transform="translate(1095,167)"/>
<path d="M0 0 C1.27093506 0.00684814 2.54187012 0.01369629 3.85131836 0.02075195 C13.40152641 0.18369563 21.69146812 1.19337937 30.6875 4.4375 C31.74324219 4.788125 32.79898438 5.13875 33.88671875 5.5 C51.6353941 12.04496607 63.48006427 25.96455705 71.6875 42.4375 C72.96289997 45.40280493 73.91628461 48.30624956 74.6875 51.4375 C74.88988281 52.15421875 75.09226562 52.8709375 75.30078125 53.609375 C79.79487491 71.83032615 76.15633593 91.00778756 67.6875 107.4375 C65.58593157 110.69930934 63.27975797 113.56124174 60.6875 116.4375 C60.04683594 117.26121094 59.40617188 118.08492188 58.74609375 118.93359375 C47.89160726 132.13610957 29.11473663 139.55856121 12.6875 142.4375 C-11.2400903 143.95428788 -33.25772645 141.68351452 -52.078125 125.5078125 C-52.81546875 124.82460938 -53.5528125 124.14140625 -54.3125 123.4375 C-55.35664063 122.47457031 -55.35664063 122.47457031 -56.421875 121.4921875 C-69.57863768 108.0804488 -74.62238861 89.16282436 -74.8125 70.875 C-74.60796709 51.23824233 -68.04396578 33.9688712 -54.08984375 20.01953125 C-38.73525822 5.74473373 -20.74152178 -0.17248954 0 0 Z " fill="#1F1E1F" transform="translate(541.3125,199.5625)"/>
<path d="M0 0 C8.67545251 6.26665008 14.0567376 18.22194793 16.80078125 28.30078125 C17.59184232 35.94492928 18.15685441 43.43915156 13.30078125 49.78515625 C8.65357392 54.48077199 4.11189787 56.43912932 -2.38671875 56.61328125 C-9.17564682 56.50608765 -13.46677632 54.98810078 -18.328125 50.20703125 C-21.20198163 47.03149906 -23.83454374 43.83121763 -26.26171875 40.30078125 C-29.00264604 37.47143695 -31.35846552 37.44571533 -35.19921875 37.30078125 C-37.24038796 39.34195046 -36.35649382 43.62017491 -36.36035156 46.42553711 C-36.36531647 47.27768799 -36.37028137 48.12983887 -36.37539673 49.0078125 C-36.39006923 51.84375809 -36.39683186 54.67964759 -36.40234375 57.515625 C-36.40809489 59.4856415 -36.41385263 61.45565798 -36.4196167 63.42567444 C-36.43014377 67.56772117 -36.43597398 71.70974841 -36.43945312 75.85180664 C-36.44491479 81.14091916 -36.46888545 86.42977122 -36.49742508 91.71880245 C-36.51612731 95.79479194 -36.52126128 99.87071997 -36.522789 103.94674873 C-36.5258034 105.89504977 -36.53379067 107.84335004 -36.54697418 109.79160881 C-37.17363061 125.45304536 -37.17363061 125.45304536 -31.51171875 139.61328125 C-28.77526049 141.6101562 -25.93948496 143.36534503 -23.00390625 145.0546875 C-21.19921875 146.30078125 -21.19921875 146.30078125 -19.19921875 149.30078125 C-17.66302381 162.31801208 -17.66302381 162.31801208 -21.19921875 166.92578125 C-27.80075302 172.15199588 -33.89421961 174.40896557 -42.29370117 174.46191406 C-43.5256572 174.47152161 -44.75761322 174.48112915 -46.02690125 174.49102783 C-47.36949477 174.49587757 -48.71209046 174.50015597 -50.0546875 174.50390625 C-50.73483728 174.50673363 -51.41498707 174.509561 -52.11574745 174.51247406 C-55.7182008 174.5274463 -59.32061433 174.53668692 -62.9230957 174.54101562 C-66.62380776 174.54648376 -70.32414881 174.57048183 -74.02474499 174.59898758 C-76.88771077 174.61772284 -79.75058934 174.6228254 -82.61361122 174.6243515 C-84.63471885 174.62880711 -86.65577958 174.64740324 -88.67680359 174.6663208 C-98.48067242 174.64273983 -106.50625437 173.74344205 -113.82421875 166.83203125 C-117.17333934 163.10232878 -117.67662198 159.2359614 -117.5 154.28125 C-116.96472906 150.75680366 -115.55498678 148.94383807 -113.19921875 146.30078125 C-111.71705247 145.33533349 -110.21513137 144.39982673 -108.69921875 143.48828125 C-103.03098752 139.94563673 -101.26471116 135.50137052 -99.66629028 129.19976807 C-99.046557 125.35325103 -99.06003592 121.55539049 -99.06982422 117.67089844 C-99.0680719 116.81346039 -99.06631958 115.95602234 -99.06451416 115.07260132 C-99.06012403 112.24759886 -99.0630226 109.42265931 -99.06640625 106.59765625 C-99.06573264 104.63421619 -99.06476214 102.6707762 -99.06350708 100.70733643 C-99.06203417 96.59850264 -99.06417256 92.48969063 -99.06884766 88.38085938 C-99.07455974 83.10228123 -99.07125404 77.82375377 -99.06527519 72.54517746 C-99.06167143 68.49444187 -99.06280705 64.44371842 -99.06540298 60.39298248 C-99.06607199 58.44563033 -99.06524475 56.49827709 -99.06292343 54.55092621 C-99.06039832 51.8382828 -99.0642348 49.12572307 -99.06982422 46.41308594 C-99.06779999 45.60167145 -99.06577576 44.79025696 -99.06369019 43.95425415 C-98.73566255 40.32918128 -98.73566255 40.32918128 -100.19921875 37.30078125 C-103.51869745 36.83639822 -104.83854448 37.04130759 -107.59375 39.0234375 C-108.79064453 40.18166016 -108.79064453 40.18166016 -110.01171875 41.36328125 C-110.87925781 42.18183594 -111.74679687 43.00039062 -112.640625 43.84375 C-113.48496094 44.65457031 -114.32929688 45.46539062 -115.19921875 46.30078125 C-122.99478285 53.51889616 -128.15164037 56.92718537 -139.1328125 56.65234375 C-144.5059309 56.03631744 -147.01217759 53.61615118 -150.51171875 49.73828125 C-154.50847912 43.96518294 -153.80301493 37.0385977 -153.19921875 30.30078125 C-150.22970211 18.96029959 -143.90771894 5.42480728 -133.37845421 -0.77054501 C-130.93787333 -1.81059021 -129.26423751 -1.94348383 -126.62051392 -1.93299866 C-125.24955818 -1.93495491 -125.24955818 -1.93495491 -123.85090637 -1.93695068 C-122.85548325 -1.92818909 -121.86006012 -1.91942749 -120.83447266 -1.91040039 C-119.25334435 -1.90842903 -119.25334435 -1.90842903 -117.64027405 -1.90641785 C-114.15201887 -1.89992123 -110.66398221 -1.87948322 -107.17578125 -1.859375 C-104.75206744 -1.85310452 -102.32835076 -1.84786445 -99.90463257 -1.84361267 C-93.51838501 -1.83029881 -87.13223277 -1.80586461 -80.74603271 -1.77825928 C-70.53090666 -1.73517626 -60.31575552 -1.70540471 -50.10056686 -1.68221855 C-46.53206568 -1.67200037 -42.9636429 -1.65494679 -39.39517212 -1.63722229 C-37.20436676 -1.63039274 -35.0135607 -1.62378404 -32.82275391 -1.61743164 C-31.83137924 -1.61069427 -30.84000458 -1.60395691 -29.81858826 -1.59701538 C-2.66177382 -1.55225688 -2.66177382 -1.55225688 0 0 Z " fill="#1D1D1E" transform="translate(473.19921875,164.69921875)"/>
<path d="M0 0 C1.75860352 -0.01740234 1.75860352 -0.01740234 3.55273438 -0.03515625 C20.77414842 0.02189979 36.24852321 4.97276452 48.92358398 16.82739258 C58.21192661 26.18206923 63.00147302 37.31539016 63.375 50.375 C63.24113464 57.73759502 62.64426492 62.7345586 57.3125 68.1875 C51.24577278 72.27087409 45.57962802 73.90695037 38.44921875 74.92578125 C37.62934982 75.04883133 36.8094809 75.17188141 35.96476746 75.29866028 C26.30243318 76.70313334 16.59308022 77.64260842 6.875 78.5625 C5.03445461 78.74101552 3.19395946 78.9200499 1.35351562 79.09960938 C-3.07627008 79.53068642 -7.5066637 79.95486492 -11.9375 80.375 C-10.85182507 85.22921965 -9.04454895 88.90203494 -4.84765625 91.8359375 C5.35954677 97.71229731 18.5166456 98.12243245 29.875 95.1875 C33.80486456 93.94334197 37.53481354 92.33119053 41.3125 90.6875 C45.77175771 88.79202741 49.16428182 87.39535636 54.0625 88.375 C57.6364125 90.66769859 59.60136133 92.41080097 61.4375 96.25 C63.04368346 104.28091731 61.85149594 111.7856998 57.5859375 118.8046875 C47.74895191 132.145257 32.19282985 138.4955417 16.390625 141.9609375 C-5.85639961 144.72875981 -27.60931098 141.63689445 -45.83544922 127.94970703 C-59.91309621 116.50523454 -69.40377592 101.56861487 -71.9375 83.375 C-73.59478966 62.13878226 -70.75983701 42.33588802 -56.76171875 25.453125 C-56.15972656 24.76734375 -55.55773437 24.0815625 -54.9375 23.375 C-54.36644531 22.70984375 -53.79539062 22.0446875 -53.20703125 21.359375 C-39.15233981 6.13595656 -20.31869418 -0.20040356 0 0 Z " fill="#1D1D1D" transform="translate(833.9375,199.625)"/>
<path d="M0 0 C10.02680493 8.68334414 18.33043136 20.43530838 19.81640625 33.9375 C20.15204605 42.42593873 18.65216537 49.43750982 13 55.9375 C-1.70139034 66.14580038 -25.19328992 65.19472145 -42.33862305 66.41650391 C-43.83002808 66.52357666 -43.83002808 66.52357666 -45.3515625 66.6328125 C-46.22635254 66.69227051 -47.10114258 66.75172852 -48.00244141 66.81298828 C-50.55102248 67.06759726 -52.99844907 67.51912344 -55.5 68.0625 C-54.43049354 73.97779497 -50.3002604 78.11260882 -45.48046875 81.46875 C-35.84269827 86.19480207 -23.1382844 85.68703859 -13.1171875 82.5234375 C-7.79847934 80.6530737 -2.54555835 78.58527918 2.5 76.0625 C7.46134453 75.6880589 10.61322241 75.82351867 14.5 79.0625 C18.08472503 84.13055952 18.15091888 89.0867031 17.5 95.0625 C15.58663527 104.70904721 9.55629759 112.57736121 1.5 118.0625 C-17.74985037 129.71646347 -41.04292806 133.8223953 -63.0625 128.5 C-74.38398552 125.18525579 -84.66617851 119.95473199 -93.5 112.0625 C-94.18578125 111.45792969 -94.8715625 110.85335937 -95.578125 110.23046875 C-107.90857391 98.67655574 -115.03521057 82.33167196 -115.71875 65.5234375 C-116.28431568 43.24273031 -111.1931453 24.41698159 -95.8125 7.8125 C-70.78613122 -15.72124241 -28.12005335 -21.68900976 0 0 Z " fill="#1E1E1E" transform="translate(1309.5,211.9375)"/>
<path d="M0 0 C0.87333984 -0.02900391 1.74667969 -0.05800781 2.64648438 -0.08789062 C10.17255587 -0.16095928 15.28982963 1.41497203 20.765625 6.6640625 C23.24405539 12.50965336 22.99315844 18.40263335 23.0625 24.6875 C23.09214844 25.99589844 23.12179687 27.30429688 23.15234375 28.65234375 C23.22285718 31.87245727 23.27564905 35.09185431 23.3125 38.3125 C24.09898926 38.29155273 24.88547852 38.27060547 25.69580078 38.24902344 C29.27623598 38.16562247 32.85646642 38.11376224 36.4375 38.0625 C38.29375 38.01222656 38.29375 38.01222656 40.1875 37.9609375 C50.46984365 37.85037467 50.46984365 37.85037467 53.9921875 40.015625 C58.73571281 44.71123591 59.75862367 48.06260037 59.8125 54.75 C59.76996078 62.76574311 59.76996078 62.76574311 57.0625 66.125 C52.52168874 69.73700895 49.63244531 70.56741058 43.796875 70.7265625 C42.54648437 70.76523438 41.29609375 70.80390625 40.0078125 70.84375 C38.70585938 70.8746875 37.40390625 70.905625 36.0625 70.9375 C34.74507812 70.97617188 33.42765625 71.01484375 32.0703125 71.0546875 C28.81784839 71.14896182 25.56539004 71.2345675 22.3125 71.3125 C22.21309446 76.72016124 22.14077949 82.12728228 22.09277344 87.53564453 C22.07274627 89.37265293 22.04551618 91.20959829 22.01074219 93.04638672 C21.96182935 95.69775002 21.93944237 98.34826541 21.921875 101 C21.90122986 101.81178711 21.88058472 102.62357422 21.85931396 103.45996094 C21.85729915 108.66302433 22.83842476 112.18080624 25.45123291 116.69458008 C26.3125 118.3125 26.3125 118.3125 26.3125 120.3125 C30.85189976 122.08397308 34.44798312 122.88964607 39.3125 122.3125 C40.84126157 121.5331846 42.3406542 120.69460792 43.8125 119.8125 C47.86105692 117.40673612 50.52158141 116.4085531 55.3125 117.3125 C60.25038473 120.25623898 62.29617166 123.21052068 63.84765625 128.71875 C65.99318399 140.69043419 63.59183149 151.60680909 56.765625 161.5703125 C48.25951992 172.29382104 34.42260648 176.96284408 21.3125 179.3125 C4.87741286 180.43989504 -10.4869583 180.29653283 -23.6875 169.3125 C-32.09205206 161.79103493 -36.13489656 152.39885713 -37.6875 141.3125 C-37.79361262 138.95035059 -37.85281572 136.58584395 -37.87695312 134.22143555 C-37.88524643 133.53941574 -37.89353973 132.85739594 -37.90208435 132.15470886 C-37.9193846 130.68481863 -37.93457801 129.21490235 -37.94786072 127.74497032 C-37.96900492 125.42120287 -37.9960119 123.09756787 -38.02453613 120.77388 C-38.09412353 115.0095791 -38.15392777 109.245185 -38.21356201 103.48077393 C-38.26441472 98.59595087 -38.31917507 93.71120364 -38.37937927 88.82648659 C-38.40600859 86.53251495 -38.42678011 84.23853629 -38.4473877 81.94450378 C-38.46398022 80.5485296 -38.48085113 79.15255868 -38.49804688 77.7565918 C-38.51057495 76.53336716 -38.52310303 75.31014252 -38.53601074 74.04985046 C-38.37743072 71.40025133 -38.37743072 71.40025133 -39.6875 70.3125 C-41.93654725 70.20652395 -44.18690647 70.12786994 -46.4375 70.0625 C-54.36729073 69.56235043 -54.36729073 69.56235043 -57 66.9375 C-60.68540597 61.20464627 -60.45587975 54.91576344 -59.6875 48.3125 C-57.22220085 41.85294212 -50.01444558 39.06294943 -44.15795898 36.23901367 C-39.88428925 34.15047657 -36.89582633 31.92118159 -33.6875 28.3125 C-33.01203125 27.5596875 -32.3365625 26.806875 -31.640625 26.03125 C-28.6368711 21.85002457 -26.54659389 17.21761372 -24.39453125 12.55078125 C-21.59042994 6.91264161 -18.37300744 4.01762952 -12.6875 1.3125 C-8.45920961 -0.09693013 -4.43031469 0.04798175 0 0 Z " fill="#1F1F20" transform="translate(958.6875,162.6875)"/>
<path d="M0 0 C1.08390015 -0.00350464 1.08390015 -0.00350464 2.18969727 -0.00708008 C6.79465641 0.13970675 10.07807726 1.17294528 14 3.5625 C17.86218507 7.9764258 18.16404108 13.94682302 19 19.5625 C23.11052083 18.23012428 25.07551279 16.67275316 27.75 13.3125 C33.38601141 6.70879606 40.29075936 1.28364248 49.19189453 0.3269043 C69.24587673 -0.79710703 69.24587673 -0.79710703 77 5.5625 C83.87377323 11.97538805 88.3890334 19.62065541 89.2265625 29.13671875 C89.53838463 39.29928549 86.74368904 47.8305117 80 55.5625 C77.15640654 57.87291968 74.20139538 59.78718075 71 61.5625 C70.37351562 61.92472656 69.74703125 62.28695312 69.1015625 62.66015625 C62.04023704 65.69206365 51.9123117 65.86720999 44.55859375 63.9140625 C38.38338925 61.08627805 33.80029609 56.0511446 29.875 50.625 C28.15988997 48.31068481 28.15988997 48.31068481 25.375 48.125 C22.82100147 48.36329504 22.82100147 48.36329504 21 50.5625 C20.04896985 53.41497688 19.86532514 56.05910219 19.83886719 59.05224609 C19.82925964 59.93351166 19.8196521 60.81477722 19.80975342 61.7227478 C19.80550354 62.6676004 19.80125366 63.612453 19.796875 64.5859375 C19.79117493 65.56486969 19.78547485 66.54380188 19.77960205 67.55239868 C19.77016433 69.62183556 19.76362295 71.69128738 19.75976562 73.76074219 C19.75005722 76.91888738 19.71902082 80.07638238 19.6875 83.234375 C19.68096976 85.24739198 19.67571937 87.2604136 19.671875 89.2734375 C19.6533548 90.68464371 19.6533548 90.68464371 19.63446045 92.12435913 C19.65241845 97.43540671 20.2132306 100.88753337 23 105.5625 C23 106.2225 23 106.8825 23 107.5625 C23.680625 107.76875 24.36125 107.975 25.0625 108.1875 C30.24480994 110.6132621 34.84574815 114.13544245 37 119.5625 C37.45334816 125.18401717 37.18933562 128.72350802 34 133.5625 C29.156141 138.15141906 24.74959762 139.81091702 18.12744141 139.82128906 C16.96918854 139.82759338 15.81093567 139.83389771 14.61758423 139.84039307 C12.75340347 139.83432037 12.75340347 139.83432037 10.8515625 139.828125 C8.9227272 139.83099518 8.9227272 139.83099518 6.95492554 139.83392334 C4.23650288 139.83686611 1.51821198 139.83260579 -1.20019531 139.82324219 C-4.66897311 139.81187081 -8.13744057 139.81839759 -11.60620689 139.83038712 C-14.93280795 139.83939371 -18.25932765 139.83306776 -21.5859375 139.828125 C-23.44404556 139.83419769 -23.44404556 139.83419769 -25.33969116 139.84039307 C-32.53294703 139.80145243 -38.48763387 139.71781558 -44.75 135.875 C-48.42699581 132.09586542 -49.74854196 128.29127406 -50.5 123.125 C-49.65773242 117.12384351 -46.27499898 112.93422505 -42.3125 108.5 C-37.05143056 101.81701991 -37.69276642 94.17369145 -37.69921875 86.0234375 C-37.69493362 84.82441803 -37.6906485 83.62539856 -37.68623352 82.39004517 C-37.68050649 79.86355215 -37.67997792 77.33704264 -37.68432617 74.81054688 C-37.6874949 70.94372609 -37.66397511 67.0776643 -37.63867188 63.2109375 C-37.63639963 60.75260513 -37.63569504 58.29427071 -37.63671875 55.8359375 C-37.627509 54.68064545 -37.61829926 53.52535339 -37.60881042 52.33505249 C-37.61503922 51.25688263 -37.62126801 50.17871277 -37.62768555 49.06787109 C-37.62705612 48.12301849 -37.6264267 47.17816589 -37.6257782 46.2046814 C-38.07848238 43.00837761 -39.10444619 41.15881035 -41 38.5625 C-42.99371825 37.21979179 -44.9934562 35.88596506 -47 34.5625 C-50.15410207 29.75115785 -49.78782749 24.07006463 -49 18.5625 C-46.46980393 12.84115867 -41.20256842 10.10308915 -35.62890625 7.828125 C-24.00078509 3.77267693 -12.42080963 0.0273042 0 0 Z " fill="#1F1F1F" transform="translate(1382,199.4375)"/>
<path d="M0 0 C5.45283413 2.35220296 7.41218013 5.96280687 9.921875 11.07421875 C15.37621238 25.87602562 15.46880174 45.53416827 9 60 C6.83784769 63.67634099 4.1951271 66.76613909 0 68 C-3.39725113 68.51279262 -5.81756586 68.67284955 -8.8671875 66.9375 C-16.42764769 60.96700784 -18.63595682 53.21443415 -20 44 C-20.28036776 40.36945269 -20.33486481 36.76535229 -20.3125 33.125 C-20.30686035 32.16190918 -20.3012207 31.19881836 -20.29541016 30.20654297 C-20.11101082 19.38540557 -18.88305554 10.00622829 -11 2 C-7.27032518 -0.48644988 -4.3183671 -0.62394658 0 0 Z " fill="#F7F7F6" transform="translate(546,237)"/>
<path d="M0 0 C3.89175305 1.04431211 6.6591859 3.33476911 9.0234375 6.54296875 C11.86592074 12.17564465 12.51883187 17.42590297 12.4609375 23.66796875 C12.4909082 24.82619141 12.4909082 24.82619141 12.52148438 26.0078125 C12.51695985 31.31960055 11.50958938 34.32356721 8.0234375 38.54296875 C5.05236808 40.95194396 3.3489029 41.50809746 -0.4765625 41.91796875 C-4.41506639 41.49598619 -5.9909587 41.13572995 -8.9765625 38.54296875 C-14.75522796 29.92394231 -16.508853 21.47711702 -14.515625 11.15625 C-12.29470868 4.29753783 -7.79833709 -0.55275569 0 0 Z " fill="#F5F5F4" transform="translate(687.9765625,223.45703125)"/>
<path d="M0 0 C0.85921051 0.01093689 1.71842102 0.02187378 2.60366821 0.03314209 C4.06055557 0.0487619 4.06055557 0.0487619 5.546875 0.06469727 C7.13273911 0.09113312 7.13273911 0.09113312 8.75064087 0.11810303 C10.36925522 0.14284698 10.36925522 0.14284698 12.02056885 0.16809082 C14.30889731 0.20566912 16.59717848 0.24622493 18.88540649 0.28948975 C22.3925115 0.35208196 25.8994751 0.39358778 29.40689087 0.43450928 C31.62566425 0.4735676 33.8444158 0.51389044 36.06314087 0.55560303 C37.64293228 0.56989349 37.64293228 0.56989349 39.25463867 0.58447266 C40.72098251 0.61900543 40.72098251 0.61900543 42.21694946 0.65423584 C43.07775116 0.6683551 43.93855286 0.68247437 44.82543945 0.69702148 C47.50823944 1.18827223 48.43913232 1.9210371 50.03970337 4.10247803 C49.97720337 6.60247803 49.97720337 6.60247803 49.03970337 9.10247803 C41.85671965 15.35608447 32.48703009 15.39885067 23.41470337 15.47747803 C22.0912793 15.49814331 22.0912793 15.49814331 20.74111938 15.51922607 C13.42355617 15.46799698 6.53278286 14.2267701 0.53970337 9.78997803 C-2.26117002 6.77903914 -2.86782603 5.17118458 -2.96029663 1.10247803 C-1.96029663 0.10247803 -1.96029663 0.10247803 0 0 Z " fill="#F5F5F4" transform="translate(660.9602966308594,342.89752197265625)"/>
<path d="M0 0 C3.16707837 2.5474326 5.73555766 5.09172369 7 9 C7.53908747 15.14559721 7.53908747 15.14559721 5.96484375 17.640625 C2.98176343 19.70446586 -0.23069169 19.8374958 -3.75 20.1875 C-4.78640625 20.3102832 -4.78640625 20.3102832 -5.84375 20.43554688 C-10.24037454 20.92727462 -14.57083739 21.16467399 -19 21 C-20 20 -20 20 -20.3125 16.4375 C-20.24307352 11.60368114 -18.72168425 7.95961161 -16 4 C-11.04676963 -0.71160938 -6.64201216 -1.90698396 0 0 Z " fill="#F3F3F2" transform="translate(1271,233)"/>
<path d="M0 0 C4.10219771 1.81259899 6.76415359 4.10797107 9 8 C9.43114097 11.37460956 9.51257582 14.63249606 9 18 C4.35796464 22.64203536 -5.43899708 22.12366038 -11.75 22.1875 C-15.84552846 22.15447154 -15.84552846 22.15447154 -17 21 C-17.92578801 14.95592682 -16.95183929 10.68976606 -13.41796875 5.73046875 C-9.3354898 0.74826992 -6.52131597 -0.8151645 0 0 Z " fill="#F4F4F3" transform="translate(836,232)"/>
<path d="M0 0 C4.95 0 9.9 0 15 0 C15 0.33 15 0.66 15 1 C10.71 1 6.42 1 2 1 C3.32 2.98 4.64 4.96 6 7 C3 7 3 7 1.3125 5.75 C0 4 0 4 0 0 Z " fill="#D5D4D2" transform="translate(1426,288)"/>
<path d="M0 0 C0.99 0.33 1.98 0.66 3 1 C-1.75 5.875 -1.75 5.875 -4 7 C-3.43628586 3.73045798 -2.50037734 2.17424117 0 0 Z " fill="#3A393A" transform="translate(1210,199)"/>
</svg>
